<svg width="292" height="261" viewBox="0 0 292 261" fill="none" xmlns="http://www.w3.org/2000/svg">
<path d="M145.725 6.84779e-06C143.955 -1.97205e-05 142.202 0.348669 140.567 1.02617C138.932 1.70367 137.447 2.69671 136.196 3.94859C134.944 5.20046 133.952 6.68667 133.274 8.32233C132.597 9.95799 132.249 11.7111 132.249 13.4815C132.25 16.5851 133.322 19.5931 135.284 21.9977C137.245 24.4022 139.976 26.0561 143.015 26.6801L143.244 26.7812V33.8471V40.9139L133.512 31.2636C128.159 25.9557 123.027 21.1252 122.109 20.5288C118.965 18.4877 116.414 17.8578 111.376 17.8776C106.431 17.8971 105.01 18.251 98.6297 21.052C96.9244 21.8007 91.5759 23.7452 86.7441 25.3739C62.1403 33.6675 39.183 39.4337 20.5978 41.9872C15.713 42.6583 5.3952 43.5255 2.22313 43.5317C0.495212 43.5351 -0.0927177 43.6506 0.0116066 43.9668C0.104555 44.2488 1.27441 44.474 3.3989 44.618C18.8287 45.6635 43.8134 43.4335 59.6995 39.5929C62.3522 38.9516 64.5745 38.4781 64.6381 38.541C64.807 38.7079 56.7179 41.2993 53.498 42.1096C49.2427 43.1805 42.2791 44.4584 36.9621 45.1449C30.9056 45.9268 10.9112 46.0404 4.96968 45.3267C2.91146 45.0795 1.15681 44.9482 1.07054 45.0345C0.815186 45.29 5.14858 48.2073 6.64432 48.7868C8.21279 49.3945 8.20758 49.3938 9.48638 49.4009C10.2544 49.4052 10.3365 49.4761 9.91756 49.7775C9.48783 50.0868 9.50669 50.1149 10.0316 49.9445C10.3788 49.8318 11.852 50.0398 13.3049 50.4065C17.4885 51.4624 20.9058 51.8082 27.1702 51.8082C35.7289 51.8082 43.7057 50.5885 55.3933 47.4937C64.266 44.7197 66.4598 43.6966 70.4419 44.6903C70.5029 44.7514 68.1106 45.9814 65.1259 47.4241C56.6549 51.5187 47.677 54.6109 37.8328 56.823C33.4064 57.8177 23.7672 59.3885 22.0814 59.3898C20.6269 59.3909 20.4001 59.8685 21.271 61.0921C22.7535 63.1749 23.9727 63.5963 28.4573 63.5772C40.9014 63.5243 62.6358 58.1755 76.8391 51.6699C78.3076 50.9973 79.5087 50.512 79.5087 50.592C79.5087 50.8445 73.6229 53.9775 70.0348 55.6347C58.7874 60.8294 43.5998 64.1164 30.2793 64.2396C26.3966 64.2755 25.8869 64.6161 28.3803 65.5077C31.238 66.5295 32.5851 66.7044 37.3831 66.6728C44.4838 66.6261 52.8955 65.3688 61.6375 63.0485C69.6438 60.9235 74.3807 59.464 81.977 56.7804C86.1344 55.3496 96.7979 50.2385 94.8669 54.1755C94.4761 54.8081 91.2302 56.3333 84.6763 58.9622C70.5323 64.6355 54.0385 69.1609 44.6157 69.953C43.1409 70.077 41.8561 70.3041 41.7607 70.4585C41.6652 70.6129 42.4067 71.1641 43.4084 71.683C45.0328 72.5244 45.7331 72.6512 49.8807 72.8528C55.3129 73.1167 57.092 72.8713 66.31 70.5893C77.5255 67.8129 91.5645 63.1433 99.0526 59.6987C100.675 58.9523 102.064 58.4035 102.139 58.4789C102.346 58.6855 96.7327 61.5052 92.2557 63.4437C83.5484 67.2139 73.4268 70.2536 62.1113 72.4965C58.3217 73.2477 54.8331 73.9606 54.3594 74.081L53.498 74.2999L54.5319 74.5949C58.4091 75.7023 66.8427 75.0218 76.6685 72.8082C79.18 72.2424 81.5957 71.6429 82.0364 71.4752C82.4771 71.3076 83.9104 70.9123 85.2215 70.5967C86.5326 70.2811 88.9223 69.5868 90.5329 69.0541C92.1435 68.5213 94.8117 67.6546 96.4618 67.1283C98.0325 66.4624 99.4773 65.9879 100.234 65.7284L101.255 65.6913L100.287 66.3296C99.7543 66.6808 99.0855 66.9708 98.8013 66.9733C98.5171 66.9751 97.8194 67.286 97.2509 67.6626C96.0537 68.4558 96.3298 68.5532 97.8879 67.888C98.485 67.6331 100.291 66.9123 101.902 66.286C103.513 65.6596 106.65 64.3068 108.872 63.2795C111.443 62.0913 113.261 61.4518 113.867 61.5216C114.649 61.6113 113.947 62.0762 109.998 64.0865C97.3476 70.5272 84.4957 75.06 74.3948 76.6441C72.9163 76.876 71.992 77.1689 72.1712 77.3482C73.3833 78.5608 81.7314 78.5576 87.4497 77.3426C89.2407 76.9621 92.2746 76.4233 94.1928 76.145C98.1578 75.5697 101.583 74.4744 106.553 72.1923C110.044 70.5897 117.491 66.5747 118.439 65.785C119.482 64.9158 119.956 64.8579 118.955 65.722C115.231 68.9386 107.467 73.29 101.041 75.7628C93.9227 78.502 94.148 78.3826 96.562 78.1469C102.765 77.541 111.937 73.884 118.766 69.2943C120.197 68.3329 122.368 66.8744 123.591 66.0531C126.462 64.125 127.324 64.1212 129.445 66.029C130.344 66.8371 132.428 68.272 134.078 69.2173C138.497 71.7491 140.506 72.9237 141.951 73.8212L143.244 74.6236V148.173C143.244 218.339 143.272 221.723 143.854 221.723C144.19 221.723 145.353 220.987 146.439 220.086L148.414 218.449L148.395 146.112L148.377 73.7749L149.115 72.9901C149.52 72.5582 152.172 70.8336 155.008 69.158C157.845 67.4823 160.738 65.765 161.437 65.3416C163.164 64.2962 164.616 64.3342 165.664 65.452C171.946 70.6927 181.478 75.0426 189.409 77.1172C191.398 77.6236 194.111 78.1161 195.437 78.2109L197.849 78.3834L193.198 76.6561C187.497 74.5389 181.195 71.4152 177.132 68.6932C174.279 66.7823 170.768 64.0457 172.872 65.3732C181.904 71.0713 194.228 76.4874 198.883 76.8036C199.83 76.8681 201.948 77.1582 203.59 77.4483C206.747 78.0063 215.905 78.2453 218.093 77.8268C219.861 77.4886 220.01 77.0462 218.443 76.7879C206.863 74.879 195.678 70.986 181.827 64.042C179.349 62.8 177.405 61.649 177.507 61.4845C177.809 60.9944 179.716 61.6196 183.551 63.4659C190.548 66.8346 199.774 70.2284 207.496 72.2749C215.092 74.2879 218.534 74.7752 219.769 74.0114C219.915 73.9216 221.708 74.1019 223.755 74.4122C226.468 74.8233 228.671 74.9223 231.881 74.7767C238.232 74.4886 238.343 74.1384 232.432 73.0346C222.113 71.1076 211.833 68.2494 203.534 65.0002C199.148 63.283 189.581 58.7571 189.824 58.5141C189.909 58.429 191.673 59.1164 193.742 60.041C201.705 63.5987 213.365 67.4671 225.066 70.4335C235.401 73.0536 236.839 73.241 241.861 72.6227C246.947 71.9966 248.87 71.5893 249.791 70.9437C250.476 70.4641 250.474 70.4548 249.662 70.2841C249.208 70.1888 247.906 70.0175 246.77 69.9029C240.153 69.2356 229.825 66.7783 219.726 63.4687C210.2 60.347 197.81 55.2726 197.165 54.2284C196.687 53.4551 198.952 53.9507 202.785 55.4575C217.91 61.4475 235.226 65.878 250.892 66.5077C256.699 66.7324 258.914 66.4347 261.999 65.0151L263.306 64.4131L261.756 64.3175C260.903 64.2647 257.889 64.0563 255.058 63.8546C240.847 62.8419 227.524 58.9806 215.505 52.3907C210.944 49.89 211.528 49.9 216.969 52.4158C226.915 57.0142 240.757 60.8485 254.612 62.8435C261.06 63.7717 263.675 63.7405 266.159 62.7043C267.242 62.2522 268.618 61.7778 269.214 61.6505C270.433 61.3903 271.587 60.3126 271.244 59.7563C271.119 59.5548 270.522 59.3903 269.918 59.3898C268.232 59.3884 258.594 57.8177 254.167 56.823C244.323 54.6109 235.344 51.5187 226.873 47.4241C223.889 45.9814 221.512 44.7367 221.591 44.6579C221.669 44.579 223.646 45.1336 225.983 45.8907C230.862 47.3212 234.286 48.1106 239.363 48.8379C240.215 48.9567 241.378 49.2027 241.947 49.3842C243.214 49.789 250.145 50.956 254.349 51.4724C258.672 52.0033 267.809 51.9079 271.92 51.2887C276.146 50.6521 283.774 48.5668 285.872 47.4751C286.725 47.0314 287.829 46.5861 288.326 46.4853C288.823 46.3845 289.598 45.9794 290.049 45.5846L290.867 44.8666L289.489 45.0456C280.432 46.2231 262.703 46.1744 253.66 44.9473C248.486 44.2452 241.951 43.0094 237.902 41.9677C235.05 41.2337 227.214 38.6865 227.361 38.5409C227.425 38.478 229.648 38.9516 232.301 39.5929C242.114 41.9654 256.099 43.8609 268.99 44.566C279.703 45.1519 291.701 44.8391 291.988 43.9668C292.093 43.6505 291.504 43.5351 289.776 43.5317C286.604 43.5254 276.287 42.6583 271.402 41.9872C255.413 39.7903 236.855 35.3857 215.419 28.7005C206.492 25.9166 195.324 22.0079 192.288 20.6049C188.168 18.7008 185.411 17.9698 181.635 17.7784C176.346 17.5103 172.353 18.6212 168.842 21.3377C167.743 22.1886 162.854 26.8626 157.979 31.7246C153.105 36.5866 149.046 40.4947 148.961 40.4092C148.875 40.3238 148.634 37.1773 148.423 33.4166C148.199 29.406 148.148 27.5889 148.273 26.7107C151.347 26.1184 154.118 24.4741 156.112 22.0601C158.106 19.6461 159.198 16.613 159.2 13.4815C159.2 9.90612 157.78 6.47716 155.253 3.9489C152.726 1.42064 149.298 0.000196946 145.725 6.84779e-06ZM126.362 79.7906V81.1367C126.362 81.8769 126.488 82.4827 126.641 82.4827C127.347 82.4827 129.306 84.9373 130.506 87.3259C132.096 90.4887 132.684 92.654 133.498 98.3362C134.066 102.308 134.114 106.316 134.114 149.69C134.114 192.648 134.061 197.184 133.5 201.905C132.477 210.522 130.773 215.616 127.775 219.018C126.771 220.159 126.362 220.931 126.362 221.69C126.362 222.277 126.476 222.757 126.615 222.757C126.753 222.757 127.779 222.193 128.896 221.504C130.487 220.521 131.492 220.178 133.553 219.915C136.227 219.574 138.603 218.801 139.04 218.131C139.173 217.927 139.36 187.096 139.454 149.619L139.627 81.4799L138.42 81.2962C137.113 81.0969 130.197 80.221 127.826 79.9548L126.362 79.7906ZM164.924 79.8825C164.805 79.8879 164.669 79.9006 164.517 79.9214C160.115 80.5217 155.889 81.088 154.355 81.2832L152.545 81.5133V151.273V221.033H153.407C153.881 221.033 154.268 220.91 154.268 220.759C154.268 219.872 156.964 219.655 167.987 219.655C176.879 219.655 180.123 219.777 182.594 220.204C188.122 221.158 189.135 220.401 189.546 215.003C189.82 211.401 190.03 210.224 190.805 207.937C191.69 205.327 192.622 201.041 192.36 200.78C191.746 200.166 191.027 200.511 190.499 201.673C188.931 205.128 185.403 208.791 182.173 210.316C180.304 211.199 180.155 211.212 171.149 211.319C166.128 211.378 161.516 211.333 160.901 211.218C158.827 210.829 158.417 208.944 157.645 196.219C156.895 183.836 157.047 102.349 157.834 95.4067C158.716 87.6195 160.829 83.2208 163.99 82.5885C164.635 82.4594 165.117 82.082 165.319 81.5495C165.814 80.2474 165.761 79.8503 164.924 79.8825ZM113.366 88.9252L112.027 89.1933C111.29 89.3405 92.8591 89.5579 71.0687 89.6766L31.4495 89.8927L31.3457 91.1358L31.2418 92.3779L33.241 92.6117C36.4901 92.9911 37.6681 93.4409 39.1291 94.8593C40.487 96.1777 41.1984 97.871 41.7486 101.094C42.1445 103.413 42.6133 115.51 42.8447 129.356C42.973 137.033 43.1392 143.421 43.2137 143.551C43.3515 143.791 42.8095 164.171 42.4728 171.403C42.0915 179.596 41.5153 186.301 40.8779 189.964C40.2179 193.756 39.047 194.591 31.9669 196.314L30.0716 196.775L29.9678 198.381L29.863 199.988L31.5172 199.479C32.4272 199.2 34.5667 198.74 36.2713 198.459C40.45 197.77 60.0048 197.129 69.0018 197.388C72.9809 197.502 84.0199 197.618 93.5335 197.645C113.142 197.702 111.906 197.876 113.446 194.837C114.266 193.216 116.524 186.506 117.387 183.121C117.605 182.268 118.067 180.795 118.415 179.848C118.978 178.313 119.213 177.535 120 174.592C120.192 173.875 120.095 173.816 118.714 173.816H117.221L116.021 176.814C114.495 180.629 111.383 185.368 109.083 187.381C105.901 190.166 101.393 192.022 95.0125 193.176C90.0302 194.077 73.5153 194.469 67.3624 193.832C63.627 193.445 57.8628 192.297 56.749 191.718C55.3463 190.988 54.6678 181.525 54.5922 161.626L54.5319 145.802L55.5046 145.075C56.4616 144.359 56.7358 144.348 72.3854 144.352C86.4054 144.356 88.642 144.43 91.2228 144.978C94.5999 145.696 95.1846 146.022 97.7887 148.632C99.363 150.21 99.8101 150.933 100.3 152.69C100.743 154.279 101.51 159.133 101.555 160.633C101.557 160.681 101.782 160.72 102.057 160.72C102.332 160.72 102.983 160.159 103.505 159.475L104.454 158.231L104.534 146.292C104.577 139.726 104.66 133.189 104.718 131.768L104.824 129.183L103.45 129.086L102.075 128.988L101.316 131.503C99.7225 136.786 98.2414 139.108 96.1067 139.671C92.9286 140.509 86.4553 140.82 71.358 140.859C62.6115 140.882 55.3512 140.798 55.2236 140.671C54.8836 140.334 54.8292 109.147 55.1569 102.352C55.3108 99.1579 55.5753 96.18 55.7447 95.734C56.2368 94.4392 57.7333 93.9304 62.307 93.504C67.2107 93.0467 90.3592 92.8895 93.4621 93.2925C96.6408 93.7052 99.8809 94.4455 101.213 95.0624C103.083 95.9283 104.017 96.5039 103.974 96.7647C103.952 96.8959 104.316 97.3035 104.783 97.671C106.25 98.8255 107.074 101.02 107.046 103.702C107.031 105.016 106.911 106.867 106.778 107.815C106.472 109.99 106.621 110.744 107.359 110.744C108.469 110.744 110.04 107.703 110.654 104.368C110.967 102.662 111.363 100.801 111.532 100.232C111.701 99.6635 111.947 97.8796 112.078 96.2684C112.209 94.6571 112.439 93.1065 112.588 92.8222C112.737 92.5378 112.973 91.5447 113.113 90.6153L113.366 88.9252ZM220.136 89.081C219.387 89.0882 218.627 89.1049 217.85 89.132C211.345 89.3601 207.43 90.0116 202.963 91.6089C195.427 94.3034 189.032 100.006 185.948 106.781C182.995 113.268 182.784 122.849 185.461 128.906C186.556 131.381 188.89 134.626 191.023 136.637C192.841 138.351 197.721 141.763 198.354 141.763C198.566 141.763 199.081 142.082 199.498 142.471C199.916 142.86 200.53 143.107 200.862 143.02C201.195 142.933 201.388 142.991 201.29 143.149C201.111 143.439 202.177 143.913 202.722 143.786C202.884 143.749 204.078 144.209 205.374 144.808C206.671 145.408 207.959 145.898 208.237 145.898C208.531 145.898 208.639 146.065 208.496 146.296C208.344 146.542 208.401 146.601 208.644 146.451C208.861 146.317 209.543 146.433 210.161 146.709C210.779 146.985 211.983 147.447 212.835 147.735C215.469 148.625 217.734 149.542 220.152 150.696C221.429 151.306 222.654 151.692 222.875 151.555C223.125 151.4 223.185 151.457 223.031 151.705C222.886 151.94 223.004 152.103 223.322 152.103C223.618 152.103 223.859 152.258 223.859 152.448C223.859 152.637 224.143 152.792 224.491 152.792C224.838 152.792 225.231 152.9 225.362 153.032C225.494 153.164 225.866 153.31 226.189 153.358C226.511 153.405 226.83 153.608 226.896 153.808C226.963 154.007 227.246 154.17 227.526 154.17C227.826 154.17 227.933 154.336 227.785 154.574C227.618 154.845 227.724 154.905 228.109 154.757C228.424 154.636 228.683 154.66 228.683 154.81C228.683 154.96 229.762 155.82 231.08 156.721C236.126 160.17 239.465 164.956 240.606 170.37C241.368 173.987 241.103 181.032 240.085 184.22C239.211 186.955 237.2 189.654 234.99 191.055C232.868 192.402 228.336 193.998 224.661 194.695C216.377 196.264 204.558 193.944 193.577 188.592C186.852 185.314 184.585 182.445 181.81 173.696L180.624 169.957L179.303 170.134C178.577 170.232 177.904 170.391 177.807 170.488C177.71 170.584 178.017 172.032 178.49 173.705C180.252 179.938 181.677 187.525 182.006 192.427C182.401 198.327 182.507 198.914 183.141 198.746C183.462 198.66 184.219 197.839 184.825 196.919C186.162 194.89 187.104 194.603 189.945 195.359C200.71 198.221 217.978 199.401 225.802 197.811C238.166 195.297 247.153 188.224 250.378 178.469C250.817 177.142 251.308 175.787 251.47 175.458C251.633 175.129 251.765 174.383 251.765 173.8C251.765 173.218 251.891 172.818 252.044 172.913C252.599 173.257 252.505 167.111 251.916 164.5C250.844 159.755 249.245 156.667 245.776 152.643C241.065 147.179 235.837 144.218 218.864 137.402C214.885 135.804 209.695 133.547 207.331 132.384C203.493 130.498 202.715 129.955 200.064 127.315C195.867 123.135 194.237 119.38 194.226 113.859C194.222 112.054 194.119 111.419 193.888 111.778C192.938 113.247 193.943 106.855 195.161 103.678C198.385 95.2649 204.4 92.0725 217.141 92.0124C220.338 91.998 223.739 92.18 225.237 92.4465C228.547 93.0353 232.128 94.1326 232.128 94.5588C232.128 94.7407 232.344 94.8899 232.608 94.8899C232.872 94.8899 233.186 95.1443 233.305 95.4558C233.425 95.7673 233.609 95.936 233.715 95.8296C233.822 95.7234 234.167 95.849 234.482 96.1098C234.798 96.3705 236.251 97.5195 237.712 98.6627C242.171 102.152 244.378 105.785 245.454 111.405C245.766 113.032 246.074 114.428 246.138 114.507C246.345 114.763 247.957 113.752 247.786 113.473C247.694 113.326 247.777 113.106 247.97 112.987C248.456 112.687 248.397 110.162 247.81 106.091C247.203 101.887 247.467 94.0383 248.246 93.0718C248.434 92.8396 248.692 92.0116 248.82 91.2313C249.031 89.9547 248.976 89.7919 248.28 89.6098C247.788 89.4811 246.746 89.7781 245.42 90.4252C242.864 91.6726 241.822 91.6931 236.05 90.6107C230.099 89.4947 225.385 89.0331 220.136 89.081ZM73.2533 233.348C68.9533 233.348 65.6251 234.538 63.2686 236.92C60.9242 239.29 59.7515 242.687 59.7515 247.11C59.7515 250.428 60.42 253.15 61.7562 255.276C63.0924 257.403 64.677 258.891 66.5112 259.742C68.3576 260.581 70.7331 261 73.6363 261C76.0293 261 77.9966 260.654 79.5393 259.961C81.0941 259.268 82.3937 258.241 83.4384 256.88C84.4831 255.519 85.2484 253.824 85.7343 251.795L78.5007 249.608C78.1363 251.297 77.5472 252.584 76.7334 253.471C75.9317 254.358 74.7416 254.802 73.1625 254.802C71.5348 254.802 70.2707 254.255 69.3718 253.161C68.4729 252.056 68.0236 250.021 68.0236 247.056C68.0236 244.662 68.4008 242.905 69.1539 241.787C70.15 240.281 71.583 239.527 73.4536 239.527C74.2796 239.527 75.0267 239.697 75.6948 240.037C76.3629 240.377 76.9273 240.863 77.3889 241.495C77.6683 241.872 77.9359 242.468 78.191 243.282L85.4793 241.659C84.544 238.84 83.111 236.751 81.1796 235.39C79.2603 234.028 76.6181 233.348 73.2533 233.348ZM187.297 233.348C182.996 233.348 179.668 234.538 177.312 236.92C174.967 239.29 173.795 242.687 173.795 247.11C173.795 250.428 174.463 253.15 175.799 255.276C177.136 257.403 178.72 258.891 180.554 259.742C182.401 260.581 184.776 261 187.679 261C190.072 261 192.04 260.654 193.582 259.961C195.137 259.268 196.437 258.241 197.482 256.88C198.526 255.519 199.292 253.824 199.777 251.795L192.544 249.608C192.179 251.297 191.59 252.584 190.777 253.471C189.975 254.358 188.785 254.802 187.206 254.802C185.578 254.802 184.315 254.255 183.416 253.161C182.517 252.056 182.067 250.021 182.067 247.056C182.067 244.662 182.444 242.905 183.197 241.787C184.193 240.281 185.626 239.527 187.497 239.527C188.323 239.527 189.07 239.697 189.738 240.037C190.406 240.377 190.971 240.863 191.432 241.495C191.711 241.872 191.979 242.468 192.234 243.282L199.522 241.659C198.587 238.84 197.154 236.751 195.223 235.39C193.304 234.028 190.661 233.348 187.297 233.348ZM89.7429 233.803V260.526H110.879V253.945H97.9974V233.803H89.7429ZM114.961 233.803V260.526H123.233V233.803H114.961ZM129.209 233.803V260.526H136.971V245.852L146.974 260.526H154.754V233.803H146.974V248.586L136.916 233.803H129.209ZM160.566 233.803V260.526H168.839V233.803H160.566ZM211.129 233.803L201.09 260.526H209.526L210.819 256.115H220.221L221.533 260.526H230.169L220.13 233.803H211.129ZM215.538 240.73L218.491 250.337H212.605L215.538 240.73Z" fill="#1C274C"/>
</svg>
