<svg width="950" height="950" viewBox="0 0 950 950" fill="none" xmlns="http://www.w3.org/2000/svg">
<path d="M474.104 5.52586e-09C468.346 -9.66989e-05 462.645 1.26908 457.326 3.73507C452.006 6.20106 447.173 9.81558 443.102 14.3722C439.031 18.9289 435.801 24.3384 433.598 30.292C431.395 36.2455 430.261 42.6265 430.261 49.0706C430.266 60.3673 433.754 71.3159 440.136 80.0681C446.517 88.8203 455.402 94.8402 465.289 97.1113L466.034 97.4794V148.92L434.37 113.795C416.955 94.4749 400.26 76.8923 397.272 74.7218C387.044 67.2923 378.745 64.9996 362.353 65.0718C346.265 65.1426 341.643 66.4307 320.884 76.6261C315.336 79.3511 297.935 86.429 282.215 92.3572C202.169 122.545 127.479 143.533 67.0133 152.827C51.1212 155.27 17.5529 158.426 7.23278 158.449C1.61114 158.461 -0.30165 158.881 0.0377611 160.032C0.34016 161.059 4.14619 161.879 11.0581 162.403C61.2578 166.208 142.544 158.091 194.228 144.112C202.858 141.778 210.088 140.054 210.295 140.283C210.845 140.891 184.528 150.323 174.052 153.273C160.207 157.171 137.552 161.822 120.253 164.32C100.549 167.166 35.4988 167.58 16.1685 164.982C9.47222 164.082 3.76361 163.604 3.48293 163.919C2.65215 164.848 16.7505 175.467 21.6168 177.577C26.7197 179.789 26.7027 179.786 30.8632 179.812C33.362 179.827 33.629 180.085 32.266 181.183C30.8679 182.308 30.9293 182.411 32.6371 181.79C33.7667 181.38 38.5596 182.137 43.2863 183.472C56.8975 187.315 68.0156 188.574 88.3962 188.574C116.241 188.574 142.193 184.134 180.218 172.87C209.085 162.773 216.222 159.049 229.177 162.666C229.376 162.888 221.593 167.365 211.882 172.616C184.322 187.52 155.114 198.775 123.086 206.827C108.685 210.448 77.3249 216.165 71.8402 216.17C67.1082 216.174 66.3702 217.912 69.2035 222.366C74.0266 229.947 77.9935 231.481 92.5835 231.411C133.07 231.219 203.781 211.75 249.99 188.071C254.768 185.622 258.675 183.856 258.675 184.147C258.675 185.066 239.526 196.47 227.853 202.502C191.26 221.41 141.849 233.374 98.5115 233.822C85.8793 233.953 84.2211 235.193 92.3331 238.438C101.63 242.157 106.013 242.794 121.623 242.679C144.725 242.509 172.091 237.932 200.533 229.487C226.581 221.752 241.992 216.44 266.706 206.672C280.232 201.464 314.925 182.86 308.642 197.191C307.371 199.493 296.811 205.045 275.488 214.613C229.472 235.263 175.81 251.735 145.154 254.618C140.356 255.07 136.176 255.896 135.865 256.458C135.555 257.02 137.967 259.026 141.226 260.915C146.511 263.978 148.789 264.439 162.283 265.173C179.956 266.134 185.745 265.24 215.735 256.934C252.223 246.829 297.898 229.832 322.26 217.294C327.539 214.577 332.058 212.58 332.303 212.854C332.975 213.606 314.712 223.869 300.147 230.925C271.818 244.648 238.889 255.712 202.075 263.876C189.745 266.61 178.395 269.205 176.854 269.643L174.052 270.44L177.415 271.514C190.03 275.545 217.468 273.068 249.435 265.011C257.606 262.951 265.465 260.769 266.899 260.159C268.333 259.549 272.996 258.11 277.262 256.961C281.527 255.813 289.302 253.285 294.542 251.346C299.782 249.407 308.463 246.252 313.831 244.337C318.941 241.913 323.642 240.186 326.103 239.241L329.425 239.106L326.275 241.429C324.543 242.708 322.367 243.764 321.443 243.773C320.518 243.779 318.248 244.911 316.398 246.281C312.504 249.168 313.402 249.523 318.471 247.102C320.414 246.174 326.291 243.551 331.531 241.271C336.771 238.991 346.976 234.067 354.208 230.327C362.572 226.003 368.485 223.675 370.459 223.929C373 224.256 370.716 225.948 357.87 233.265C316.713 256.708 274.9 273.207 242.038 278.973C237.228 279.817 234.221 280.883 234.804 281.535C238.747 285.949 265.907 285.938 284.511 281.515C290.338 280.13 300.209 278.169 306.449 277.156C319.349 275.062 330.493 271.075 346.663 262.769C358.018 256.936 382.249 242.322 385.332 239.447C388.725 236.284 390.267 236.073 387.012 239.218C374.895 250.926 349.634 266.764 328.728 275.765C305.57 285.735 306.303 285.301 314.157 284.443C334.338 282.237 364.179 268.926 386.397 252.221C391.051 248.721 398.115 243.412 402.093 240.423C411.433 233.405 414.241 233.391 421.141 240.335C424.064 243.277 430.845 248.5 436.213 251.94C450.589 261.156 457.124 265.431 461.828 268.698L466.034 271.619V539.327C466.034 794.722 466.124 807.036 468.019 807.036C469.111 807.036 472.897 804.357 476.43 801.08L482.852 795.12L482.732 268.529L485.133 265.673C486.453 264.101 495.08 257.823 504.308 251.724C513.536 245.625 522.948 239.375 525.223 237.833C530.841 234.028 535.567 234.167 538.974 238.235C559.415 257.31 590.425 273.144 616.228 280.695C622.7 282.538 631.524 284.331 635.84 284.676L643.686 285.304L628.554 279.017C610.007 271.31 589.506 259.94 576.285 250.033C567.005 243.077 555.581 233.116 562.426 237.948C591.81 258.689 631.906 278.402 647.05 279.553C650.132 279.788 657.022 280.844 662.363 281.9C672.636 283.931 702.432 284.801 709.549 283.278C715.301 282.047 715.787 280.436 710.689 279.496C673.014 272.548 636.625 258.378 591.559 233.103C583.499 228.583 577.174 224.393 577.504 223.794C578.489 222.01 584.693 224.286 597.171 231.006C619.935 243.268 649.951 255.621 675.073 263.069C699.785 270.397 710.984 272.17 715.003 269.39C715.476 269.063 721.309 269.719 727.969 270.849C736.796 272.345 743.964 272.706 754.408 272.176C775.071 271.127 775.43 269.852 756.2 265.835C722.627 258.821 689.183 248.417 662.182 236.591C647.912 230.34 616.789 213.867 617.579 212.982C617.856 212.673 623.592 215.175 630.325 218.54C656.231 231.489 694.167 245.57 732.235 256.367C765.859 265.904 770.537 266.586 786.878 264.336C803.423 262.057 809.68 260.574 812.677 258.224C814.904 256.479 814.899 256.445 812.255 255.823C810.78 255.476 806.545 254.853 802.846 254.436C781.318 252.007 747.72 243.063 714.862 231.016C683.869 219.654 643.559 201.184 641.46 197.383C639.906 194.568 647.276 196.372 659.745 201.857C708.955 223.66 765.289 239.786 816.259 242.078C835.151 242.896 842.357 241.812 852.394 236.645L856.647 234.454L851.603 234.106C848.829 233.914 839.024 233.155 829.813 232.421C783.576 228.735 740.232 214.68 701.129 190.694C686.291 181.592 688.189 181.628 705.893 190.785C738.25 207.523 783.283 221.479 828.362 228.741C849.338 232.119 857.847 232.006 865.927 228.234C869.453 226.588 873.928 224.862 875.867 224.398C879.833 223.451 883.589 219.529 882.471 217.504C882.066 216.77 880.124 216.172 878.157 216.17C872.672 216.165 841.315 210.448 826.914 206.827C794.886 198.775 765.675 187.52 738.115 172.616C728.404 167.365 720.672 162.835 720.928 162.548C721.185 162.261 727.614 164.28 735.219 167.035C751.094 172.242 762.231 175.115 778.748 177.762C781.522 178.195 785.306 179.09 787.156 179.751C791.278 181.224 813.827 185.472 827.505 187.351C841.571 189.284 871.295 188.937 884.67 186.683C898.42 184.366 923.238 176.776 930.064 172.802C932.838 171.187 936.429 169.566 938.046 169.199C939.663 168.833 942.186 167.358 943.651 165.921L946.315 163.307L941.832 163.959C912.364 168.245 854.683 168.068 825.264 163.601C808.43 161.046 787.169 156.548 773.996 152.756C764.716 150.084 739.222 140.813 739.702 140.283C739.909 140.054 747.142 141.778 755.772 144.112C787.7 152.748 833.197 159.647 875.14 162.213C909.992 164.346 949.026 163.207 949.962 160.032C950.301 158.881 948.386 158.461 942.764 158.449C932.444 158.426 898.879 155.27 882.987 152.827C830.966 144.831 770.591 128.798 700.849 104.465C671.807 94.3326 635.473 80.1055 625.595 74.9987C612.189 68.0679 603.221 65.4073 590.935 64.7105C573.73 63.7347 560.738 67.7784 549.316 77.6661C545.738 80.7632 529.834 97.7759 513.974 115.473C498.114 133.169 484.911 147.394 484.633 147.083C484.355 146.772 483.568 135.32 482.883 121.631C482.153 107.033 481.989 100.419 482.395 97.2227C492.395 95.0668 501.412 89.0819 507.899 80.2953C514.386 71.5087 517.938 60.4687 517.944 49.0706C517.944 36.0567 513.326 23.5758 505.104 14.3734C496.883 5.1709 485.731 0.000691935 474.104 5.52586e-09ZM411.11 290.426V295.325C411.11 298.019 411.519 300.224 412.018 300.224C414.313 300.224 420.687 309.159 424.592 317.853C429.764 329.365 431.678 337.246 434.324 357.929C436.174 372.386 436.331 386.974 436.331 544.848C436.331 701.211 436.157 717.721 434.333 734.904C431.005 766.268 425.461 784.809 415.708 797.193C412.438 801.345 411.11 804.155 411.11 806.918C411.11 809.054 411.481 810.801 411.931 810.801C412.381 810.801 415.721 808.748 419.352 806.239C424.53 802.662 427.801 801.416 434.505 800.458C443.203 799.217 450.934 796.403 452.356 793.962C452.788 793.22 453.396 681.001 453.704 544.591L454.265 296.574L450.341 295.906C446.088 295.18 423.586 291.992 415.874 291.023L411.11 290.426ZM536.569 290.76C536.18 290.78 535.74 290.826 535.245 290.902C520.923 293.087 507.173 295.148 502.181 295.859L496.295 296.696V804.527H499.098C500.639 804.527 501.9 804.08 501.9 803.528C501.9 800.301 510.671 799.51 546.534 799.51C575.464 799.51 586.015 799.955 594.057 801.509C612.042 804.982 615.337 802.226 616.674 782.577C617.565 769.467 618.247 765.182 620.771 756.858C623.65 747.36 626.68 731.76 625.83 730.808C623.832 728.572 621.491 729.829 619.775 734.06C614.673 746.635 603.194 759.966 592.687 765.519C586.606 768.733 586.122 768.781 556.821 769.168C540.485 769.385 525.481 769.221 523.479 768.801C516.73 767.386 515.398 760.525 512.887 714.206C510.445 669.136 510.94 372.536 513.5 347.266C516.371 318.922 523.246 302.911 533.528 300.609C535.627 300.139 537.196 298.766 537.854 296.828C539.464 292.088 539.29 290.643 536.569 290.76ZM368.827 323.674L364.471 324.65C362.075 325.186 302.11 325.977 231.217 326.409L102.319 327.196L101.643 336.241L108.147 337.092C118.718 338.473 122.55 340.111 127.304 345.273C131.721 350.072 134.036 356.235 135.826 367.967C137.114 376.408 138.639 420.439 139.392 470.835C139.809 498.779 140.35 522.029 140.593 522.502C141.041 523.377 139.277 597.557 138.182 623.881C136.941 653.702 135.067 678.109 132.993 691.438C130.846 705.244 127.037 708.282 104.002 714.554L97.8357 716.232L97.157 727.925L102.539 726.074C105.5 725.056 112.46 723.384 118.006 722.36C131.601 719.851 195.221 717.521 224.492 718.46C237.438 718.876 273.352 719.299 304.304 719.399C368.099 719.605 364.077 720.239 369.087 709.175C371.757 703.277 379.102 678.852 381.911 666.533C382.619 663.428 384.122 658.067 385.253 654.618C387.085 649.032 387.849 646.202 390.412 635.486C391.036 632.877 390.719 632.664 386.228 632.664H381.371L377.467 643.576C372.5 657.462 362.378 674.71 354.893 682.038C344.541 692.173 329.875 698.931 309.116 703.131C292.906 706.411 239.176 707.836 219.159 705.518C207.006 704.111 188.252 699.932 184.629 697.823C180.065 695.168 177.858 660.723 177.611 588.293L177.415 530.697L180.58 528.05C183.693 525.446 184.586 525.406 235.5 525.42C281.113 525.433 288.39 525.702 296.786 527.699C307.774 530.312 309.676 531.497 318.148 540.999C323.27 546.742 324.725 549.372 326.318 555.767C327.759 561.552 330.254 579.219 330.402 584.68C330.407 584.853 331.141 584.995 332.034 584.995C332.928 584.995 335.049 582.955 336.747 580.463L339.833 575.935L340.092 532.48C340.235 508.58 340.504 484.789 340.693 479.614L341.037 470.207L332.092 469.498L329.624 478.651C324.44 497.88 319.621 506.332 312.676 508.381C302.336 511.432 281.276 512.563 232.158 512.707C203.702 512.79 180.081 512.482 179.666 512.021C178.56 510.795 178.383 397.279 179.449 372.545C179.95 360.919 180.81 350.08 181.361 348.457C182.962 343.744 187.831 341.892 202.711 340.34C218.665 338.676 293.977 338.104 304.072 339.57C314.414 341.073 324.955 343.767 329.289 346.013C335.372 349.164 338.41 351.259 338.27 352.209C338.199 352.686 339.385 354.17 340.904 355.507C345.677 359.71 348.356 367.698 348.265 377.458C348.218 382.242 347.826 388.979 347.393 392.429C346.398 400.345 346.884 403.092 349.284 403.092C352.896 403.092 358.007 392.024 360.003 379.882C361.024 373.673 362.31 366.9 362.86 364.83C363.41 362.76 364.21 356.267 364.637 350.402C365.064 344.537 365.811 338.893 366.296 337.858C366.781 336.823 367.55 333.209 368.003 329.826L368.827 323.674ZM716.197 324.241C713.758 324.267 711.285 324.328 708.758 324.427C687.596 325.257 674.857 327.628 660.324 333.442C635.806 343.25 615.002 364.006 604.969 388.665C595.36 412.28 594.673 447.151 603.385 469.198C606.945 478.208 614.54 490.018 621.479 497.337C627.394 503.576 643.27 515.996 645.33 515.996C646.019 515.996 647.695 517.156 649.053 518.572C650.411 519.988 652.408 520.888 653.491 520.571C654.573 520.254 655.199 520.464 654.881 521.04C654.299 522.095 657.766 523.821 659.542 523.36C660.068 523.223 663.952 524.898 668.17 527.08C672.389 529.263 676.579 531.048 677.483 531.048C678.439 531.048 678.79 531.653 678.325 532.496C677.832 533.389 678.018 533.606 678.807 533.06C679.512 532.573 681.733 532.994 683.743 533.999C685.753 535.004 689.669 536.685 692.443 537.733C701.014 540.973 708.381 544.309 716.249 548.511C720.402 550.729 724.387 552.135 725.106 551.638C725.921 551.074 726.115 551.279 725.616 552.181C725.142 553.04 725.527 553.63 726.563 553.63C727.524 553.63 728.31 554.196 728.31 554.886C728.31 555.576 729.234 556.139 730.364 556.139C731.494 556.139 732.771 556.533 733.2 557.013C733.629 557.493 734.838 558.026 735.888 558.198C736.938 558.371 737.973 559.108 738.19 559.836C738.406 560.563 739.328 561.156 740.238 561.156C741.215 561.156 741.562 561.758 741.083 562.625C740.537 563.612 740.881 563.829 742.135 563.29C743.161 562.85 744.003 562.939 744.003 563.486C744.003 564.032 747.512 567.161 751.801 570.442C768.217 582.995 779.083 600.414 782.793 620.12C785.272 633.287 784.409 658.93 781.097 670.531C778.255 680.487 771.711 690.31 764.523 695.412C757.62 700.312 742.873 706.123 730.916 708.658C703.967 714.371 665.512 705.925 629.788 686.444C607.909 674.514 600.533 664.07 591.505 632.228L587.646 618.617L583.35 619.262C580.987 619.617 578.796 620.197 578.481 620.549C578.167 620.901 579.166 626.17 580.705 632.258C586.437 654.946 591.073 682.563 592.141 700.406C593.427 721.881 593.771 724.017 595.837 723.403C596.88 723.094 599.344 720.103 601.315 716.755C605.664 709.37 608.728 708.327 617.971 711.076C652.996 721.494 709.174 725.79 734.63 720C774.856 710.85 804.095 685.106 814.586 649.6C816.014 644.77 817.613 639.838 818.14 638.64C818.667 637.442 819.1 634.726 819.1 632.606C819.1 630.486 819.508 629.033 820.008 629.378C821.813 630.627 821.507 608.258 819.588 598.753C816.102 581.483 810.901 570.245 799.614 555.599C784.287 535.708 767.278 524.93 712.058 500.123C699.113 494.307 682.227 486.089 674.536 481.859C662.05 474.993 659.519 473.016 650.893 463.407C637.238 448.194 631.936 434.525 631.9 414.431C631.888 407.861 631.553 405.547 630.798 406.854C627.711 412.202 630.979 388.935 634.94 377.374C645.432 346.75 665 335.13 706.453 334.911C716.852 334.859 727.918 335.521 732.793 336.491C743.56 338.634 755.21 342.628 755.21 344.179C755.21 344.842 755.914 345.385 756.773 345.385C757.632 345.385 758.653 346.311 759.042 347.444C759.43 348.578 760.029 349.192 760.375 348.805C760.721 348.418 761.843 348.876 762.87 349.825C763.897 350.774 768.625 354.956 773.377 359.117C787.884 371.819 795.065 385.04 798.568 405.497C799.581 411.418 800.583 416.499 800.791 416.787C801.464 417.72 806.711 414.038 806.152 413.026C805.855 412.488 806.123 411.69 806.752 411.257C808.332 410.164 808.141 400.973 806.23 386.156C804.257 370.854 805.114 342.285 807.651 338.767C808.26 337.922 809.1 334.908 809.518 332.068C810.203 327.421 810.025 326.829 807.76 326.166C806.16 325.697 802.769 326.779 798.456 329.134C790.141 333.674 786.751 333.749 767.971 329.809C748.61 325.747 733.273 324.067 716.197 324.241ZM238.324 849.35C224.334 849.35 213.506 853.684 205.84 862.353C198.212 870.978 194.397 883.343 194.397 899.444C194.397 911.519 196.572 921.427 200.919 929.167C205.266 936.908 210.422 942.325 216.389 945.422C222.396 948.473 230.125 950 239.57 950C247.356 950 253.756 948.74 258.775 946.218C263.834 943.697 268.062 939.959 271.461 935.005C274.859 930.051 277.349 923.882 278.93 916.495L255.396 908.533C254.211 914.682 252.294 919.367 249.646 922.596C247.038 925.825 243.166 927.442 238.029 927.442C232.733 927.442 228.62 925.45 225.696 921.469C222.772 917.444 221.31 910.037 221.31 899.245C221.31 890.531 222.537 884.139 224.987 880.069C228.228 874.585 232.89 871.841 238.976 871.841C241.663 871.841 244.094 872.46 246.267 873.698C248.441 874.936 250.277 876.706 251.779 879.006C252.688 880.377 253.559 882.545 254.389 885.509L278.1 879.604C275.057 869.342 270.395 861.736 264.112 856.782C257.868 851.828 249.271 849.35 238.324 849.35ZM609.355 849.35C595.365 849.35 584.537 853.684 576.87 862.353C569.243 870.978 565.428 883.343 565.428 899.444C565.428 911.519 567.603 921.427 571.95 929.167C576.297 936.908 581.453 942.325 587.42 945.422C593.427 948.473 601.156 950 610.601 950C618.386 950 624.787 948.74 629.806 946.218C634.864 943.697 639.093 939.959 642.491 935.005C645.89 930.051 648.38 923.882 649.961 916.495L626.427 908.533C625.241 914.682 623.325 919.367 620.677 922.596C618.069 925.825 614.197 927.442 609.059 927.442C603.764 927.442 599.654 925.45 596.73 921.469C593.805 917.444 592.34 910.037 592.34 899.245C592.34 890.531 593.568 884.139 596.018 880.069C599.258 874.585 603.921 871.841 610.007 871.841C612.694 871.841 615.125 872.46 617.298 873.698C619.472 874.936 621.308 876.706 622.81 879.006C623.719 880.377 624.59 882.545 625.419 885.509L649.131 879.604C646.088 869.342 641.426 861.736 635.142 856.782C628.898 851.828 620.302 849.35 609.355 849.35ZM291.972 851.008V948.275H360.736V924.322H318.827V851.008H291.972ZM374.016 851.008V948.275H400.929V851.008H374.016ZM420.372 851.008V948.275H445.625V894.865L478.17 948.275H503.481V851.008H478.17V904.816L445.447 851.008H420.372ZM522.39 851.008V948.275H549.306V851.008H522.39ZM686.892 851.008L654.23 948.275H681.676L685.885 932.219H716.472L720.741 948.275H748.839L716.176 851.008H686.892ZM701.237 876.22L710.843 911.187H691.695L701.237 876.22Z" fill="white"/>
</svg>
