<svg width="626" height="559" viewBox="0 0 626 559" fill="none" xmlns="http://www.w3.org/2000/svg">
<path d="M312.409 3.25153e-09C308.615 -5.68997e-05 304.859 0.746752 301.354 2.19779C297.848 3.64884 294.664 5.77569 291.981 8.45692C289.298 11.1381 287.17 14.3212 285.718 17.8244C284.266 21.3276 283.519 25.0823 283.519 28.8742C283.523 35.5214 285.821 41.9638 290.026 47.1138C294.231 52.2638 300.086 55.8059 306.601 57.1423L307.092 57.3589V72.4924V87.6278L286.227 66.9591C274.751 55.591 263.751 45.245 261.782 43.9679C255.042 39.5962 249.573 38.2472 238.772 38.2896C228.17 38.3312 225.125 39.0892 211.446 45.0884C207.79 46.6918 196.324 50.8566 185.965 54.3449C133.219 72.1078 84.0019 84.4576 44.1583 89.9265C33.6862 91.3639 11.5664 93.2212 4.76602 93.2345C1.06165 93.2418 -0.198772 93.4891 0.0248825 94.1664C0.224148 94.7704 2.73212 95.2528 7.28668 95.5611C40.3657 97.8003 93.9287 93.0243 127.986 84.7986C133.673 83.425 138.437 82.4108 138.574 82.5456C138.936 82.903 121.594 88.4532 114.691 90.1888C105.568 92.4824 90.6394 95.2194 79.2407 96.6896C66.2566 98.3642 23.3918 98.6076 10.6542 97.079C6.24169 96.5495 2.48002 96.2683 2.29507 96.4532C1.74762 97.0003 11.0377 103.249 14.2443 104.49C17.6069 105.791 17.5957 105.79 20.3372 105.805C21.9838 105.814 22.1597 105.966 21.2616 106.612C20.3403 107.274 20.3808 107.334 21.5061 106.969C22.2505 106.728 25.4087 107.173 28.5234 107.959C37.4925 110.22 44.8187 110.961 58.2485 110.961C76.5968 110.961 93.6978 108.348 118.754 101.72C137.776 95.7789 142.479 93.5876 151.016 95.7161C151.147 95.8468 146.018 98.4812 139.619 101.571C121.459 110.341 102.212 116.964 81.1073 121.701C71.6179 123.832 50.953 127.196 47.3389 127.199C44.2208 127.201 43.7344 128.224 45.6015 130.845C48.7797 135.306 51.3936 136.208 61.0077 136.167C87.6859 136.054 134.281 124.598 164.73 110.665C167.879 109.224 170.453 108.185 170.453 108.356C170.453 108.897 157.835 115.607 150.143 119.156C126.03 130.282 93.4709 137.322 64.9139 137.586C56.59 137.663 55.4973 138.392 60.8427 140.302C66.9691 142.49 69.8571 142.865 80.1432 142.797C95.3659 142.697 113.399 140.004 132.141 135.035C149.305 130.484 159.46 127.358 175.745 121.61C184.658 118.546 207.519 107.599 203.379 116.031C202.541 117.386 195.583 120.653 181.532 126.283C151.21 138.434 115.85 148.126 95.6488 149.823C92.487 150.088 89.7327 150.575 89.5281 150.905C89.3234 151.236 90.9129 152.417 93.0606 153.528C96.5429 155.33 98.0443 155.602 106.936 156.033C118.582 156.599 122.396 156.073 142.158 151.186C166.202 145.239 196.299 135.238 212.352 127.86C215.831 126.262 218.809 125.086 218.97 125.248C219.413 125.69 207.379 131.729 197.781 135.881C179.114 143.956 157.415 150.466 133.157 155.27C125.032 156.879 117.553 158.406 116.538 158.664L114.691 159.133L116.907 159.765C125.22 162.136 143.3 160.679 164.365 155.938C169.749 154.726 174.928 153.442 175.872 153.083C176.817 152.724 179.89 151.877 182.701 151.201C185.512 150.525 190.635 149.038 194.088 147.897C197.54 146.756 203.261 144.9 206.798 143.773C210.166 142.347 213.263 141.33 214.885 140.775L217.074 140.695L214.998 142.062C213.857 142.814 212.423 143.436 211.814 143.441C211.204 143.445 209.709 144.111 208.49 144.917C205.923 146.616 206.515 146.825 209.856 145.4C211.136 144.854 215.008 143.31 218.461 141.969C221.914 140.627 228.639 137.73 233.404 135.53C238.916 132.985 242.812 131.615 244.113 131.765C245.788 131.957 244.283 132.952 235.818 137.258C208.697 151.053 181.145 160.761 159.49 164.153C156.321 164.65 154.339 165.277 154.723 165.661C157.322 168.258 175.219 168.252 187.478 165.649C191.317 164.835 197.822 163.681 201.934 163.084C210.434 161.852 217.778 159.506 228.433 154.619C235.915 151.186 251.882 142.587 253.913 140.896C256.15 139.034 257.166 138.91 255.021 140.761C247.036 147.65 230.391 156.97 216.615 162.266C201.355 168.133 201.838 167.877 207.013 167.372C220.311 166.074 239.975 158.242 254.615 148.412C257.682 146.353 262.337 143.229 264.958 141.47C271.113 137.34 272.963 137.332 277.51 141.418C279.436 143.149 283.904 146.222 287.441 148.247C296.914 153.67 301.221 156.185 304.321 158.108L307.092 159.826V317.352C307.092 467.631 307.151 474.877 308.4 474.877C309.12 474.877 311.614 473.301 313.942 471.372L318.174 467.865L318.135 312.937L318.095 158.008L319.677 156.327C320.547 155.402 326.232 151.709 332.313 148.12C338.393 144.531 344.596 140.853 346.095 139.946C349.796 137.707 352.91 137.789 355.155 140.183C368.625 151.407 389.059 160.723 406.062 165.167C410.327 166.251 416.141 167.306 418.985 167.509L424.155 167.879L414.184 164.179C401.962 159.645 388.453 152.954 379.742 147.125C373.626 143.032 366.099 137.171 370.609 140.014C389.971 152.218 416.393 163.818 426.372 164.495C428.403 164.633 432.943 165.255 436.463 165.876C443.231 167.071 462.866 167.583 467.555 166.687C471.346 165.962 471.666 165.015 468.307 164.461C443.481 160.373 419.502 152.035 389.807 137.163C384.495 134.503 380.327 132.037 380.545 131.685C381.194 130.636 385.282 131.975 393.504 135.929C408.505 143.144 428.283 150.413 444.838 154.796C461.122 159.107 468.501 160.151 471.149 158.515C471.461 158.323 475.305 158.709 479.693 159.373C485.51 160.254 490.233 160.466 497.115 160.154C510.731 159.537 510.968 158.787 498.296 156.423C476.173 152.296 454.136 146.174 436.343 139.215C426.94 135.537 406.431 125.844 406.952 125.323C407.135 125.141 410.915 126.613 415.351 128.594C432.422 136.213 457.42 144.498 482.504 150.852C504.661 156.463 507.743 156.865 518.511 155.541C529.414 154.2 533.536 153.327 535.512 151.944C536.979 150.917 536.976 150.897 535.234 150.532C534.261 150.328 531.471 149.961 529.033 149.715C514.848 148.286 492.708 143.023 471.056 135.935C450.634 129.249 424.071 118.381 422.689 116.144C421.664 114.488 426.521 115.549 434.737 118.777C467.164 131.606 504.285 141.095 537.871 142.444C550.32 142.925 555.069 142.287 561.682 139.247L564.485 137.957L561.162 137.753C559.334 137.64 552.872 137.193 546.803 136.761C516.336 134.592 487.774 126.322 462.007 112.208C452.229 106.853 453.481 106.874 465.146 112.262C486.468 122.111 516.142 130.323 545.847 134.596C559.669 136.584 565.276 136.517 570.6 134.298C572.924 133.329 575.872 132.313 577.15 132.041C579.764 131.483 582.239 129.175 581.502 127.984C581.235 127.552 579.955 127.2 578.659 127.199C575.045 127.196 554.382 123.832 544.893 121.701C523.788 116.964 504.539 110.341 486.379 101.571C479.98 98.4812 474.885 95.8154 475.054 95.6465C475.223 95.4776 479.459 96.6655 484.47 98.287C494.931 101.351 502.27 103.041 513.154 104.599C514.982 104.854 517.476 105.38 518.694 105.769C521.41 106.636 536.269 109.136 545.282 110.242C554.551 111.379 574.138 111.174 582.951 109.848C592.011 108.485 608.366 104.019 612.863 101.68C614.691 100.73 617.057 99.7764 618.123 99.5605C619.189 99.3447 620.851 98.4768 621.816 97.6313L623.572 96.0936L620.618 96.477C601.2 98.9989 563.191 98.8947 543.805 96.2664C532.713 94.7626 518.703 92.1159 510.023 89.8848C503.908 88.3129 487.109 82.8574 487.424 82.5455C487.561 82.4108 492.327 83.425 498.014 84.7986C519.053 89.8799 549.033 93.9397 576.671 95.4498C599.637 96.7046 625.358 96.0346 625.975 94.1663C626.199 93.4891 624.936 93.2418 621.232 93.2345C614.432 93.2211 592.314 91.3639 581.842 89.9265C547.563 85.2214 507.779 75.7877 461.822 61.4696C442.685 55.5073 418.743 47.1358 412.234 44.1308C403.4 40.0526 397.491 38.487 389.395 38.077C378.058 37.5028 369.497 39.8822 361.97 45.7003C359.613 47.5228 349.133 57.5334 338.682 67.9465C328.231 78.3597 319.531 86.7299 319.348 86.547C319.164 86.364 318.646 79.625 318.195 71.5705C317.713 62.9807 317.606 59.0888 317.873 57.2079C324.462 55.9393 330.404 52.4176 334.679 47.2474C338.953 42.0772 341.294 35.581 341.298 28.8741C341.298 21.2165 338.255 13.8725 332.837 8.45759C327.42 3.04267 320.071 0.000407149 312.409 3.25153e-09ZM270.9 170.893V173.775C270.9 175.361 271.169 176.658 271.498 176.658C273.01 176.658 277.21 181.916 279.784 187.031C283.192 193.805 284.453 198.443 286.197 210.613C287.416 219.12 287.519 227.704 287.519 320.6C287.519 412.607 287.404 422.322 286.203 432.433C284.01 450.888 280.356 461.798 273.93 469.085C271.775 471.528 270.9 473.182 270.9 474.807C270.9 476.065 271.144 477.092 271.441 477.092C271.737 477.092 273.938 475.884 276.331 474.408C279.743 472.303 281.898 471.57 286.316 471.007C292.048 470.276 297.142 468.62 298.079 467.184C298.364 466.747 298.764 400.715 298.967 320.449L299.337 174.511L296.751 174.117C293.949 173.69 279.121 171.814 274.039 171.244L270.9 170.893ZM353.571 171.089C353.315 171.101 353.024 171.128 352.698 171.173C343.261 172.458 334.2 173.671 330.911 174.089L327.032 174.582V323.991V473.401H328.879C329.895 473.401 330.726 473.137 330.726 472.813C330.726 470.914 336.505 470.448 360.137 470.448C379.2 470.448 386.153 470.711 391.452 471.624C403.303 473.669 405.475 472.047 406.356 460.484C406.943 452.771 407.392 450.249 409.055 445.351C410.953 439.762 412.949 430.583 412.389 430.023C411.073 428.707 409.53 429.447 408.399 431.936C405.037 439.335 397.473 447.18 390.55 450.447C386.542 452.338 386.223 452.367 366.916 452.595C356.151 452.722 346.265 452.626 344.945 452.378C340.498 451.546 339.62 447.509 337.966 420.254C336.356 393.734 336.682 219.208 338.369 204.338C340.262 187.66 344.791 178.239 351.567 176.885C352.95 176.608 353.984 175.8 354.418 174.66C355.479 171.871 355.364 171.02 353.571 171.089ZM243.038 190.457L240.167 191.031C238.588 191.346 199.075 191.812 152.36 192.066L67.4226 192.529L67.2 195.191L66.9773 197.851L71.2632 198.352C78.2289 199.165 80.7541 200.128 83.8864 203.166C86.7974 205.99 88.3227 209.616 89.5022 216.519C90.351 221.486 91.356 247.395 91.8519 277.049C92.127 293.492 92.4833 307.173 92.6431 307.451C92.9385 307.966 91.7765 351.615 91.0548 367.105C90.2372 384.652 89.0019 399.014 87.6356 406.857C86.2205 414.98 83.7104 416.768 68.5319 420.458L64.4686 421.446L64.2459 424.885L64.0213 428.326L67.5677 427.237C69.5186 426.638 74.1054 425.654 77.7597 425.052C86.7183 423.575 128.64 422.204 147.929 422.757C156.459 423.002 180.125 423.251 200.52 423.31C242.558 423.431 239.908 423.804 243.209 417.293C244.968 413.823 249.808 399.451 251.659 392.202C252.126 390.375 253.116 387.221 253.862 385.191C255.068 381.904 255.572 380.239 257.261 373.934C257.672 372.398 257.463 372.273 254.504 372.273H251.303L248.731 378.694C245.458 386.865 238.788 397.013 233.856 401.326C227.034 407.289 217.37 411.266 203.691 413.737C193.01 415.667 157.605 416.506 144.414 415.142C136.406 414.314 124.048 411.855 121.66 410.614C118.653 409.051 117.199 388.783 117.037 346.164L116.907 312.273L118.993 310.716C121.044 309.184 121.632 309.16 155.182 309.168C185.239 309.176 190.034 309.334 195.567 310.509C202.807 312.047 204.06 312.744 209.643 318.335C213.018 321.715 213.977 323.262 215.026 327.025C215.976 330.429 217.62 340.825 217.718 344.038C217.721 344.14 218.205 344.223 218.793 344.223C219.382 344.223 220.78 343.023 221.898 341.557L223.932 338.893L224.103 313.322C224.197 299.259 224.374 285.26 224.499 282.215L224.725 276.68L221.779 276.471L218.831 276.262L217.205 281.649C213.789 292.963 210.613 297.937 206.037 299.142C199.224 300.938 185.346 301.603 152.98 301.687C134.229 301.736 118.664 301.555 118.39 301.284C117.661 300.563 117.545 233.767 118.247 219.213C118.577 212.373 119.144 205.995 119.508 205.04C120.563 202.266 123.771 201.177 133.576 200.263C144.089 199.284 193.715 198.947 200.367 199.81C207.182 200.694 214.128 202.28 216.984 203.601C220.992 205.456 222.995 206.688 222.902 207.247C222.856 207.528 223.637 208.401 224.638 209.188C227.783 211.661 229.549 216.361 229.488 222.104C229.457 224.919 229.199 228.884 228.914 230.914C228.258 235.572 228.579 237.188 230.16 237.188C232.54 237.188 235.908 230.675 237.223 223.531C237.896 219.877 238.743 215.892 239.106 214.674C239.468 213.456 239.995 209.635 240.276 206.184C240.558 202.733 241.05 199.412 241.37 198.803C241.689 198.194 242.196 196.067 242.495 194.076L243.038 190.457ZM471.936 190.79C470.329 190.806 468.699 190.842 467.034 190.9C453.09 191.388 444.695 192.783 435.118 196.204C418.963 201.975 405.254 214.189 398.643 228.699C392.311 242.594 391.858 263.113 397.599 276.086C399.945 281.387 404.95 288.337 409.522 292.644C413.42 296.315 423.881 303.623 425.239 303.623C425.693 303.623 426.797 304.305 427.692 305.139C428.587 305.972 429.902 306.501 430.616 306.315C431.329 306.128 431.742 306.252 431.532 306.591C431.148 307.212 433.433 308.227 434.604 307.956C434.95 307.875 437.509 308.861 440.289 310.145C443.069 311.43 445.83 312.48 446.426 312.48C447.056 312.48 447.287 312.836 446.98 313.332C446.656 313.857 446.778 313.985 447.298 313.664C447.763 313.377 449.226 313.625 450.551 314.216C451.875 314.807 454.456 315.796 456.284 316.414C461.931 318.32 466.786 320.283 471.97 322.755C474.707 324.061 477.333 324.888 477.807 324.595C478.344 324.263 478.471 324.384 478.143 324.915C477.83 325.42 478.084 325.767 478.767 325.767C479.4 325.767 479.918 326.1 479.918 326.507C479.918 326.913 480.527 327.244 481.271 327.244C482.016 327.244 482.858 327.476 483.14 327.758C483.423 328.041 484.22 328.354 484.911 328.456C485.603 328.557 486.285 328.991 486.428 329.419C486.571 329.847 487.178 330.196 487.778 330.196C488.422 330.196 488.65 330.55 488.334 331.06C487.975 331.641 488.202 331.769 489.028 331.452C489.704 331.193 490.259 331.245 490.259 331.567C490.259 331.888 492.571 333.73 495.398 335.66C506.215 343.047 513.375 353.296 515.819 364.892C517.453 372.639 516.884 387.728 514.702 394.555C512.829 400.413 508.517 406.193 503.78 409.195C499.232 412.078 489.514 415.498 481.635 416.989C463.877 420.351 438.538 415.381 414.997 403.918C400.58 396.898 395.719 390.753 389.77 372.016L387.228 364.007L384.397 364.387C382.84 364.596 381.396 364.937 381.189 365.144C380.981 365.351 381.64 368.452 382.654 372.034C386.431 385.384 389.486 401.635 390.19 412.134C391.037 424.77 391.264 426.027 392.625 425.666C393.312 425.484 394.936 423.723 396.235 421.754C399.101 417.408 401.12 416.794 407.21 418.412C430.29 424.542 467.308 427.07 484.082 423.663C510.589 418.279 529.856 403.131 536.77 382.238C537.71 379.396 538.764 376.494 539.111 375.789C539.459 375.084 539.744 373.486 539.744 372.239C539.744 370.991 540.013 370.136 540.342 370.339C541.532 371.074 541.33 357.912 540.066 352.319C537.769 342.157 534.341 335.544 526.904 326.926C516.804 315.222 505.596 308.88 469.209 294.283C460.678 290.861 449.552 286.025 444.484 283.536C436.256 279.496 434.588 278.333 428.904 272.678C419.906 263.727 416.413 255.684 416.389 243.86C416.381 239.994 416.16 238.632 415.663 239.401C413.628 242.548 415.782 228.858 418.392 222.055C425.306 204.035 438.2 197.197 465.515 197.069C472.368 197.038 479.66 197.428 482.872 197.998C489.967 199.26 497.644 201.61 497.644 202.522C497.644 202.912 498.108 203.232 498.674 203.232C499.24 203.232 499.912 203.777 500.169 204.444C500.425 205.111 500.819 205.472 501.047 205.244C501.275 205.017 502.015 205.286 502.691 205.844C503.368 206.403 506.484 208.864 509.615 211.312C519.174 218.786 523.906 226.565 526.214 238.603C526.882 242.087 527.542 245.077 527.679 245.247C528.123 245.795 531.58 243.629 531.212 243.033C531.016 242.716 531.192 242.247 531.607 241.992C532.648 241.349 532.522 235.941 531.263 227.222C529.963 218.218 530.528 201.408 532.2 199.338C532.601 198.84 533.154 197.067 533.43 195.396C533.881 192.662 533.764 192.313 532.271 191.923C531.217 191.647 528.982 192.283 526.141 193.669C520.661 196.341 518.427 196.385 506.053 194.067C493.295 191.676 483.188 190.688 471.936 190.79ZM157.043 499.776C147.824 499.776 140.689 502.325 135.637 507.427C130.611 512.502 128.097 519.778 128.097 529.252C128.097 536.357 129.531 542.187 132.395 546.741C135.26 551.296 138.657 554.484 142.589 556.306C146.547 558.102 151.64 559 157.864 559C162.994 559 167.212 558.258 170.519 556.775C173.852 555.291 176.639 553.092 178.878 550.177C181.118 547.262 182.759 543.631 183.8 539.285L168.293 534.6C167.511 538.218 166.248 540.975 164.504 542.875C162.785 544.775 160.234 545.726 156.848 545.726C153.359 545.726 150.649 544.554 148.722 542.212C146.795 539.843 145.831 535.485 145.831 529.134C145.831 524.007 146.64 520.246 148.255 517.851C150.39 514.624 153.462 513.01 157.473 513.01C159.243 513.01 160.845 513.374 162.277 514.102C163.71 514.831 164.92 515.872 165.909 517.226C166.508 518.032 167.082 519.308 167.629 521.052L183.254 517.577C181.248 511.539 178.176 507.063 174.036 504.148C169.921 501.233 164.257 499.776 157.043 499.776ZM401.533 499.776C392.314 499.776 385.179 502.325 380.127 507.427C375.101 512.502 372.587 519.778 372.587 529.252C372.587 536.357 374.02 542.187 376.885 546.741C379.749 551.296 383.147 554.484 387.079 556.306C391.037 558.102 396.13 559 402.354 559C407.484 559 411.702 558.258 415.009 556.775C418.342 555.291 421.128 553.092 423.368 550.177C425.608 547.262 427.248 543.631 428.29 539.285L412.782 534.6C412.001 538.218 410.738 540.975 408.993 542.875C407.275 544.775 404.723 545.726 401.338 545.726C397.849 545.726 395.141 544.554 393.214 542.212C391.286 539.843 390.321 535.485 390.321 529.134C390.321 524.007 391.13 520.246 392.744 517.851C394.88 514.624 397.952 513.01 401.962 513.01C403.733 513.01 405.335 513.374 406.767 514.102C408.199 514.831 409.409 515.872 410.399 517.226C410.998 518.032 411.572 519.308 412.118 521.052L427.743 517.577C425.738 511.539 422.666 507.063 418.525 504.148C414.411 501.233 408.746 499.776 401.533 499.776ZM192.394 500.751V557.985H237.706V543.89H210.09V500.751H192.394ZM246.457 500.751V557.985H264.191V500.751H246.457ZM277.003 500.751V557.985H293.644V526.558L315.089 557.985H331.768V500.751H315.089V532.413L293.526 500.751H277.003ZM344.228 500.751V557.985H361.964V500.751H344.228ZM452.626 500.751L431.103 557.985H449.189L451.962 548.537H472.117L474.93 557.985H493.445L471.922 500.751H452.626ZM462.078 515.586L468.408 536.162H455.791L462.078 515.586Z" fill="white"/>
</svg>
