<svg xmlns="http://www.w3.org/2000/svg" version="1.1" xmlns:xlink="http://www.w3.org/1999/xlink" xmlns:svgjs="http://svgjs.dev/svgjs" width="1322" height="560" preserveAspectRatio="none" viewBox="0 0 1322 560"><g mask="url(&quot;#SvgjsMask1132&quot;)" fill="none"><path d="M1240.17,515.489C1264.061,514.252,1280.039,493.989,1292.275,473.432C1304.909,452.204,1316.584,427.701,1305.587,405.581C1293.637,381.546,1267,367.821,1240.17,368.63C1214.596,369.401,1193.8,387.035,1181.243,409.328C1168.948,431.154,1165.637,457.459,1177.795,479.362C1190.293,501.879,1214.451,516.821,1240.17,515.489" fill="rgba(28, 83, 142, 0.4)" class="triangle-float2"></path><path d="M268.3 518.96 a183.46 183.46 0 1 0 366.92 0 a183.46 183.46 0 1 0 -366.92 0z" fill="rgba(28, 83, 142, 0.4)" class="triangle-float2"></path><path d="M348.115,467.431C398.255,467.225,439.707,432.728,464.655,389.235C489.463,345.985,495.059,294.573,472.882,249.917C447.929,199.671,404.216,154.619,348.115,154.57C291.954,154.521,248.155,199.501,222.971,249.699C200.435,294.62,204.859,346.628,229.903,390.201C255.042,433.939,297.667,467.638,348.115,467.431" fill="rgba(28, 83, 142, 0.4)" class="triangle-float1"></path><path d="M1285.494,505.255C1322.225,506.297,1348.97,474.939,1367.542,443.232C1386.379,411.073,1400.743,372.357,1382.313,339.963C1363.741,307.319,1323.024,297.594,1285.494,299.012C1250.699,300.327,1216.921,316.088,1200.567,346.829C1185.034,376.027,1195.502,409.647,1211.128,438.796C1227.963,470.2,1249.876,504.245,1285.494,505.255" fill="rgba(28, 83, 142, 0.4)" class="triangle-float3"></path><path d="M209.805,397.922C264.099,400.483,322.802,387.154,350.69,340.5C379.123,292.932,363.403,234.462,336.459,186.035C308.562,135.895,267.183,87.305,209.805,87.283C152.401,87.261,108.51,134.523,82.985,185.94C60.354,231.527,64.069,284.538,90.198,328.214C115.59,370.657,160.401,395.592,209.805,397.922" fill="rgba(28, 83, 142, 0.4)" class="triangle-float2"></path><path d="M925.512,352.264C977.07,350.115,1024.465,321.061,1047.464,274.867C1068.382,232.852,1054.161,184.315,1028.788,144.831C1005.744,108.972,968.132,85.763,925.512,85.092C881.65,84.401,841.651,105.585,816.445,141.487C786.102,184.706,760.315,238.922,784.584,285.822C810.166,335.259,869.896,354.582,925.512,352.264" fill="rgba(28, 83, 142, 0.4)" class="triangle-float2"></path></g><defs><mask id="SvgjsMask1132"><rect width="1322" height="560" fill="#ffffff"></rect></mask><style>
                @keyframes float1 {
                    0%{transform: translate(0, 0)}
                    50%{transform: translate(-10px, 0)}
                    100%{transform: translate(0, 0)}
                }

                .triangle-float1 {
                    animation: float1 5s infinite;
                }

                @keyframes float2 {
                    0%{transform: translate(0, 0)}
                    50%{transform: translate(-5px, -5px)}
                    100%{transform: translate(0, 0)}
                }

                .triangle-float2 {
                    animation: float2 4s infinite;
                }

                @keyframes float3 {
                    0%{transform: translate(0, 0)}
                    50%{transform: translate(0, -10px)}
                    100%{transform: translate(0, 0)}
                }

                .triangle-float3 {
                    animation: float3 6s infinite;
                }
            </style></defs></svg>