<svg id="visual" viewBox="0 0 900 900" width="900" height="900" xmlns="http://www.w3.org/2000/svg" xmlns:xlink="http://www.w3.org/1999/xlink" version="1.1"><rect x="0" y="0" width="900" height="900" fill="#bebdd8"></rect><defs><linearGradient id="grad1_0" x1="0%" y1="100%" x2="100%" y2="0%"><stop offset="30%" stop-color="#bebdd8" stop-opacity="1"></stop><stop offset="70%" stop-color="#bebdd8" stop-opacity="1"></stop></linearGradient></defs><defs><linearGradient id="grad2_0" x1="0%" y1="100%" x2="100%" y2="0%"><stop offset="30%" stop-color="#bebdd8" stop-opacity="1"></stop><stop offset="70%" stop-color="#bebdd8" stop-opacity="1"></stop></linearGradient></defs><g transform="translate(900, 900)"><path d="M-381.8 0C-368.1 -31.9 -354.3 -63.9 -339 -90.8C-323.8 -117.8 -307 -139.8 -298.8 -172.5C-290.5 -205.2 -290.8 -248.4 -270 -270C-249.2 -291.6 -207.3 -291.4 -176 -304.8C-144.7 -318.2 -124.1 -345.2 -96.5 -360.3C-69 -375.4 -34.5 -378.6 0 -381.8L0 0Z" fill="#1D2D8C"></path></g><g transform="translate(0, 0)"><path d="M381.8 0C368.3 30 354.7 59.9 348.7 93.4C342.7 126.9 344.4 164 328.2 189.5C312.1 215 278.2 228.9 254.6 254.6C230.9 280.2 217.6 317.6 190.9 330.7C164.3 343.8 124.4 332.6 90.3 337.1C56.3 341.6 28.1 361.7 0 381.8L0 0Z" fill="#1D2D8C"></path></g></svg>