<svg id="visual" viewBox="0 0 900 900" width="900" height="900" xmlns="http://www.w3.org/2000/svg" xmlns:xlink="http://www.w3.org/1999/xlink" version="1.1"><rect x="0" y="0" width="900" height="900" fill="#ffffff"></rect><defs><linearGradient id="grad1_0" x1="0%" y1="100%" x2="100%" y2="0%"><stop offset="30%" stop-color="#ffffff" stop-opacity="1"></stop><stop offset="70%" stop-color="#ffffff" stop-opacity="1"></stop></linearGradient></defs><defs><linearGradient id="grad2_0" x1="0%" y1="100%" x2="100%" y2="0%"><stop offset="30%" stop-color="#ffffff" stop-opacity="1"></stop><stop offset="70%" stop-color="#ffffff" stop-opacity="1"></stop></linearGradient></defs><g transform="translate(900, 900)"><path d="M-445.5 0C-411.9 -30 -378.2 -59.9 -373.8 -100.2C-369.4 -140.4 -394.2 -190.9 -380.2 -219.5C-366.2 -248.1 -313.4 -254.9 -284.3 -284.3C-255.1 -313.6 -249.6 -365.6 -222.7 -385.8C-195.9 -406 -147.6 -394.3 -106.9 -398.9C-66.2 -403.6 -33.1 -424.5 0 -445.5L0 0Z" fill="#1D2D8C"></path></g><g transform="translate(0, 0)"><path d="M445.5 0C444.9 41.2 444.3 82.4 424 113.6C403.8 144.9 363.9 166.1 342.1 197.5C320.3 228.9 316.6 270.4 294.9 294.9C273.1 319.3 233.4 326.8 202 349.9C170.6 373 147.6 411.8 115.3 430.3C83 448.8 41.5 447.2 0 445.5L0 0Z" fill="#1D2D8C"></path></g></svg>