<svg id="visual" viewBox="0 0 900 900" width="900" height="900" xmlns="http://www.w3.org/2000/svg" xmlns:xlink="http://www.w3.org/1999/xlink" version="1.1"><rect x="0" y="0" width="900" height="900" fill="#ffffff"></rect><defs><linearGradient id="grad1_0" x1="0%" y1="0%" x2="100%" y2="100%"><stop offset="30%" stop-color="#ffffff" stop-opacity="1"></stop><stop offset="70%" stop-color="#ffffff" stop-opacity="1"></stop></linearGradient></defs><defs><linearGradient id="grad2_0" x1="0%" y1="0%" x2="100%" y2="100%"><stop offset="30%" stop-color="#ffffff" stop-opacity="1"></stop><stop offset="70%" stop-color="#ffffff" stop-opacity="1"></stop></linearGradient></defs><g transform="translate(900, 0)"><path d="M0 445.5C-29.5 411.4 -59 377.3 -100.4 374.8C-141.8 372.2 -195.1 401.2 -222.7 385.8C-250.4 370.4 -252.3 310.5 -279.3 279.3C-306.3 248.1 -358.4 245.5 -382.8 221C-407.1 196.5 -403.7 150.2 -409.6 109.7C-415.4 69.3 -430.4 34.6 -445.5 0L0 0Z" fill="#1D2D8C"></path></g><g transform="translate(0, 900)"><path d="M0 -445.5C40.7 -446.4 81.3 -447.4 115.3 -430.3C149.3 -413.2 176.6 -378.1 202 -349.9C227.4 -321.6 250.8 -300.2 279.3 -279.3C307.8 -258.4 341.2 -238.1 363.7 -210C386.2 -181.9 397.8 -146 409.6 -109.7C421.3 -73.4 433.4 -36.7 445.5 0L0 0Z" fill="#1D2D8C"></path></g></svg>