<svg id="visual" viewBox="0 0 900 900" width="900" height="900" xmlns="http://www.w3.org/2000/svg" xmlns:xlink="http://www.w3.org/1999/xlink" version="1.1"><rect x="0" y="0" width="900" height="900" fill="#ffffff"></rect><defs><linearGradient id="grad1_0" x1="0%" y1="0%" x2="100%" y2="100%"><stop offset="30%" stop-color="#ffffff" stop-opacity="1"></stop><stop offset="70%" stop-color="#ffffff" stop-opacity="1"></stop></linearGradient></defs><defs><linearGradient id="grad2_0" x1="0%" y1="0%" x2="100%" y2="100%"><stop offset="30%" stop-color="#ffffff" stop-opacity="1"></stop><stop offset="70%" stop-color="#ffffff" stop-opacity="1"></stop></linearGradient></defs><g transform="translate(900, 0)"><path d="M0 477.3C-56.8 482.2 -113.6 487 -147.5 453.9C-181.4 420.8 -192.3 349.8 -231 317.9C-269.7 286.1 -336.3 293.5 -368.9 268C-401.6 242.6 -400.3 184.3 -412.8 134.1C-425.2 84 -451.2 42 -477.3 0L0 0Z" fill="#303f92"></path></g><g transform="translate(0, 900)"><path d="M0 -477.3C50.5 -473.4 101 -469.5 147.5 -453.9C194 -438.4 236.3 -411.2 273.9 -377C311.5 -342.8 344.2 -301.7 352.7 -256.3C361.3 -210.9 345.6 -161.2 362.4 -117.7C379.1 -74.3 428.2 -37.2 477.3 0L0 0Z" fill="#303f92"></path></g></svg>