<svg id="visual" viewBox="0 0 900 900" width="900" height="900" xmlns="http://www.w3.org/2000/svg" xmlns:xlink="http://www.w3.org/1999/xlink" version="1.1"><rect x="0" y="0" width="900" height="900" fill="#ffffff"></rect><defs><linearGradient id="grad1_0" x1="0%" y1="100%" x2="100%" y2="0%"><stop offset="30%" stop-color="#ffffff" stop-opacity="1"></stop><stop offset="70%" stop-color="#ffffff" stop-opacity="1"></stop></linearGradient></defs><defs><linearGradient id="grad2_0" x1="0%" y1="100%" x2="100%" y2="0%"><stop offset="30%" stop-color="#ffffff" stop-opacity="1"></stop><stop offset="70%" stop-color="#ffffff" stop-opacity="1"></stop></linearGradient></defs><g transform="translate(900, 900)"><path d="M-445.5 0C-413.4 -25.9 -381.4 -51.8 -380.2 -86.8C-379.1 -121.7 -408.9 -165.7 -401.4 -193.3C-393.8 -220.8 -349 -231.9 -326 -260C-303.1 -288.1 -302.1 -333.1 -276.2 -346.4C-250.3 -359.6 -199.5 -341 -165.3 -343.3C-131.1 -345.5 -113.6 -368.5 -88.8 -389C-64 -409.5 -32 -427.5 0 -445.5L0 0Z" fill="#495abc"></path></g><g transform="translate(0, 0)"><path d="M445.5 0C405.5 27.6 365.5 55.1 344.1 78.5C322.8 102 320.2 121.3 330.7 159.2C341.1 197.1 364.6 253.6 348.3 277.8C332 301.9 275.9 293.7 241.9 303.4C207.9 313 196.1 340.5 176.2 365.8C156.2 391.1 128.2 414.1 97.5 427C66.8 439.9 33.4 442.7 0 445.5L0 0Z" fill="#495abc"></path></g></svg>