<svg xmlns="http://www.w3.org/2000/svg" version="1.1" xmlns:xlink="http://www.w3.org/1999/xlink" xmlns:svgjs="http://svgjs.dev/svgjs" width="1454" height="845" preserveAspectRatio="none" viewBox="0 0 1454 845"><g mask="url(&quot;#SvgjsMask1765&quot;)" fill="none"><rect width="1454" height="845" x="0" y="0" fill="rgba(29, 45, 140, 0.12)"></rect><path d="M0,446.367C81.886,458.808,148.259,383.649,220.357,342.882C297.234,299.412,405.716,282.137,436.704,199.436C467.914,116.141,384.331,34.554,368.697,-53.011C353.814,-136.373,407.461,-241.336,347.358,-300.988C286.217,-361.67,181.003,-316.195,95.253,-324.401C28.468,-330.792,-35.427,-358.19,-100.976,-343.893C-169.338,-328.982,-232.889,-294.356,-279.935,-242.565C-327.614,-190.077,-342.025,-119.439,-365.613,-52.567C-395.165,31.212,-478.588,121.179,-435.684,198.97C-391.699,278.72,-260.351,236.908,-181.153,281.88C-108.761,322.987,-82.304,433.862,0,446.367" fill="rgba(19, 29, 91, 0.12)"></path><path d="M1454 1300.779C1537.819 1296.8899999999999 1595.136 1219.7640000000001 1666.855 1176.208 1740.896 1131.243 1842.105 1117.329 1882.367 1040.629 1922.844 963.521 1898.402 867.937 1872.287 784.859 1848.826 710.227 1790.159 657.071 1742.334 595.158 1691.246 529.021 1662.953 429.828 1582.002 409.065 1500.852 388.251 1430.91 469.104 1351.181 494.832 1274.305 519.64 1182.141 503.352 1122.157 557.456 1060.3890000000001 613.169 1035.675 701.087 1030.47 784.106 1025.4859999999999 863.602 1059.403 937.656 1093.815 1009.491 1127.66 1080.143 1167.147 1147.308 1228.06 1196.57 1293.882 1249.801 1369.438 1304.703 1454 1300.779" fill="rgba(39, 61, 189, 0.12)"></path></g><defs><mask id="SvgjsMask1765"><rect width="1454" height="845" fill="#ffffff"></rect></mask></defs></svg>