<svg width="258" height="197" viewBox="0 0 258 197" fill="none" xmlns="http://www.w3.org/2000/svg">
<rect width="258" height="197" rx="7" fill="#F0F0F0"/>
<mask id="mask0_144_1017" style="mask-type:luminance" maskUnits="userSpaceOnUse" x="79" y="19" width="100" height="81">
<path d="M79 19.2222H179V99.7778H79V19.2222Z" fill="white"/>
</mask>
<g mask="url(#mask0_144_1017)">
<path d="M88.4974 65.5664C87.9827 65.5664 87.4766 65.5118 86.993 65.4039C86.4988 65.296 86.0482 65.1197 85.6487 64.8819C85.2455 64.641 84.9152 64.3197 84.669 63.9307C84.4222 63.538 84.2926 63.0705 84.2826 62.5429V62.4512H87.4666L87.4723 62.5347C87.4897 62.7907 87.6063 63.0109 87.8243 63.2105C87.9852 63.356 88.2525 63.4275 88.6065 63.4275C88.8558 63.4275 89.082 63.3786 89.302 63.2769C89.4977 63.1828 89.5924 63.0536 89.5924 62.8772C89.5924 62.6671 89.5058 62.5228 89.3207 62.4312C89.1194 62.3283 88.652 62.2128 87.9272 62.0861C86.72 61.8828 85.8319 61.5678 85.2972 61.1481C84.7518 60.7196 84.472 60.1267 84.472 59.3832C84.472 58.8649 84.5985 58.417 84.8484 58.0549C85.0934 57.7004 85.4193 57.4118 85.8133 57.2092C86.2028 57.0115 86.6315 56.8628 87.0958 56.7775C88.0693 56.5956 89.0478 56.6162 89.9072 56.7687C90.3665 56.8497 90.7965 56.9921 91.1917 57.1953C91.5929 57.3967 91.9202 57.6803 92.1651 58.0392C92.41 58.4012 92.5496 58.8455 92.5708 59.3637L92.5789 59.4578H89.532L89.5283 59.3712C89.5164 59.1447 89.4111 58.9634 89.2011 58.8179C89.0203 58.666 88.7997 58.5926 88.5467 58.5926C88.2874 58.5926 88.0693 58.6359 87.8998 58.7193C87.7483 58.7934 87.6773 58.9308 87.6773 59.1428C87.6773 59.2238 87.7041 59.2847 87.7545 59.333C87.8163 59.3907 87.8985 59.444 87.9951 59.493C88.1416 59.5519 88.5055 59.6373 89.0714 59.7433C89.8149 59.8713 90.3814 60.0006 90.7573 60.1311C91.3723 60.3262 91.8722 60.6122 92.2349 60.9856C92.6057 61.3646 92.7971 61.8885 92.7971 62.541C92.7971 63.0994 92.6705 63.59 92.4244 63.9928C92.1776 64.3944 91.8442 64.7137 91.4341 64.9371C91.0308 65.1592 90.5721 65.3217 90.0698 65.4202C89.5719 65.5162 89.0446 65.5664 88.4974 65.5664Z" fill="black"/>
<path d="M96.8927 65.3584H93.5629V56.8549H96.8927V65.3584ZM96.8927 56.1409H93.5629V53.7316H96.8927V56.1409Z" fill="black"/>
<path d="M106.905 65.3574H103.575V60.9065C103.575 60.3676 103.509 59.9666 103.382 59.7138C103.269 59.4772 103.016 59.3612 102.627 59.3612C102.487 59.3612 102.351 59.3837 102.213 59.4295C102.079 59.4741 101.955 59.5482 101.838 59.6523C101.719 59.752 101.628 59.9045 101.559 60.1022C101.489 60.3054 101.451 60.5652 101.451 60.8738V65.3574H98.1216V56.8539H101.341V57.7807C101.951 57.0297 102.834 56.6463 103.983 56.6463C104.795 56.6463 105.494 56.9017 106.053 57.396C106.617 57.9005 106.905 58.627 106.905 59.5594V65.3574Z" fill="black"/>
<path d="M116.986 59.5363C116.841 59.0031 116.614 58.5143 116.322 58.0814C116.021 57.644 115.639 57.2921 115.191 57.0367C114.736 56.7782 114.217 56.6477 113.641 56.6477C113.263 56.6477 112.934 56.6841 112.665 56.7481C112.393 56.8121 112.164 56.9031 111.977 57.0128C111.798 57.1239 111.648 57.2394 111.533 57.3536C111.454 57.4358 111.366 57.5343 111.275 57.6453V56.8548H108.052V68.0518H111.385V64.5745C111.62 64.8588 111.913 65.0897 112.255 65.2616C112.665 65.4643 113.115 65.5672 113.594 65.5672C114.265 65.5672 114.846 65.4354 115.316 65.1794C115.79 64.9215 116.169 64.5727 116.449 64.1385C116.725 63.7081 116.925 63.2338 117.035 62.7218C117.148 62.2136 117.205 61.6828 117.205 61.1482C117.205 60.6068 117.13 60.0665 116.986 59.5363ZM113.981 61.8942C113.939 62.1408 113.864 62.3685 113.759 62.5693C113.651 62.7758 113.494 62.9433 113.295 63.0707C113.096 63.1955 112.851 63.2583 112.573 63.2583C112.295 63.2583 112.05 63.1955 111.85 63.0707C111.653 62.9433 111.495 62.7726 111.386 62.5599C111.285 62.3566 111.208 62.1301 111.164 61.8854C111.122 61.6495 111.098 61.3866 111.098 61.1162C111.098 60.8314 111.122 60.5628 111.164 60.3213C111.208 60.0703 111.285 59.8438 111.386 59.6462C111.495 59.441 111.653 59.2723 111.85 59.1468C112.049 59.0193 112.292 58.9573 112.573 58.9573C112.855 58.9573 113.096 59.0193 113.295 59.1468C113.496 59.2723 113.651 59.4435 113.761 59.6549C113.864 59.8613 113.939 60.0885 113.981 60.3288C114.025 60.5659 114.05 60.8288 114.05 61.1162C114.05 61.3898 114.025 61.6508 113.981 61.8942Z" fill="black"/>
<path d="M126.883 61.8188C126.883 60.1468 126.489 58.8555 125.712 57.9752C124.931 57.095 123.716 56.647 122.09 56.647C121.444 56.647 120.841 56.7625 120.287 56.9921C119.739 57.2186 119.257 57.5455 118.865 57.9577C118.468 58.3692 118.162 58.853 117.948 59.397C117.743 59.9397 117.634 60.5232 117.634 61.1306C117.634 61.8245 117.752 62.4544 117.986 63.0034C118.217 63.5524 118.554 64.0249 118.981 64.4076C119.407 64.7859 119.916 65.0764 120.494 65.2716C121.068 65.4673 121.695 65.5664 122.365 65.5664C123.361 65.5664 124.26 65.3387 125.044 64.8901C125.829 64.4383 126.386 63.7613 126.7 62.8773L126.743 62.7556H123.623L123.597 62.7977C123.486 62.9758 123.32 63.1082 123.096 63.201C122.86 63.2996 122.613 63.3497 122.346 63.3497C121.895 63.3497 121.533 63.2098 121.275 62.9363C121.033 62.6765 120.888 62.3346 120.835 61.9105H126.883V61.8188ZM123.854 60.2603H120.648L120.666 60.1512C120.823 59.1781 121.398 58.6823 122.376 58.6823C122.802 58.6823 123.161 58.8267 123.437 59.1109C123.715 59.3957 123.854 59.7515 123.854 60.1707V60.2603Z" fill="black"/>
<path d="M143.311 66.0801H142.438C142.263 66.0801 142.118 65.9307 142.118 65.7444V59.2299C142.118 57.1557 141.736 55.8726 139.841 55.8726C138.203 55.8726 136.891 57.4373 136.492 58.9099C136.358 59.3667 136.294 59.8648 136.294 60.4797V65.7444C136.294 65.9307 136.152 66.0801 135.975 66.0801H135.103C134.923 66.0801 134.781 65.9307 134.781 65.7444V59.2299C134.781 57.1029 134.416 55.8726 132.564 55.8726C130.85 55.8726 129.521 57.4976 129.092 59.1032C128.988 59.4821 128.937 59.932 128.937 60.4797V65.7444C128.937 65.9307 128.792 66.0801 128.616 66.0801H127.743C127.566 66.0801 127.422 65.9307 127.422 65.7444V54.9577C127.422 54.7733 127.566 54.6227 127.743 54.6227H128.616C128.792 54.6227 128.937 54.7733 128.937 54.9577V56.3701C129.83 55.178 131.287 54.3642 132.564 54.3642C134.416 54.3642 135.543 55.1297 135.996 56.7077C136.691 55.5883 138.068 54.3642 139.841 54.3642C143.243 54.3642 143.635 56.9549 143.635 58.9062V65.7444C143.635 65.9307 143.49 66.0801 143.311 66.0801Z" fill="black"/>
<path d="M150.399 54.3639C147.201 54.3639 144.694 56.9639 144.694 60.2868C144.694 63.6804 147.201 66.3389 150.399 66.3389C153.599 66.3389 156.103 63.6804 156.103 60.2868C156.103 56.9639 153.599 54.3639 150.399 54.3639ZM150.399 64.9692C147.976 64.9692 146.075 62.9113 146.075 60.2868C146.075 57.7313 147.976 55.7323 150.399 55.7323C152.827 55.7323 154.723 57.7313 154.723 60.2868C154.723 62.9113 152.827 64.9692 150.399 64.9692Z" fill="black"/>
<path d="M150.837 53.3691H149.923C149.805 53.3691 149.701 53.3051 149.641 53.1985C149.585 53.0936 149.587 52.9676 149.645 52.8641L151.041 50.4673C151.097 50.3694 151.203 50.3073 151.312 50.3073H152.479C152.599 50.3073 152.71 50.377 152.768 50.4881C152.821 50.6003 152.811 50.7327 152.738 50.835L151.097 53.2292C151.036 53.3171 150.94 53.3691 150.837 53.3691Z" fill="black"/>
<path d="M161.105 66.0801H160.273C160.14 66.0801 160.023 65.9967 159.974 65.8699L155.88 55.0807C155.84 54.9759 155.851 54.8599 155.912 54.7677C155.97 54.6779 156.071 54.6227 156.178 54.6227H157.114C157.246 54.6227 157.363 54.7068 157.413 54.8361L160.611 63.2937C160.638 63.3647 160.664 63.4374 160.688 63.5108C160.712 63.4392 160.739 63.369 160.761 63.2993L163.965 54.8361C164.011 54.7068 164.13 54.6227 164.263 54.6227H165.177C165.283 54.6227 165.383 54.6779 165.446 54.7677C165.505 54.8599 165.514 54.9759 165.478 55.0788L161.401 65.8699C161.352 65.9967 161.235 66.0801 161.105 66.0801Z" fill="black"/>
<path d="M167.296 52.5498H166.26C166.082 52.5498 165.938 52.4005 165.938 52.2166V50.64C165.938 50.458 166.082 50.3086 166.26 50.3086H167.296C167.475 50.3086 167.62 50.458 167.62 50.64V52.2166C167.62 52.4005 167.475 52.5498 167.296 52.5498Z" fill="black"/>
<path d="M167.216 66.0801H166.345C166.165 66.0801 166.018 65.9307 166.018 65.7444V54.9577C166.018 54.7733 166.165 54.6227 166.345 54.6227H167.216C167.391 54.6227 167.537 54.7733 167.537 54.9577V65.7444C167.537 65.9307 167.391 66.0801 167.216 66.0801Z" fill="black"/>
<path d="M171.764 66.1641C171.213 66.1641 169.408 65.9783 169.408 63.5646V50.6385C169.408 50.4566 169.552 50.3072 169.729 50.3072H170.603C170.778 50.3072 170.922 50.4566 170.922 50.6385V63.2861C170.922 64.6345 171.559 64.6345 171.83 64.6345C171.966 64.6345 172.093 64.6169 172.093 64.6169C172.199 64.6024 172.281 64.6345 172.353 64.6953C172.421 64.7593 172.463 64.8502 172.463 64.9481V65.7882C172.463 65.9464 172.358 66.0806 172.213 66.1151C172.155 66.1258 171.964 66.1641 171.764 66.1641Z" fill="black"/>
<path d="M101.797 54.1294C104.24 49.1671 106.959 44.2306 109.452 40.2214C110.63 38.3291 111.868 36.4086 113.131 34.5125C114.002 33.2118 114.736 32.1326 115.289 31.3446C112.563 34.542 105.528 43.0993 99.2122 53.283V54.0986H101.451C101.565 54.0986 101.679 54.1081 101.797 54.1294Z" fill="#225AA8"/>
<path d="M149.853 68.6948C148.913 71.059 147.976 73.2643 147.066 75.247C146.184 77.1795 145.241 79.1532 144.265 81.1215C143.622 82.4203 143.068 83.507 142.647 84.3145C144.363 81.6693 148.066 75.7565 151.828 68.4519C151.206 68.6126 150.557 68.6966 149.905 68.6966L149.853 68.6948Z" fill="black"/>
<path d="M149.905 68.5144L149.738 68.5126L149.718 68.5665C148.767 70.9519 147.823 73.1724 146.909 75.1676C146.027 77.1007 145.085 79.0745 144.111 81.0396C142.666 83.9558 141.659 85.8011 141.656 85.8211L141.798 85.9141C141.849 85.8426 146.922 78.3888 152.075 68.3512L152.172 68.1674L151.977 68.2239C151.307 68.4171 150.611 68.5144 149.905 68.5144Z" fill="#225AA8"/>
<path d="M160.776 27.1264L160.734 27.0887C160.635 27.005 160.532 26.9263 160.427 26.85C159.461 26.1477 158.236 25.7626 156.779 25.7017C156.642 25.696 156.504 25.6921 156.363 25.6921H156.363C155.192 25.6921 153.863 25.8907 152.393 26.2824C151.361 26.5573 150.259 26.9265 149.091 27.3924C149.042 27.4121 148.99 27.4331 148.939 27.4539C143.912 29.4706 131.296 35.4213 113.459 54.0729C113.464 54.0733 113.471 54.0736 113.477 54.074C113.251 54.3077 113.025 54.5418 112.798 54.7793C112.899 54.7693 112.999 54.763 113.097 54.7599C113.449 54.4606 113.825 54.1425 114.228 53.8025C115.843 52.4447 117.485 51.1052 119.119 49.8284C119.184 49.7775 119.249 49.7258 119.314 49.6746C119.882 49.2245 120.47 48.7608 121.072 48.283C123.7 46.1935 126.527 43.9485 129.456 41.9458C131.787 40.3526 134.183 38.9126 136.598 37.827C140.182 36.217 142.167 35.5105 143.344 35.1809C144.099 34.9695 144.522 34.9126 144.819 34.8731C144.881 34.8641 144.937 34.8565 144.989 34.8486C145.042 34.8405 145.091 34.832 145.137 34.821C145.162 34.8157 145.187 34.8121 145.211 34.807C145.779 34.6878 146.358 34.6246 146.933 34.6189C146.962 34.6186 146.99 34.6165 147.019 34.6165C148.377 34.6165 149.684 34.9388 150.869 35.5205C153.169 36.6504 155.003 38.7598 155.842 41.3886C155.954 41.7385 156.049 42.0965 156.125 42.4637C156.258 43.1301 156.337 43.7677 156.368 44.4757C156.388 44.9501 156.387 45.4559 156.364 46.0243C156.248 48.1826 155.894 50.3905 155.288 52.771C155.288 52.771 155.288 52.771 155.288 52.7709C155.39 52.7545 155.487 52.7467 155.585 52.7443C155.603 52.7439 155.62 52.7421 155.638 52.7421H156.566C156.623 52.7421 156.68 52.745 156.737 52.7491C157.365 52.7952 157.946 53.0924 158.359 53.574C158.395 53.6152 158.429 53.6575 158.462 53.7015C158.462 53.7014 158.462 53.7014 158.462 53.7013C158.462 53.7014 158.462 53.7014 158.462 53.7015C160.391 48.581 161.739 43.8277 162.471 39.5707C163.527 33.4433 162.953 29.2559 160.776 27.1264Z" fill="#225AA8"/>
<path d="M139.228 68.3081C137.751 69.2398 137.379 69.4382 135.905 70.3133C135.312 70.6672 134.701 71.0342 134.076 71.4095C128.755 74.5955 122.139 78.5658 115.894 80.4869C109.22 82.5399 107.564 82.6052 106.77 82.6409C106.648 82.6447 106.546 82.6491 106.448 82.6597C106.132 82.6912 105.808 82.7067 105.492 82.7067C100.467 82.7067 96.3078 78.8287 95.8162 73.6839C95.7033 72.5287 95.7501 71.4716 95.9713 70.0455C96.0592 69.5272 96.1702 69.0002 96.2898 68.4712V68.3251H91.0946L91.0765 68.4712C89.9609 71.0537 89.0429 73.5421 88.3468 75.8779C86.4989 82.0725 86.618 86.4833 88.6958 88.9854L88.6927 88.9898L88.8428 89.151L88.8473 89.1486C90.2015 90.4874 92.2351 91.167 94.9043 91.167C96.7573 91.167 98.9528 90.8376 101.423 90.1894C116.196 86.3145 132.35 74.8709 140.801 68.3081H139.228Z" fill="#225AA8"/>
</g>
<path d="M66.573 121.505C66.4537 120.497 65.9698 119.715 65.1213 119.158C64.2728 118.601 63.2321 118.323 61.9991 118.323C61.0976 118.323 60.3088 118.469 59.6326 118.76C58.9631 119.052 58.4395 119.453 58.0616 119.963C57.6904 120.474 57.5048 121.054 57.5048 121.703C57.5048 122.247 57.6341 122.714 57.8926 123.105C58.1577 123.49 58.4958 123.811 58.9068 124.07C59.3178 124.322 59.7486 124.531 60.1994 124.696C60.6502 124.855 61.0645 124.985 61.4423 125.084L63.5105 125.641C64.0408 125.78 64.6307 125.972 65.2804 126.218C65.9366 126.463 66.563 126.798 67.1596 127.222C67.7628 127.64 68.26 128.176 68.6511 128.833C69.0422 129.489 69.2377 130.294 69.2377 131.249C69.2377 132.349 68.9494 133.344 68.3727 134.232C67.8026 135.12 66.9674 135.826 65.867 136.35C64.7733 136.873 63.4442 137.135 61.8798 137.135C60.4215 137.135 59.1587 136.9 58.0914 136.429C57.0308 135.959 56.1956 135.302 55.5858 134.461C54.9825 133.619 54.6412 132.641 54.5616 131.527H57.1071C57.1734 132.296 57.4319 132.933 57.8826 133.436C58.34 133.934 58.9167 134.305 59.6127 134.55C60.3154 134.789 61.0711 134.908 61.8798 134.908C62.8211 134.908 63.6663 134.756 64.4153 134.451C65.1644 134.139 65.7576 133.708 66.1951 133.158C66.6326 132.601 66.8514 131.952 66.8514 131.209C66.8514 130.533 66.6625 129.983 66.2846 129.559C65.9068 129.134 65.4096 128.79 64.7931 128.525C64.1767 128.259 63.5105 128.027 62.7946 127.828L60.2889 127.113C58.698 126.655 57.4385 126.002 56.5105 125.154C55.5824 124.305 55.1184 123.195 55.1184 121.823C55.1184 120.683 55.4267 119.688 56.0431 118.84C56.6663 117.985 57.5015 117.322 58.5488 116.851C59.6028 116.374 60.7794 116.135 62.0787 116.135C63.3912 116.135 64.5578 116.371 65.5787 116.841C66.5995 117.305 67.4082 117.942 68.0048 118.75C68.608 119.559 68.9262 120.477 68.9593 121.505H66.573ZM72.9739 136.777V121.505H75.3205V136.777H72.9739ZM74.1671 118.959C73.7097 118.959 73.3153 118.803 72.9838 118.492C72.659 118.18 72.4966 117.806 72.4966 117.368C72.4966 116.931 72.659 116.556 72.9838 116.245C73.3153 115.933 73.7097 115.777 74.1671 115.777C74.6245 115.777 75.0156 115.933 75.3404 116.245C75.6718 116.556 75.8375 116.931 75.8375 117.368C75.8375 117.806 75.6718 118.18 75.3404 118.492C75.0156 118.803 74.6245 118.959 74.1671 118.959ZM81.965 127.59V136.777H79.6184V121.505H81.8855V123.891H82.0843C82.4423 123.115 82.9859 122.492 83.715 122.022C84.4442 121.544 85.3855 121.306 86.5389 121.306C87.573 121.306 88.4778 121.518 89.2534 121.942C90.0289 122.36 90.6322 122.996 91.063 123.851C91.4939 124.7 91.7093 125.774 91.7093 127.073V136.777H89.3627V127.232C89.3627 126.032 89.0512 125.097 88.4281 124.428C87.805 123.752 86.9499 123.414 85.8627 123.414C85.1137 123.414 84.4442 123.576 83.8542 123.901C83.2709 124.226 82.8102 124.7 82.4721 125.323C82.1341 125.946 81.965 126.702 81.965 127.59ZM95.9973 142.505V121.505H98.2644V123.931H98.5428C98.7151 123.666 98.9538 123.328 99.2587 122.917C99.5703 122.499 100.014 122.128 100.591 121.803C101.174 121.471 101.963 121.306 102.958 121.306C104.244 121.306 105.377 121.627 106.358 122.27C107.339 122.913 108.105 123.825 108.655 125.005C109.205 126.185 109.48 127.577 109.48 129.181C109.48 130.798 109.205 132.2 108.655 133.387C108.105 134.567 107.343 135.481 106.368 136.131C105.394 136.774 104.27 137.096 102.997 137.096C102.016 137.096 101.231 136.933 100.641 136.608C100.051 136.277 99.5968 135.902 99.2786 135.485C98.9604 135.06 98.7151 134.709 98.5428 134.431H98.3439V142.505H95.9973ZM98.3042 129.141C98.3042 130.294 98.4732 131.312 98.8113 132.194C99.1493 133.069 99.6432 133.755 100.293 134.252C100.942 134.742 101.738 134.988 102.679 134.988C103.66 134.988 104.479 134.729 105.135 134.212C105.798 133.688 106.295 132.986 106.627 132.104C106.965 131.216 107.134 130.228 107.134 129.141C107.134 128.067 106.968 127.099 106.637 126.238C106.312 125.369 105.818 124.683 105.155 124.179C104.499 123.669 103.673 123.414 102.679 123.414C101.725 123.414 100.923 123.656 100.273 124.14C99.6233 124.617 99.1328 125.286 98.8013 126.148C98.4699 127.003 98.3042 128.001 98.3042 129.141ZM119.463 137.096C117.992 137.096 116.722 136.771 115.655 136.121C114.594 135.465 113.776 134.55 113.199 133.377C112.629 132.197 112.344 130.825 112.344 129.26C112.344 127.696 112.629 126.317 113.199 125.124C113.776 123.924 114.578 122.989 115.605 122.32C116.639 121.644 117.846 121.306 119.225 121.306C120.02 121.306 120.806 121.438 121.581 121.703C122.357 121.969 123.063 122.4 123.699 122.996C124.335 123.586 124.843 124.368 125.22 125.343C125.598 126.317 125.787 127.517 125.787 128.942V129.936H114.014V127.908H123.401C123.401 127.046 123.228 126.277 122.884 125.601C122.546 124.925 122.062 124.391 121.432 124C120.809 123.609 120.073 123.414 119.225 123.414C118.29 123.414 117.481 123.646 116.798 124.11C116.122 124.567 115.602 125.164 115.237 125.9C114.873 126.635 114.691 127.424 114.691 128.266V129.618C114.691 130.772 114.889 131.749 115.287 132.551C115.691 133.347 116.252 133.953 116.968 134.371C117.683 134.782 118.515 134.988 119.463 134.988C120.08 134.988 120.637 134.901 121.134 134.729C121.637 134.55 122.072 134.285 122.436 133.934C122.801 133.576 123.083 133.132 123.281 132.601L125.548 133.238C125.31 134.007 124.909 134.683 124.345 135.266C123.782 135.843 123.086 136.293 122.257 136.618C121.429 136.936 120.497 137.096 119.463 137.096ZM137.55 116.414H140.493L147.414 133.317H147.652L154.573 116.414H157.516V136.777H155.209V121.306H155.01L148.646 136.777H146.419L140.056 121.306H139.857V136.777H137.55V116.414ZM168.346 137.096C166.968 137.096 165.758 136.767 164.717 136.111C163.683 135.455 162.874 134.537 162.291 133.357C161.714 132.177 161.426 130.798 161.426 129.221C161.426 127.63 161.714 126.241 162.291 125.054C162.874 123.868 163.683 122.946 164.717 122.29C165.758 121.634 166.968 121.306 168.346 121.306C169.725 121.306 170.932 121.634 171.966 122.29C173.006 122.946 173.815 123.868 174.392 125.054C174.975 126.241 175.267 127.63 175.267 129.221C175.267 130.798 174.975 132.177 174.392 133.357C173.815 134.537 173.006 135.455 171.966 136.111C170.932 136.767 169.725 137.096 168.346 137.096ZM168.346 134.988C169.394 134.988 170.256 134.719 170.932 134.182C171.608 133.645 172.108 132.939 172.433 132.064C172.758 131.189 172.92 130.241 172.92 129.221C172.92 128.2 172.758 127.248 172.433 126.367C172.108 125.485 171.608 124.773 170.932 124.229C170.256 123.685 169.394 123.414 168.346 123.414C167.299 123.414 166.437 123.685 165.761 124.229C165.085 124.773 164.585 125.485 164.26 126.367C163.935 127.248 163.773 128.2 163.773 129.221C163.773 130.241 163.935 131.189 164.26 132.064C164.585 132.939 165.085 133.645 165.761 134.182C166.437 134.719 167.299 134.988 168.346 134.988ZM167.273 119.436L169.699 114.823H172.443L169.341 119.436H167.273ZM190.791 121.505L185.143 136.777H182.757L177.109 121.505H179.654L183.87 133.675H184.029L188.245 121.505H190.791ZM193.888 136.777V121.505H196.235V136.777H193.888ZM195.081 118.959C194.624 118.959 194.229 118.803 193.898 118.492C193.573 118.18 193.411 117.806 193.411 117.368C193.411 116.931 193.573 116.556 193.898 116.245C194.229 115.933 194.624 115.777 195.081 115.777C195.539 115.777 195.93 115.933 196.254 116.245C196.586 116.556 196.752 116.931 196.752 117.368C196.752 117.806 196.586 118.18 196.254 118.492C195.93 118.803 195.539 118.959 195.081 118.959ZM202.879 116.414V136.777H200.532V116.414H202.879ZM66.6028 155.505L70.2619 161.749L73.921 155.505H76.6255L71.6937 163.141L76.6255 170.777H73.921L70.2619 164.851L66.6028 170.777H63.8983L68.7505 163.141L63.8983 155.505H66.6028ZM81.7239 155.505L85.383 161.749L89.0421 155.505H91.7466L86.8148 163.141L91.7466 170.777H89.0421L85.383 164.851L81.7239 170.777H79.0194L83.8716 163.141L79.0194 155.505H81.7239ZM96.845 155.505L100.504 161.749L104.163 155.505H106.868L101.936 163.141L106.868 170.777H104.163L100.504 164.851L96.845 170.777H94.1404L98.9927 163.141L94.1404 155.505H96.845ZM111.966 155.505L115.625 161.749L119.284 155.505H121.989L117.057 163.141L121.989 170.777H119.284L115.625 164.851L111.966 170.777H109.262L114.114 163.141L109.262 155.505H111.966ZM133.458 160.953V163.141H124.549V160.953H133.458ZM138.708 155.505L142.367 161.749L146.026 155.505H148.731L143.799 163.141L148.731 170.777H146.026L142.367 164.851L138.708 170.777H136.004L140.856 163.141L136.004 155.505H138.708ZM153.829 155.505L157.488 161.749L161.148 155.505H163.852L158.92 163.141L163.852 170.777H161.148L157.488 164.851L153.829 170.777H151.125L155.977 163.141L151.125 155.505H153.829ZM168.95 155.505L172.61 161.749L176.269 155.505H178.973L174.041 163.141L178.973 170.777H176.269L172.61 164.851L168.95 170.777H166.246L171.098 163.141L166.246 155.505H168.95ZM184.072 155.505L187.731 161.749L191.39 155.505H194.094L189.162 163.141L194.094 170.777H191.39L187.731 164.851L184.072 170.777H181.367L186.219 163.141L181.367 155.505H184.072Z" fill="black"/>
</svg>
