<svg width="249" height="206" viewBox="0 0 249 206" fill="none" xmlns="http://www.w3.org/2000/svg">
<rect width="249" height="206" rx="7" fill="#F0F0F0"/>
<mask id="mask0_144_1133" style="mask-type:luminance" maskUnits="userSpaceOnUse" x="74" y="6" width="101" height="82">
<path d="M74.5 6.72224H174.5V87.2778H74.5V6.72224Z" fill="white"/>
</mask>
<g mask="url(#mask0_144_1133)">
<path d="M83.9974 53.0664C83.4826 53.0664 82.9765 53.0118 82.4929 52.9039C81.9987 52.796 81.5481 52.6197 81.1486 52.3819C80.7454 52.141 80.4151 51.8197 80.1689 51.4307C79.9221 51.038 79.7925 50.5705 79.7825 50.0429V49.9512H82.9665L82.9722 50.0347C82.9896 50.2907 83.1062 50.5109 83.3243 50.7105C83.4851 50.856 83.7524 50.9275 84.1064 50.9275C84.3557 50.9275 84.5819 50.8786 84.8019 50.7769C84.9976 50.6828 85.0924 50.5536 85.0924 50.3772C85.0924 50.1671 85.0058 50.0228 84.8206 49.9312C84.6194 49.8283 84.1519 49.7128 83.4271 49.5861C82.2199 49.3828 81.3319 49.0678 80.7971 48.6481C80.2518 48.2196 79.9719 47.6267 79.9719 46.8832C79.9719 46.3649 80.0984 45.917 80.3484 45.5549C80.5934 45.2004 80.9193 44.9118 81.3132 44.7092C81.7027 44.5115 82.1314 44.3628 82.5958 44.2775C83.5692 44.0956 84.5477 44.1162 85.4071 44.2687C85.8664 44.3497 86.2964 44.4921 86.6916 44.6953C87.0929 44.8967 87.4201 45.1803 87.665 45.5392C87.9099 45.9012 88.0495 46.3455 88.0708 46.8637L88.0789 46.9578H85.0319L85.0282 46.8712C85.0164 46.6447 84.911 46.4634 84.701 46.3179C84.5203 46.166 84.2996 46.0926 84.0466 46.0926C83.7874 46.0926 83.5692 46.1359 83.3997 46.2193C83.2483 46.2934 83.1772 46.4308 83.1772 46.6428C83.1772 46.7238 83.204 46.7847 83.2544 46.833C83.3162 46.8907 83.3984 46.944 83.495 46.993C83.6415 47.0519 84.0054 47.1373 84.5714 47.2433C85.3149 47.3713 85.8814 47.5006 86.2572 47.6311C86.8723 47.8262 87.3721 48.1122 87.7349 48.4856C88.1056 48.8646 88.297 49.3885 88.297 50.041C88.297 50.5994 88.1704 51.09 87.9244 51.4928C87.6775 51.8944 87.3441 52.2137 86.934 52.4371C86.5308 52.6592 86.072 52.8217 85.5698 52.9202C85.0719 53.0162 84.5445 53.0664 83.9974 53.0664Z" fill="black"/>
<path d="M92.3927 52.8584H89.0629V44.3549H92.3927V52.8584ZM92.3927 43.6409H89.0629V41.2316H92.3927V43.6409Z" fill="black"/>
<path d="M102.405 52.8574H99.0754V48.4065C99.0754 47.8676 99.0093 47.4666 98.8822 47.2138C98.7688 46.9772 98.5157 46.8612 98.1269 46.8612C97.9866 46.8612 97.8508 46.8837 97.7131 46.9295C97.5791 46.9741 97.455 47.0482 97.3385 47.1523C97.2188 47.252 97.1285 47.4045 97.0587 47.6022C96.9888 47.8054 96.9515 48.0652 96.9515 48.3738V52.8574H93.6216V44.3539H96.8412V45.2807C97.4513 44.5297 98.3344 44.1463 99.483 44.1463C100.295 44.1463 100.994 44.4017 101.553 44.896C102.117 45.4005 102.405 46.127 102.405 47.0594V52.8574Z" fill="black"/>
<path d="M112.486 47.0363C112.341 46.5031 112.114 46.0143 111.822 45.5814C111.521 45.144 111.139 44.7921 110.691 44.5367C110.236 44.2782 109.717 44.1477 109.141 44.1477C108.763 44.1477 108.434 44.1841 108.165 44.2481C107.893 44.3121 107.664 44.4031 107.477 44.5128C107.298 44.6239 107.148 44.7394 107.033 44.8536C106.954 44.9358 106.866 45.0343 106.775 45.1453V44.3548H103.552V55.5518H106.885V52.0745C107.12 52.3588 107.413 52.5897 107.755 52.7616C108.165 52.9643 108.615 53.0672 109.094 53.0672C109.765 53.0672 110.346 52.9354 110.816 52.6794C111.29 52.4215 111.669 52.0727 111.949 51.6385C112.225 51.2081 112.425 50.7338 112.535 50.2218C112.648 49.7136 112.705 49.1828 112.705 48.6482C112.705 48.1068 112.63 47.5665 112.486 47.0363ZM109.481 49.3942C109.439 49.6408 109.364 49.8685 109.259 50.0693C109.151 50.2758 108.994 50.4433 108.795 50.5707C108.596 50.6955 108.351 50.7583 108.073 50.7583C107.795 50.7583 107.55 50.6955 107.35 50.5707C107.153 50.4433 106.995 50.2726 106.886 50.0599C106.785 49.8566 106.708 49.6301 106.664 49.3854C106.622 49.1495 106.598 48.8866 106.598 48.6162C106.598 48.3314 106.622 48.0628 106.664 47.8213C106.708 47.5703 106.785 47.3438 106.886 47.1462C106.995 46.941 107.153 46.7723 107.35 46.6468C107.549 46.5193 107.792 46.4573 108.073 46.4573C108.355 46.4573 108.596 46.5193 108.795 46.6468C108.996 46.7723 109.151 46.9435 109.261 47.1549C109.364 47.3613 109.439 47.5885 109.481 47.8288C109.525 48.0659 109.55 48.3288 109.55 48.6162C109.55 48.8898 109.525 49.1508 109.481 49.3942Z" fill="black"/>
<path d="M122.383 49.3188C122.383 47.6468 121.989 46.3555 121.212 45.4752C120.431 44.595 119.216 44.147 117.59 44.147C116.944 44.147 116.341 44.2625 115.787 44.4921C115.239 44.7186 114.757 45.0455 114.365 45.4577C113.968 45.8692 113.662 46.353 113.448 46.897C113.243 47.4397 113.134 48.0232 113.134 48.6306C113.134 49.3245 113.252 49.9544 113.486 50.5034C113.717 51.0524 114.054 51.5249 114.481 51.9076C114.907 52.2859 115.416 52.5764 115.994 52.7716C116.568 52.9673 117.195 53.0664 117.865 53.0664C118.861 53.0664 119.76 52.8387 120.544 52.3901C121.329 51.9383 121.886 51.2613 122.2 50.3773L122.243 50.2556H119.123L119.097 50.2977C118.986 50.4758 118.82 50.6082 118.596 50.701C118.36 50.7996 118.113 50.8497 117.846 50.8497C117.395 50.8497 117.033 50.7098 116.775 50.4363C116.533 50.1765 116.388 49.8346 116.335 49.4105H122.383V49.3188ZM119.354 47.7603H116.148L116.166 47.6512C116.323 46.6781 116.898 46.1823 117.876 46.1823C118.302 46.1823 118.661 46.3267 118.937 46.6109C119.215 46.8957 119.354 47.2515 119.354 47.6707V47.7603Z" fill="black"/>
<path d="M138.811 53.5801H137.937C137.763 53.5801 137.618 53.4307 137.618 53.2444V46.7299C137.618 44.6557 137.236 43.3726 135.341 43.3726C133.703 43.3726 132.391 44.9373 131.992 46.4099C131.858 46.8667 131.794 47.3648 131.794 47.9797V53.2444C131.794 53.4307 131.652 53.5801 131.475 53.5801H130.603C130.423 53.5801 130.281 53.4307 130.281 53.2444V46.7299C130.281 44.6029 129.916 43.3726 128.064 43.3726C126.35 43.3726 125.021 44.9976 124.592 46.6032C124.488 46.9821 124.437 47.432 124.437 47.9797V53.2444C124.437 53.4307 124.292 53.5801 124.116 53.5801H123.242C123.065 53.5801 122.922 53.4307 122.922 53.2444V42.4577C122.922 42.2733 123.065 42.1227 123.242 42.1227H124.116C124.292 42.1227 124.437 42.2733 124.437 42.4577V43.8701C125.33 42.678 126.787 41.8642 128.064 41.8642C129.916 41.8642 131.043 42.6297 131.496 44.2077C132.191 43.0883 133.568 41.8642 135.341 41.8642C138.743 41.8642 139.135 44.4549 139.135 46.4062V53.2444C139.135 53.4307 138.989 53.5801 138.811 53.5801Z" fill="black"/>
<path d="M145.899 41.8639C142.701 41.8639 140.194 44.4639 140.194 47.7868C140.194 51.1804 142.701 53.8389 145.899 53.8389C149.099 53.8389 151.603 51.1804 151.603 47.7868C151.603 44.4639 149.099 41.8639 145.899 41.8639ZM145.899 52.4692C143.476 52.4692 141.575 50.4113 141.575 47.7868C141.575 45.2313 143.476 43.2323 145.899 43.2323C148.327 43.2323 150.222 45.2313 150.222 47.7868C150.222 50.4113 148.327 52.4692 145.899 52.4692Z" fill="black"/>
<path d="M146.337 40.8691H145.423C145.305 40.8691 145.201 40.8051 145.141 40.6985C145.086 40.5936 145.087 40.4676 145.145 40.3641L146.541 37.9673C146.597 37.8694 146.703 37.8073 146.813 37.8073H147.979C148.099 37.8073 148.21 37.877 148.268 37.9881C148.321 38.1003 148.311 38.2327 148.238 38.335L146.597 40.7292C146.536 40.8171 146.44 40.8691 146.337 40.8691Z" fill="black"/>
<path d="M156.605 53.5801H155.773C155.64 53.5801 155.523 53.4967 155.474 53.3699L151.38 42.5807C151.34 42.4759 151.351 42.3599 151.412 42.2677C151.47 42.1779 151.571 42.1227 151.678 42.1227H152.614C152.746 42.1227 152.863 42.2068 152.913 42.3361L156.111 50.7937C156.138 50.8647 156.164 50.9374 156.188 51.0108C156.212 50.9392 156.239 50.869 156.261 50.7993L159.465 42.3361C159.511 42.2068 159.63 42.1227 159.763 42.1227H160.677C160.783 42.1227 160.883 42.1779 160.946 42.2677C161.005 42.3599 161.014 42.4759 160.978 42.5788L156.901 53.3699C156.852 53.4967 156.735 53.5801 156.605 53.5801Z" fill="black"/>
<path d="M162.796 40.0498H161.76C161.581 40.0498 161.437 39.9005 161.437 39.7166V38.14C161.437 37.958 161.581 37.8086 161.76 37.8086H162.796C162.975 37.8086 163.12 37.958 163.12 38.14V39.7166C163.12 39.9005 162.975 40.0498 162.796 40.0498Z" fill="black"/>
<path d="M162.716 53.5801H161.845C161.665 53.5801 161.518 53.4307 161.518 53.2444V42.4577C161.518 42.2733 161.665 42.1227 161.845 42.1227H162.716C162.891 42.1227 163.037 42.2733 163.037 42.4577V53.2444C163.037 53.4307 162.891 53.5801 162.716 53.5801Z" fill="black"/>
<path d="M167.264 53.6641C166.713 53.6641 164.908 53.4783 164.908 51.0646V38.1385C164.908 37.9566 165.052 37.8072 165.229 37.8072H166.103C166.278 37.8072 166.422 37.9566 166.422 38.1385V50.7861C166.422 52.1345 167.059 52.1345 167.33 52.1345C167.466 52.1345 167.593 52.1169 167.593 52.1169C167.699 52.1024 167.781 52.1345 167.853 52.1953C167.921 52.2593 167.963 52.3502 167.963 52.4481V53.2882C167.963 53.4464 167.858 53.5806 167.713 53.6151C167.655 53.6258 167.464 53.6641 167.264 53.6641Z" fill="black"/>
<path d="M97.2972 41.6294C99.7402 36.6671 102.459 31.7306 104.952 27.7214C106.13 25.8291 107.368 23.9086 108.631 22.0125C109.502 20.7118 110.236 19.6326 110.789 18.8446C108.063 22.042 101.028 30.5993 94.7121 40.783V41.5986H96.9513C97.0647 41.5986 97.1788 41.6081 97.2972 41.6294Z" fill="#225AA8"/>
<path d="M145.353 56.1948C144.413 58.559 143.476 60.7643 142.566 62.747C141.684 64.6795 140.741 66.6532 139.765 68.6215C139.122 69.9203 138.568 71.007 138.147 71.8145C139.863 69.1693 143.566 63.2565 147.328 55.9519C146.706 56.1126 146.057 56.1966 145.405 56.1966L145.353 56.1948Z" fill="black"/>
<path d="M145.405 56.0144L145.238 56.0126L145.218 56.0665C144.267 58.4519 143.323 60.6724 142.409 62.6676C141.527 64.6007 140.585 66.5745 139.611 68.5396C138.166 71.4558 137.159 73.3011 137.156 73.3211L137.298 73.4141C137.349 73.3426 142.423 65.8888 147.575 55.8512L147.673 55.6674L147.478 55.7239C146.807 55.9171 146.111 56.0144 145.405 56.0144Z" fill="#225AA8"/>
<path d="M156.276 14.6264L156.234 14.5887C156.135 14.505 156.032 14.4263 155.927 14.35C154.961 13.6477 153.736 13.2626 152.279 13.2017C152.142 13.196 152.004 13.1921 151.863 13.1921H151.863C150.692 13.1921 149.363 13.3907 147.893 13.7824C146.861 14.0573 145.759 14.4265 144.591 14.8924C144.542 14.9121 144.49 14.9331 144.439 14.9539C139.412 16.9706 126.796 22.9213 108.959 41.5729C108.964 41.5733 108.971 41.5736 108.977 41.574C108.751 41.8077 108.525 42.0418 108.298 42.2793C108.399 42.2693 108.499 42.263 108.597 42.2599C108.949 41.9606 109.325 41.6425 109.728 41.3025C111.343 39.9447 112.985 38.6052 114.619 37.3284C114.684 37.2775 114.749 37.2258 114.814 37.1746C115.382 36.7245 115.97 36.2608 116.572 35.783C119.2 33.6935 122.027 31.4485 124.956 29.4458C127.287 27.8526 129.683 26.4126 132.098 25.327C135.682 23.717 137.667 23.0105 138.844 22.6809C139.599 22.4695 140.022 22.4126 140.319 22.3731C140.381 22.3641 140.437 22.3565 140.489 22.3486C140.542 22.3405 140.591 22.332 140.637 22.321C140.662 22.3157 140.687 22.3121 140.711 22.307C141.279 22.1878 141.858 22.1246 142.433 22.1189C142.462 22.1186 142.49 22.1165 142.519 22.1165C143.877 22.1165 145.184 22.4388 146.369 23.0205C148.669 24.1504 150.503 26.2598 151.342 28.8886C151.454 29.2385 151.549 29.5965 151.625 29.9637C151.758 30.6301 151.837 31.2677 151.868 31.9757C151.888 32.4501 151.887 32.9559 151.864 33.5243C151.748 35.6826 151.394 37.8905 150.788 40.271C150.788 40.271 150.788 40.271 150.788 40.2709C150.89 40.2545 150.987 40.2467 151.085 40.2443C151.103 40.2439 151.12 40.2421 151.138 40.2421H152.066C152.123 40.2421 152.18 40.245 152.237 40.2491C152.865 40.2952 153.446 40.5924 153.859 41.074C153.895 41.1152 153.929 41.1575 153.962 41.2015C153.962 41.2014 153.962 41.2014 153.962 41.2013C153.962 41.2014 153.962 41.2014 153.962 41.2015C155.891 36.081 157.239 31.3277 157.971 27.0707C159.027 20.9433 158.453 16.7559 156.276 14.6264Z" fill="#225AA8"/>
<path d="M134.728 55.8081C133.251 56.7398 132.879 56.9382 131.405 57.8133C130.812 58.1672 130.201 58.5342 129.576 58.9095C124.255 62.0955 117.639 66.0658 111.394 67.9869C104.72 70.0399 103.064 70.1052 102.27 70.1409C102.148 70.1447 102.046 70.1491 101.948 70.1597C101.632 70.1912 101.308 70.2067 100.992 70.2067C95.9666 70.2067 91.8078 66.3287 91.3161 61.1839C91.2033 60.0287 91.25 58.9716 91.4713 57.5455C91.5592 57.0272 91.6701 56.5002 91.7897 55.9712V55.8251H86.5945L86.5764 55.9712C85.4609 58.5537 84.5429 61.0421 83.8468 63.3779C81.9989 69.5725 82.1179 73.9833 84.1958 76.4854L84.1926 76.4898L84.3428 76.651L84.3472 76.6486C85.7014 77.9874 87.735 78.667 90.4043 78.667C92.2572 78.667 94.4528 78.3376 96.9226 77.6894C111.696 73.8145 127.849 62.3709 136.301 55.8081H134.728Z" fill="#225AA8"/>
</g>
<path d="M62.073 109.005C61.9537 107.998 61.4698 107.215 60.6213 106.659C59.7728 106.102 58.7321 105.823 57.4991 105.823C56.5976 105.823 55.8088 105.969 55.1326 106.261C54.4631 106.552 53.9395 106.953 53.5616 107.464C53.1904 107.974 53.0048 108.554 53.0048 109.204C53.0048 109.748 53.1341 110.215 53.3926 110.606C53.6577 110.99 53.9958 111.312 54.4068 111.57C54.8178 111.822 55.2486 112.031 55.6994 112.197C56.1502 112.356 56.5645 112.485 56.9423 112.585L59.0105 113.141C59.5408 113.281 60.1307 113.473 60.7804 113.718C61.4366 113.963 62.063 114.298 62.6596 114.722C63.2628 115.14 63.76 115.677 64.1511 116.333C64.5422 116.989 64.7377 117.795 64.7377 118.749C64.7377 119.85 64.4494 120.844 63.8727 121.732C63.3026 122.621 62.4674 123.327 61.367 123.85C60.2733 124.374 58.9442 124.636 57.3798 124.636C55.9215 124.636 54.6587 124.4 53.5914 123.93C52.5308 123.459 51.6956 122.803 51.0858 121.961C50.4825 121.119 50.1412 120.141 50.0616 119.028H52.6071C52.6734 119.797 52.9319 120.433 53.3826 120.937C53.84 121.434 54.4167 121.805 55.1127 122.051C55.8154 122.289 56.5711 122.409 57.3798 122.409C58.3211 122.409 59.1663 122.256 59.9153 121.951C60.6644 121.64 61.2576 121.209 61.6951 120.659C62.1326 120.102 62.3514 119.452 62.3514 118.71C62.3514 118.034 62.1625 117.483 61.7846 117.059C61.4068 116.635 60.9096 116.29 60.2931 116.025C59.6767 115.76 59.0105 115.528 58.2946 115.329L55.7889 114.613C54.198 114.156 52.9385 113.503 52.0105 112.654C51.0824 111.806 50.6184 110.695 50.6184 109.323C50.6184 108.183 50.9267 107.189 51.5431 106.34C52.1663 105.485 53.0015 104.822 54.0488 104.352C55.1028 103.874 56.2794 103.636 57.5787 103.636C58.8912 103.636 60.0578 103.871 61.0787 104.342C62.0995 104.806 62.9082 105.442 63.5048 106.251C64.108 107.06 64.4262 107.978 64.4593 109.005H62.073ZM68.4739 124.278V109.005H70.8205V124.278H68.4739ZM69.6671 106.46C69.2097 106.46 68.8153 106.304 68.4838 105.992C68.159 105.681 67.9966 105.306 67.9966 104.869C67.9966 104.431 68.159 104.057 68.4838 103.745C68.8153 103.434 69.2097 103.278 69.6671 103.278C70.1245 103.278 70.5156 103.434 70.8404 103.745C71.1718 104.057 71.3375 104.431 71.3375 104.869C71.3375 105.306 71.1718 105.681 70.8404 105.992C70.5156 106.304 70.1245 106.46 69.6671 106.46ZM77.465 115.09V124.278H75.1184V109.005H77.3855V111.391H77.5843C77.9423 110.616 78.4859 109.993 79.215 109.522C79.9442 109.045 80.8855 108.806 82.0389 108.806C83.073 108.806 83.9778 109.018 84.7534 109.443C85.5289 109.86 86.1322 110.497 86.563 111.352C86.9939 112.2 87.2093 113.274 87.2093 114.573V124.278H84.8627V114.732C84.8627 113.533 84.5512 112.598 83.9281 111.928C83.305 111.252 82.4499 110.914 81.3627 110.914C80.6137 110.914 79.9442 111.077 79.3542 111.401C78.7709 111.726 78.3102 112.2 77.9721 112.823C77.6341 113.446 77.465 114.202 77.465 115.09ZM91.4973 130.005V109.005H93.7644V111.431H94.0428C94.2151 111.166 94.4538 110.828 94.7587 110.417C95.0703 109.999 95.5144 109.628 96.0911 109.303C96.6744 108.972 97.4632 108.806 98.4576 108.806C99.7435 108.806 100.877 109.128 101.858 109.771C102.839 110.414 103.605 111.325 104.155 112.505C104.705 113.685 104.98 115.077 104.98 116.681C104.98 118.299 104.705 119.701 104.155 120.887C103.605 122.067 102.843 122.982 101.868 123.632C100.894 124.275 99.7701 124.596 98.4973 124.596C97.5163 124.596 96.7308 124.434 96.1408 124.109C95.5508 123.777 95.0968 123.403 94.7786 122.985C94.4604 122.561 94.2151 122.21 94.0428 121.931H93.8439V130.005H91.4973ZM93.8042 116.641C93.8042 117.795 93.9732 118.812 94.3113 119.694C94.6493 120.569 95.1432 121.255 95.7928 121.752C96.4424 122.243 97.2379 122.488 98.1792 122.488C99.1602 122.488 99.9789 122.23 100.635 121.712C101.298 121.189 101.795 120.486 102.127 119.605C102.465 118.716 102.634 117.729 102.634 116.641C102.634 115.568 102.468 114.6 102.137 113.738C101.812 112.87 101.318 112.184 100.655 111.68C99.9988 111.169 99.1735 110.914 98.1792 110.914C97.2246 110.914 96.4225 111.156 95.7729 111.64C95.1233 112.117 94.6328 112.787 94.3013 113.649C93.9699 114.504 93.8042 115.501 93.8042 116.641ZM114.963 124.596C113.492 124.596 112.222 124.271 111.155 123.622C110.094 122.965 109.276 122.051 108.699 120.877C108.129 119.697 107.844 118.325 107.844 116.761C107.844 115.196 108.129 113.818 108.699 112.624C109.276 111.425 110.078 110.49 111.105 109.82C112.139 109.144 113.346 108.806 114.725 108.806C115.52 108.806 116.306 108.939 117.081 109.204C117.857 109.469 118.563 109.9 119.199 110.497C119.835 111.087 120.343 111.869 120.72 112.843C121.098 113.818 121.287 115.017 121.287 116.443V117.437H109.514V115.409H118.901C118.901 114.547 118.728 113.778 118.384 113.102C118.046 112.426 117.562 111.892 116.932 111.501C116.309 111.11 115.573 110.914 114.725 110.914C113.79 110.914 112.981 111.146 112.298 111.61C111.622 112.068 111.102 112.664 110.737 113.4C110.373 114.136 110.191 114.925 110.191 115.766V117.119C110.191 118.272 110.389 119.25 110.787 120.052C111.191 120.847 111.752 121.454 112.468 121.872C113.183 122.283 114.015 122.488 114.963 122.488C115.58 122.488 116.137 122.402 116.634 122.23C117.137 122.051 117.572 121.785 117.936 121.434C118.301 121.076 118.583 120.632 118.781 120.102L121.048 120.738C120.81 121.507 120.409 122.183 119.845 122.766C119.282 123.343 118.586 123.794 117.757 124.119C116.929 124.437 115.997 124.596 114.963 124.596ZM133.05 103.914H135.993L142.914 120.818H143.152L150.073 103.914H153.016V124.278H150.709V108.806H150.51L144.146 124.278H141.919L135.556 108.806H135.357V124.278H133.05V103.914ZM163.846 124.596C162.468 124.596 161.258 124.268 160.217 123.612C159.183 122.955 158.374 122.037 157.791 120.857C157.214 119.677 156.926 118.299 156.926 116.721C156.926 115.13 157.214 113.741 157.791 112.555C158.374 111.368 159.183 110.447 160.217 109.791C161.258 109.134 162.468 108.806 163.846 108.806C165.225 108.806 166.432 109.134 167.466 109.791C168.506 110.447 169.315 111.368 169.892 112.555C170.475 113.741 170.767 115.13 170.767 116.721C170.767 118.299 170.475 119.677 169.892 120.857C169.315 122.037 168.506 122.955 167.466 123.612C166.432 124.268 165.225 124.596 163.846 124.596ZM163.846 122.488C164.894 122.488 165.756 122.22 166.432 121.683C167.108 121.146 167.608 120.44 167.933 119.565C168.258 118.69 168.42 117.742 168.42 116.721C168.42 115.7 168.258 114.749 167.933 113.867C167.608 112.986 167.108 112.273 166.432 111.73C165.756 111.186 164.894 110.914 163.846 110.914C162.799 110.914 161.937 111.186 161.261 111.73C160.585 112.273 160.085 112.986 159.76 113.867C159.435 114.749 159.273 115.7 159.273 116.721C159.273 117.742 159.435 118.69 159.76 119.565C160.085 120.44 160.585 121.146 161.261 121.683C161.937 122.22 162.799 122.488 163.846 122.488ZM162.773 106.937L165.199 102.323H167.943L164.841 106.937H162.773ZM186.291 109.005L180.643 124.278H178.257L172.609 109.005H175.154L179.37 121.176H179.529L183.745 109.005H186.291ZM189.388 124.278V109.005H191.735V124.278H189.388ZM190.581 106.46C190.124 106.46 189.729 106.304 189.398 105.992C189.073 105.681 188.911 105.306 188.911 104.869C188.911 104.431 189.073 104.057 189.398 103.745C189.729 103.434 190.124 103.278 190.581 103.278C191.039 103.278 191.43 103.434 191.754 103.745C192.086 104.057 192.252 104.431 192.252 104.869C192.252 105.306 192.086 105.681 191.754 105.992C191.43 106.304 191.039 106.46 190.581 106.46ZM198.379 103.914V124.278H196.032V103.914H198.379ZM54.8381 158.278L63.946 140.261V140.102H53.446V137.914H66.4915V140.221L57.4233 158.278H54.8381ZM76.4023 158.556C74.9042 158.556 73.6282 158.149 72.5742 157.333C71.5202 156.511 70.7148 155.321 70.158 153.764C69.6012 152.199 69.3228 150.31 69.3228 148.096C69.3228 145.895 69.6012 144.016 70.158 142.458C70.7215 140.894 71.5302 139.701 72.5842 138.879C73.6448 138.05 74.9175 137.636 76.4023 137.636C77.8872 137.636 79.1566 138.05 80.2106 138.879C81.2712 139.701 82.0799 140.894 82.6367 142.458C83.2002 144.016 83.4819 145.895 83.4819 148.096C83.4819 150.31 83.2035 152.199 82.6467 153.764C82.0898 155.321 81.2844 156.511 80.2305 157.333C79.1765 158.149 77.9004 158.556 76.4023 158.556ZM76.4023 156.369C77.8872 156.369 79.0406 155.653 79.8626 154.221C80.6845 152.789 81.0955 150.748 81.0955 148.096C81.0955 146.333 80.9066 144.831 80.5288 143.592C80.1576 142.352 79.6206 141.408 78.918 140.758C78.2219 140.108 77.3834 139.784 76.4023 139.784C74.9308 139.784 73.7807 140.509 72.9521 141.961C72.1235 143.406 71.7092 145.451 71.7092 148.096C71.7092 149.859 71.8948 151.357 72.266 152.59C72.6372 153.823 73.1708 154.761 73.8668 155.404C74.5695 156.047 75.4147 156.369 76.4023 156.369ZM93.6239 158.556C92.4573 158.556 91.4066 158.324 90.4719 157.86C89.5373 157.396 88.7882 156.76 88.2248 155.951C87.6613 155.142 87.3531 154.221 87.3001 153.187H89.6864C89.7792 154.108 90.1969 154.871 90.9393 155.474C91.6883 156.07 92.5832 156.369 93.6239 156.369C94.4592 156.369 95.2016 156.173 95.8512 155.782C96.5075 155.391 97.0212 154.854 97.3924 154.171C97.7702 153.482 97.9592 152.703 97.9592 151.835C97.9592 150.946 97.7636 150.154 97.3725 149.458C96.988 148.756 96.4577 148.202 95.7816 147.798C95.1055 147.393 94.3332 147.188 93.4648 147.181C92.8417 147.175 92.2021 147.271 91.5458 147.47C90.8896 147.662 90.3493 147.91 89.9251 148.215L87.6183 147.937L88.8512 137.914H99.4308V140.102H90.9194L90.2035 146.107H90.3228C90.7404 145.776 91.2641 145.501 91.8938 145.282C92.5236 145.063 93.1798 144.954 93.8626 144.954C95.1088 144.954 96.2191 145.252 97.1935 145.849C98.1746 146.439 98.9435 147.248 99.5004 148.275C100.064 149.302 100.346 150.476 100.346 151.795C100.346 153.094 100.054 154.254 99.4705 155.275C98.8938 156.289 98.0984 157.091 97.0842 157.681C96.07 158.265 94.9165 158.556 93.6239 158.556ZM111.176 158.556C109.864 158.556 108.694 158.331 107.666 157.88C106.645 157.429 105.833 156.803 105.23 156.001C104.634 155.192 104.309 154.254 104.256 153.187H106.761C106.814 153.843 107.04 154.41 107.438 154.887C107.835 155.358 108.356 155.722 108.999 155.981C109.642 156.239 110.354 156.369 111.136 156.369C112.011 156.369 112.787 156.216 113.463 155.911C114.139 155.606 114.67 155.182 115.054 154.639C115.438 154.095 115.631 153.465 115.631 152.749C115.631 152 115.445 151.341 115.074 150.771C114.703 150.194 114.159 149.743 113.443 149.418C112.727 149.094 111.852 148.931 110.818 148.931H109.188V146.744H110.818C111.627 146.744 112.336 146.598 112.946 146.306C113.563 146.015 114.043 145.604 114.388 145.073C114.739 144.543 114.915 143.92 114.915 143.204C114.915 142.515 114.762 141.915 114.457 141.404C114.152 140.894 113.722 140.496 113.165 140.211C112.615 139.926 111.965 139.784 111.216 139.784C110.513 139.784 109.85 139.913 109.227 140.171C108.611 140.423 108.107 140.791 107.716 141.275C107.325 141.752 107.113 142.329 107.08 143.005H104.693C104.733 141.938 105.054 141.003 105.658 140.201C106.261 139.392 107.05 138.763 108.024 138.312C109.005 137.861 110.082 137.636 111.256 137.636C112.515 137.636 113.596 137.891 114.497 138.401C115.399 138.905 116.091 139.571 116.575 140.4C117.059 141.229 117.301 142.123 117.301 143.085C117.301 144.231 117 145.209 116.396 146.018C115.8 146.827 114.988 147.387 113.96 147.698V147.857C115.246 148.069 116.25 148.616 116.973 149.498C117.696 150.373 118.057 151.457 118.057 152.749C118.057 153.856 117.755 154.851 117.152 155.732C116.555 156.607 115.74 157.297 114.706 157.801C113.672 158.304 112.495 158.556 111.176 158.556ZM130.913 147.002V149.19H122.004V147.002H130.913ZM142.162 137.914V158.278H139.696V140.499H139.576L134.605 143.801V141.295L139.696 137.914H142.162ZM147.541 154.102V152.073L156.49 137.914H157.961V141.056H156.967L150.206 151.755V151.914H162.257V154.102H147.541ZM157.126 158.278V153.485V152.541V137.914H159.473V158.278H157.126ZM166.619 158.278L175.727 140.261V140.102H165.227V137.914H178.273V140.221L169.205 158.278H166.619ZM188.303 158.556C187.468 158.543 186.632 158.384 185.797 158.079C184.962 157.774 184.2 157.26 183.51 156.538C182.821 155.809 182.267 154.824 181.85 153.585C181.432 152.338 181.223 150.774 181.223 148.891C181.223 147.088 181.392 145.491 181.73 144.099C182.069 142.7 182.559 141.524 183.202 140.569C183.845 139.608 184.621 138.879 185.529 138.382C186.444 137.884 187.474 137.636 188.621 137.636C189.761 137.636 190.775 137.864 191.664 138.322C192.559 138.773 193.288 139.402 193.851 140.211C194.415 141.02 194.779 141.951 194.945 143.005H192.519C192.293 142.09 191.856 141.331 191.206 140.728C190.557 140.125 189.695 139.823 188.621 139.823C187.043 139.823 185.801 140.509 184.892 141.882C183.991 143.254 183.537 145.179 183.53 147.659H183.689C184.06 147.095 184.501 146.614 185.012 146.217C185.529 145.812 186.099 145.501 186.722 145.282C187.345 145.063 188.005 144.954 188.701 144.954C189.867 144.954 190.935 145.246 191.902 145.829C192.87 146.406 193.646 147.204 194.229 148.225C194.812 149.239 195.104 150.403 195.104 151.715C195.104 152.975 194.822 154.128 194.259 155.176C193.695 156.216 192.903 157.045 191.882 157.661C190.868 158.271 189.675 158.569 188.303 158.556ZM188.303 156.369C189.138 156.369 189.887 156.16 190.55 155.742C191.22 155.325 191.747 154.765 192.131 154.062C192.522 153.359 192.718 152.577 192.718 151.715C192.718 150.873 192.529 150.108 192.151 149.418C191.78 148.722 191.266 148.169 190.61 147.758C189.96 147.347 189.218 147.141 188.382 147.141C187.753 147.141 187.166 147.267 186.623 147.519C186.079 147.765 185.602 148.103 185.191 148.534C184.786 148.964 184.468 149.458 184.236 150.015C184.004 150.565 183.888 151.145 183.888 151.755C183.888 152.564 184.077 153.319 184.455 154.022C184.839 154.725 185.363 155.292 186.026 155.722C186.695 156.153 187.454 156.369 188.303 156.369Z" fill="black"/>
</svg>
