<svg width="499" height="259" viewBox="0 0 499 259" fill="none" xmlns="http://www.w3.org/2000/svg">
<rect width="499" height="259" rx="7" fill="#F0F0F0"/>
<path fill-rule="evenodd" clip-rule="evenodd" d="M246.458 11.3099C248.443 10.717 250.557 10.717 252.542 11.3099C253.79 11.6827 254.873 12.3373 255.991 13.1855C257.072 14.0048 258.31 15.1036 259.832 16.4551L259.899 16.5147L288.753 42.1325C289.443 42.7452 289.683 43.7207 289.355 44.5834C289.027 45.4461 288.201 46.0165 287.278 46.0165H211.722C210.799 46.0165 209.973 45.4461 209.645 44.5834C209.317 43.7207 209.557 42.7452 210.247 42.1325L239.101 16.5148L239.167 16.4558C240.69 15.1039 241.928 14.005 243.009 13.1855C244.127 12.3373 245.21 11.6827 246.458 11.3099ZM247.73 15.5684C247.196 15.7279 246.599 16.0404 245.694 16.7269C244.766 17.4303 243.656 18.4138 242.052 19.8383C242.052 19.8383 242.052 19.8383 242.052 19.8383L217.572 41.572H281.428L256.949 19.8384C255.344 18.4139 254.234 17.4303 253.306 16.727C252.401 16.0404 251.804 15.7279 251.27 15.5684M247.73 15.5684C248.885 15.2235 250.115 15.2235 251.27 15.5684H247.73ZM251.176 29.7228C252.001 30.6312 251.934 32.0366 251.025 32.8618L250.994 32.8901C250.086 33.7153 248.68 33.6479 247.855 32.7395C247.03 31.8311 247.097 30.4257 248.006 29.6004L248.037 29.5722C248.945 28.7469 250.351 28.8143 251.176 29.7228ZM224.315 54.1498C225.542 54.1498 226.537 55.1447 226.537 56.372V75.1127H238.883V56.372C238.883 55.1447 239.878 54.1498 241.105 54.1498C242.332 54.1498 243.327 55.1447 243.327 56.372V75.1127H255.673V56.372C255.673 55.1447 256.668 54.1498 257.895 54.1498C259.122 54.1498 260.117 55.1447 260.117 56.372V75.1127H272.463V56.372C272.463 55.1447 273.458 54.1498 274.685 54.1498C275.912 54.1498 276.907 55.1447 276.907 56.372V75.1127H283.08C284.307 75.1127 285.302 76.1076 285.302 77.3349C285.302 78.5622 284.307 79.5571 283.08 79.5571H215.92C214.693 79.5571 213.698 78.5622 213.698 77.3349C213.698 76.1076 214.693 75.1127 215.92 75.1127H222.093V56.372C222.093 55.1447 223.088 54.1498 224.315 54.1498ZM209.5 89.9127C209.5 88.6854 210.495 87.6905 211.722 87.6905H287.278C288.505 87.6905 289.5 88.6854 289.5 89.9127C289.5 91.14 288.505 92.1349 287.278 92.1349H211.722C210.495 92.1349 209.5 91.14 209.5 89.9127Z" fill="#3F8EFC"/>
<path d="M95.1507 111.863V108.771H111.398V111.863H105.104V129.135H101.445V111.863H95.1507ZM112.785 129.135V113.862H116.275V116.407H116.434C116.713 115.526 117.19 114.846 117.866 114.369C118.549 113.885 119.328 113.643 120.203 113.643C120.401 113.643 120.624 113.653 120.869 113.673C121.121 113.686 121.329 113.71 121.495 113.743V117.054C121.343 117.001 121.101 116.954 120.769 116.915C120.445 116.868 120.13 116.845 119.825 116.845C119.169 116.845 118.579 116.988 118.055 117.273C117.538 117.551 117.13 117.939 116.832 118.436C116.534 118.933 116.384 119.506 116.384 120.156V129.135H112.785ZM128.008 129.443C127.04 129.443 126.169 129.271 125.393 128.926C124.624 128.575 124.014 128.058 123.563 127.375C123.119 126.692 122.897 125.85 122.897 124.849C122.897 123.988 123.056 123.275 123.374 122.711C123.693 122.148 124.127 121.697 124.677 121.359C125.227 121.021 125.847 120.766 126.536 120.594C127.232 120.415 127.952 120.285 128.694 120.206C129.589 120.113 130.315 120.03 130.872 119.957C131.428 119.878 131.833 119.758 132.085 119.599C132.343 119.434 132.472 119.178 132.472 118.834V118.774C132.472 118.025 132.25 117.445 131.806 117.034C131.362 116.623 130.722 116.417 129.887 116.417C129.006 116.417 128.306 116.61 127.789 116.994C127.279 117.379 126.934 117.833 126.755 118.356L123.394 117.879C123.66 116.951 124.097 116.175 124.707 115.552C125.317 114.923 126.062 114.452 126.944 114.14C127.826 113.822 128.8 113.663 129.867 113.663C130.603 113.663 131.336 113.749 132.065 113.922C132.794 114.094 133.46 114.379 134.063 114.777C134.667 115.168 135.151 115.702 135.515 116.378C135.886 117.054 136.072 117.899 136.072 118.913V129.135H132.612V127.037H132.492C132.274 127.461 131.965 127.859 131.568 128.23C131.177 128.595 130.683 128.89 130.086 129.115C129.496 129.334 128.803 129.443 128.008 129.443ZM128.943 126.798C129.665 126.798 130.292 126.656 130.822 126.371C131.352 126.079 131.76 125.694 132.045 125.217C132.337 124.74 132.482 124.22 132.482 123.656V121.856C132.37 121.949 132.177 122.035 131.906 122.115C131.641 122.194 131.342 122.264 131.011 122.324C130.679 122.383 130.351 122.436 130.026 122.483C129.702 122.529 129.42 122.569 129.181 122.602C128.644 122.675 128.164 122.794 127.74 122.96C127.315 123.126 126.981 123.358 126.735 123.656C126.49 123.948 126.367 124.326 126.367 124.79C126.367 125.452 126.609 125.953 127.093 126.291C127.577 126.629 128.194 126.798 128.943 126.798ZM143.291 120.186V129.135H139.691V113.862H143.132V116.457H143.311C143.662 115.602 144.222 114.923 144.991 114.419C145.767 113.915 146.724 113.663 147.865 113.663C148.919 113.663 149.837 113.889 150.619 114.339C151.408 114.79 152.017 115.443 152.448 116.298C152.886 117.153 153.101 118.191 153.095 119.41V129.135H149.495V119.967C149.495 118.946 149.23 118.148 148.7 117.571C148.176 116.994 147.45 116.706 146.522 116.706C145.892 116.706 145.332 116.845 144.842 117.123C144.358 117.395 143.977 117.79 143.698 118.307C143.427 118.824 143.291 119.45 143.291 120.186ZM168.825 117.899L165.544 118.257C165.451 117.925 165.288 117.614 165.056 117.322C164.831 117.031 164.526 116.795 164.142 116.616C163.757 116.437 163.286 116.348 162.73 116.348C161.981 116.348 161.351 116.51 160.84 116.835C160.337 117.16 160.088 117.581 160.095 118.098C160.088 118.542 160.25 118.903 160.582 119.182C160.92 119.46 161.477 119.689 162.252 119.868L164.857 120.425C166.302 120.736 167.376 121.23 168.079 121.906C168.788 122.582 169.146 123.467 169.153 124.561C169.146 125.522 168.865 126.371 168.308 127.106C167.758 127.836 166.992 128.406 166.011 128.817C165.03 129.228 163.903 129.433 162.63 129.433C160.761 129.433 159.256 129.042 158.116 128.26C156.976 127.471 156.296 126.374 156.078 124.969L159.588 124.631C159.747 125.32 160.085 125.84 160.602 126.192C161.119 126.543 161.792 126.719 162.62 126.719C163.475 126.719 164.161 126.543 164.678 126.192C165.202 125.84 165.464 125.406 165.464 124.889C165.464 124.452 165.295 124.09 164.957 123.805C164.625 123.52 164.108 123.301 163.406 123.149L160.801 122.602C159.336 122.297 158.252 121.783 157.549 121.061C156.847 120.332 156.499 119.41 156.505 118.297C156.499 117.355 156.754 116.54 157.271 115.851C157.794 115.155 158.52 114.618 159.448 114.24C160.383 113.855 161.46 113.663 162.68 113.663C164.47 113.663 165.878 114.044 166.906 114.807C167.94 115.569 168.579 116.6 168.825 117.899ZM179.857 113.862V116.646H170.828V113.862H179.857ZM173.085 129.135V112.42C173.085 111.393 173.298 110.538 173.722 109.855C174.153 109.172 174.729 108.662 175.452 108.324C176.174 107.986 176.977 107.817 177.858 107.817C178.481 107.817 179.035 107.866 179.519 107.966C180.003 108.065 180.361 108.155 180.593 108.234L179.877 111.018C179.724 110.972 179.532 110.925 179.3 110.879C179.068 110.826 178.809 110.8 178.524 110.8C177.855 110.8 177.381 110.962 177.102 111.287C176.831 111.605 176.695 112.062 176.695 112.659V129.135H173.085ZM188.863 129.433C187.331 129.433 186.009 129.115 184.895 128.479C183.788 127.836 182.937 126.927 182.34 125.754C181.743 124.574 181.445 123.185 181.445 121.588C181.445 120.017 181.743 118.638 182.34 117.452C182.943 116.258 183.785 115.33 184.866 114.667C185.946 113.998 187.215 113.663 188.674 113.663C189.615 113.663 190.503 113.816 191.339 114.121C192.18 114.419 192.923 114.883 193.566 115.513C194.215 116.142 194.726 116.944 195.097 117.919C195.468 118.887 195.654 120.04 195.654 121.379V122.483H183.135V120.057H192.204C192.197 119.367 192.048 118.754 191.756 118.217C191.465 117.674 191.057 117.246 190.533 116.934C190.016 116.623 189.413 116.467 188.724 116.467C187.988 116.467 187.341 116.646 186.785 117.004C186.228 117.355 185.794 117.819 185.482 118.396C185.177 118.966 185.021 119.593 185.015 120.275V122.393C185.015 123.282 185.177 124.044 185.502 124.68C185.827 125.31 186.281 125.794 186.864 126.132C187.448 126.463 188.13 126.629 188.912 126.629C189.436 126.629 189.91 126.556 190.334 126.41C190.759 126.258 191.126 126.036 191.438 125.744C191.75 125.452 191.985 125.091 192.144 124.66L195.505 125.038C195.293 125.926 194.888 126.702 194.292 127.365C193.702 128.021 192.946 128.532 192.025 128.896C191.103 129.254 190.049 129.433 188.863 129.433ZM198.699 129.135V113.862H202.189V116.407H202.348C202.627 115.526 203.104 114.846 203.78 114.369C204.463 113.885 205.242 113.643 206.117 113.643C206.316 113.643 206.538 113.653 206.783 113.673C207.035 113.686 207.244 113.71 207.409 113.743V117.054C207.257 117.001 207.015 116.954 206.683 116.915C206.359 116.868 206.044 116.845 205.739 116.845C205.083 116.845 204.493 116.988 203.969 117.273C203.452 117.551 203.044 117.939 202.746 118.436C202.448 118.933 202.298 119.506 202.298 120.156V129.135H198.699ZM215.933 129.433C214.402 129.433 213.079 129.115 211.966 128.479C210.859 127.836 210.007 126.927 209.41 125.754C208.814 124.574 208.515 123.185 208.515 121.588C208.515 120.017 208.814 118.638 209.41 117.452C210.014 116.258 210.855 115.33 211.936 114.667C213.016 113.998 214.286 113.663 215.744 113.663C216.685 113.663 217.574 113.816 218.409 114.121C219.251 114.419 219.993 114.883 220.636 115.513C221.286 116.142 221.796 116.944 222.167 117.919C222.539 118.887 222.724 120.04 222.724 121.379V122.483H210.206V120.057H219.274C219.267 119.367 219.118 118.754 218.827 118.217C218.535 117.674 218.127 117.246 217.604 116.934C217.086 116.623 216.483 116.467 215.794 116.467C215.058 116.467 214.412 116.646 213.855 117.004C213.298 117.355 212.864 117.819 212.552 118.396C212.247 118.966 212.092 119.593 212.085 120.275V122.393C212.085 123.282 212.247 124.044 212.572 124.68C212.897 125.31 213.351 125.794 213.934 126.132C214.518 126.463 215.201 126.629 215.983 126.629C216.506 126.629 216.98 126.556 217.405 126.41C217.829 126.258 218.197 126.036 218.508 125.744C218.82 125.452 219.055 125.091 219.214 124.66L222.575 125.038C222.363 125.926 221.959 126.702 221.362 127.365C220.772 128.021 220.016 128.532 219.095 128.896C218.174 129.254 217.12 129.433 215.933 129.433ZM229.369 120.186V129.135H225.769V113.862H229.21V116.457H229.389C229.74 115.602 230.3 114.923 231.069 114.419C231.845 113.915 232.802 113.663 233.943 113.663C234.997 113.663 235.915 113.889 236.697 114.339C237.486 114.79 238.096 115.443 238.526 116.298C238.964 117.153 239.179 118.191 239.173 119.41V129.135H235.573V119.967C235.573 118.946 235.308 118.148 234.778 117.571C234.254 116.994 233.528 116.706 232.6 116.706C231.971 116.706 231.41 116.845 230.92 117.123C230.436 117.395 230.055 117.79 229.776 118.307C229.505 118.824 229.369 119.45 229.369 120.186ZM249.494 129.433C247.969 129.433 246.66 129.098 245.566 128.429C244.479 127.759 243.641 126.835 243.051 125.655C242.467 124.468 242.176 123.103 242.176 121.558C242.176 120.007 242.474 118.638 243.07 117.452C243.667 116.258 244.509 115.33 245.596 114.667C246.69 113.998 247.982 113.663 249.474 113.663C250.713 113.663 251.811 113.892 252.765 114.349C253.726 114.8 254.492 115.44 255.062 116.268C255.632 117.09 255.957 118.051 256.036 119.152H252.596C252.457 118.416 252.125 117.803 251.602 117.312C251.085 116.815 250.392 116.567 249.524 116.567C248.788 116.567 248.142 116.765 247.585 117.163C247.028 117.554 246.594 118.118 246.282 118.854C245.977 119.589 245.825 120.471 245.825 121.498C245.825 122.539 245.977 123.434 246.282 124.183C246.587 124.925 247.015 125.499 247.565 125.903C248.122 126.301 248.775 126.5 249.524 126.5C250.054 126.5 250.528 126.4 250.945 126.202C251.37 125.996 251.724 125.701 252.009 125.317C252.294 124.932 252.49 124.465 252.596 123.915H256.036C255.95 124.995 255.632 125.953 255.082 126.788C254.532 127.617 253.783 128.266 252.835 128.737C251.887 129.201 250.773 129.433 249.494 129.433ZM258.992 129.135V113.862H262.591V129.135H258.992ZM260.802 111.694C260.232 111.694 259.741 111.506 259.33 111.128C258.919 110.743 258.714 110.282 258.714 109.746C258.714 109.202 258.919 108.741 259.33 108.363C259.741 107.979 260.232 107.787 260.802 107.787C261.378 107.787 261.869 107.979 262.273 108.363C262.684 108.741 262.89 109.202 262.89 109.746C262.89 110.282 262.684 110.743 262.273 111.128C261.869 111.506 261.378 111.694 260.802 111.694ZM270.688 129.443C269.72 129.443 268.848 129.271 268.073 128.926C267.304 128.575 266.694 128.058 266.243 127.375C265.799 126.692 265.577 125.85 265.577 124.849C265.577 123.988 265.736 123.275 266.054 122.711C266.372 122.148 266.807 121.697 267.357 121.359C267.907 121.021 268.527 120.766 269.216 120.594C269.912 120.415 270.631 120.285 271.374 120.206C272.269 120.113 272.994 120.03 273.551 119.957C274.108 119.878 274.512 119.758 274.764 119.599C275.023 119.434 275.152 119.178 275.152 118.834V118.774C275.152 118.025 274.93 117.445 274.486 117.034C274.042 116.623 273.402 116.417 272.567 116.417C271.685 116.417 270.986 116.61 270.469 116.994C269.959 117.379 269.614 117.833 269.435 118.356L266.074 117.879C266.339 116.951 266.777 116.175 267.387 115.552C267.996 114.923 268.742 114.452 269.624 114.14C270.505 113.822 271.48 113.663 272.547 113.663C273.283 113.663 274.015 113.749 274.744 113.922C275.474 114.094 276.14 114.379 276.743 114.777C277.346 115.168 277.83 115.702 278.195 116.378C278.566 117.054 278.752 117.899 278.752 118.913V129.135H275.291V127.037H275.172C274.953 127.461 274.645 127.859 274.247 128.23C273.856 128.595 273.362 128.89 272.766 129.115C272.176 129.334 271.483 129.443 270.688 129.443ZM271.622 126.798C272.345 126.798 272.971 126.656 273.502 126.371C274.032 126.079 274.44 125.694 274.725 125.217C275.016 124.74 275.162 124.22 275.162 123.656V121.856C275.049 121.949 274.857 122.035 274.585 122.115C274.32 122.194 274.022 122.264 273.691 122.324C273.359 122.383 273.031 122.436 272.706 122.483C272.381 122.529 272.1 122.569 271.861 122.602C271.324 122.675 270.843 122.794 270.419 122.96C269.995 123.126 269.66 123.358 269.415 123.656C269.17 123.948 269.047 124.326 269.047 124.79C269.047 125.452 269.289 125.953 269.773 126.291C270.257 126.629 270.873 126.798 271.622 126.798ZM289.475 129.135V108.771H293.075V116.388H293.224C293.41 116.016 293.671 115.622 294.009 115.204C294.347 114.78 294.805 114.419 295.382 114.121C295.958 113.816 296.694 113.663 297.589 113.663C298.769 113.663 299.833 113.965 300.781 114.568C301.735 115.165 302.491 116.05 303.048 117.223C303.611 118.389 303.893 119.821 303.893 121.518C303.893 123.195 303.618 124.621 303.068 125.794C302.517 126.967 301.768 127.862 300.82 128.479C299.873 129.095 298.799 129.403 297.599 129.403C296.724 129.403 295.998 129.257 295.421 128.966C294.845 128.674 294.381 128.323 294.029 127.912C293.685 127.494 293.416 127.1 293.224 126.729H293.015V129.135H289.475ZM293.005 121.498C293.005 122.486 293.144 123.351 293.423 124.094C293.708 124.836 294.115 125.416 294.646 125.834C295.183 126.245 295.832 126.45 296.595 126.45C297.39 126.45 298.056 126.238 298.593 125.814C299.13 125.383 299.535 124.796 299.806 124.054C300.085 123.305 300.224 122.453 300.224 121.498C300.224 120.55 300.088 119.709 299.816 118.973C299.544 118.237 299.14 117.66 298.603 117.243C298.066 116.825 297.397 116.616 296.595 116.616C295.826 116.616 295.173 116.818 294.636 117.223C294.099 117.627 293.691 118.194 293.413 118.923C293.141 119.652 293.005 120.511 293.005 121.498ZM311.348 129.443C310.38 129.443 309.508 129.271 308.733 128.926C307.964 128.575 307.354 128.058 306.903 127.375C306.459 126.692 306.237 125.85 306.237 124.849C306.237 123.988 306.396 123.275 306.714 122.711C307.032 122.148 307.467 121.697 308.017 121.359C308.567 121.021 309.187 120.766 309.876 120.594C310.572 120.415 311.291 120.285 312.034 120.206C312.929 120.113 313.655 120.03 314.211 119.957C314.768 119.878 315.173 119.758 315.425 119.599C315.683 119.434 315.812 119.178 315.812 118.834V118.774C315.812 118.025 315.59 117.445 315.146 117.034C314.702 116.623 314.062 116.417 313.227 116.417C312.345 116.417 311.646 116.61 311.129 116.994C310.619 117.379 310.274 117.833 310.095 118.356L306.734 117.879C306.999 116.951 307.437 116.175 308.047 115.552C308.657 114.923 309.402 114.452 310.284 114.14C311.166 113.822 312.14 113.663 313.207 113.663C313.943 113.663 314.675 113.749 315.405 113.922C316.134 114.094 316.8 114.379 317.403 114.777C318.006 115.168 318.49 115.702 318.855 116.378C319.226 117.054 319.412 117.899 319.412 118.913V129.135H315.952V127.037H315.832C315.613 127.461 315.305 127.859 314.907 128.23C314.516 128.595 314.023 128.89 313.426 129.115C312.836 129.334 312.143 129.443 311.348 129.443ZM312.282 126.798C313.005 126.798 313.631 126.656 314.162 126.371C314.692 126.079 315.1 125.694 315.385 125.217C315.676 124.74 315.822 124.22 315.822 123.656V121.856C315.71 121.949 315.517 122.035 315.246 122.115C314.98 122.194 314.682 122.264 314.351 122.324C314.019 122.383 313.691 122.436 313.366 122.483C313.041 122.529 312.76 122.569 312.521 122.602C311.984 122.675 311.504 122.794 311.079 122.96C310.655 123.126 310.32 123.358 310.075 123.656C309.83 123.948 309.707 124.326 309.707 124.79C309.707 125.452 309.949 125.953 310.433 126.291C310.917 126.629 311.533 126.798 312.282 126.798ZM326.631 120.186V129.135H323.031V113.862H326.471V116.457H326.65C327.002 115.602 327.562 114.923 328.331 114.419C329.106 113.915 330.064 113.663 331.204 113.663C332.258 113.663 333.176 113.889 333.959 114.339C334.747 114.79 335.357 115.443 335.788 116.298C336.226 117.153 336.441 118.191 336.434 119.41V129.135H332.835V119.967C332.835 118.946 332.57 118.148 332.04 117.571C331.516 116.994 330.79 116.706 329.862 116.706C329.232 116.706 328.672 116.845 328.182 117.123C327.698 117.395 327.317 117.79 327.038 118.307C326.766 118.824 326.631 119.45 326.631 120.186ZM346.756 129.433C345.231 129.433 343.922 129.098 342.828 128.429C341.741 127.759 340.902 126.835 340.312 125.655C339.729 124.468 339.437 123.103 339.437 121.558C339.437 120.007 339.736 118.638 340.332 117.452C340.929 116.258 341.771 115.33 342.858 114.667C343.952 113.998 345.244 113.663 346.736 113.663C347.975 113.663 349.072 113.892 350.027 114.349C350.988 114.8 351.754 115.44 352.324 116.268C352.894 117.09 353.219 118.051 353.298 119.152H349.858C349.719 118.416 349.387 117.803 348.863 117.312C348.346 116.815 347.654 116.567 346.785 116.567C346.05 116.567 345.403 116.765 344.846 117.163C344.29 117.554 343.855 118.118 343.544 118.854C343.239 119.589 343.086 120.471 343.086 121.498C343.086 122.539 343.239 123.434 343.544 124.183C343.849 124.925 344.276 125.499 344.827 125.903C345.383 126.301 346.036 126.5 346.785 126.5C347.316 126.5 347.79 126.4 348.207 126.202C348.631 125.996 348.986 125.701 349.271 125.317C349.556 124.932 349.752 124.465 349.858 123.915H353.298C353.212 124.995 352.894 125.953 352.344 126.788C351.793 127.617 351.044 128.266 350.096 128.737C349.148 129.201 348.035 129.433 346.756 129.433ZM360.649 129.443C359.681 129.443 358.809 129.271 358.034 128.926C357.265 128.575 356.655 128.058 356.204 127.375C355.76 126.692 355.538 125.85 355.538 124.849C355.538 123.988 355.697 123.275 356.015 122.711C356.333 122.148 356.767 121.697 357.318 121.359C357.868 121.021 358.488 120.766 359.177 120.594C359.873 120.415 360.592 120.285 361.335 120.206C362.23 120.113 362.955 120.03 363.512 119.957C364.069 119.878 364.473 119.758 364.725 119.599C364.984 119.434 365.113 119.178 365.113 118.834V118.774C365.113 118.025 364.891 117.445 364.447 117.034C364.003 116.623 363.363 116.417 362.528 116.417C361.646 116.417 360.947 116.61 360.43 116.994C359.919 117.379 359.575 117.833 359.396 118.356L356.035 117.879C356.3 116.951 356.738 116.175 357.347 115.552C357.957 114.923 358.703 114.452 359.585 114.14C360.466 113.822 361.441 113.663 362.508 113.663C363.244 113.663 363.976 113.749 364.705 113.922C365.435 114.094 366.101 114.379 366.704 114.777C367.307 115.168 367.791 115.702 368.156 116.378C368.527 117.054 368.713 117.899 368.713 118.913V129.135H365.252V127.037H365.133C364.914 127.461 364.606 127.859 364.208 128.23C363.817 128.595 363.323 128.89 362.727 129.115C362.137 129.334 361.444 129.443 360.649 129.443ZM361.583 126.798C362.306 126.798 362.932 126.656 363.463 126.371C363.993 126.079 364.401 125.694 364.686 125.217C364.977 124.74 365.123 124.22 365.123 123.656V121.856C365.01 121.949 364.818 122.035 364.546 122.115C364.281 122.194 363.983 122.264 363.651 122.324C363.32 122.383 362.992 122.436 362.667 122.483C362.342 122.529 362.061 122.569 361.822 122.602C361.285 122.675 360.804 122.794 360.38 122.96C359.956 123.126 359.621 123.358 359.376 123.656C359.131 123.948 359.008 124.326 359.008 124.79C359.008 125.452 359.25 125.953 359.734 126.291C360.218 126.629 360.834 126.798 361.583 126.798ZM372.332 129.135V113.862H375.822V116.407H375.981C376.259 115.526 376.737 114.846 377.413 114.369C378.096 113.885 378.874 113.643 379.749 113.643C379.948 113.643 380.17 113.653 380.416 113.673C380.668 113.686 380.876 113.71 381.042 113.743V117.054C380.89 117.001 380.648 116.954 380.316 116.915C379.991 116.868 379.677 116.845 379.372 116.845C378.715 116.845 378.125 116.988 377.602 117.273C377.085 117.551 376.677 117.939 376.379 118.436C376.08 118.933 375.931 119.506 375.931 120.156V129.135H372.332ZM383.433 129.135V113.862H387.033V129.135H383.433ZM385.243 111.694C384.673 111.694 384.182 111.506 383.771 111.128C383.36 110.743 383.155 110.282 383.155 109.746C383.155 109.202 383.36 108.741 383.771 108.363C384.182 107.979 384.673 107.787 385.243 107.787C385.82 107.787 386.31 107.979 386.715 108.363C387.126 108.741 387.331 109.202 387.331 109.746C387.331 110.282 387.126 110.743 386.715 111.128C386.31 111.506 385.82 111.694 385.243 111.694ZM395.129 129.443C394.161 129.443 393.29 129.271 392.514 128.926C391.745 128.575 391.135 128.058 390.684 127.375C390.24 126.692 390.018 125.85 390.018 124.849C390.018 123.988 390.177 123.275 390.496 122.711C390.814 122.148 391.248 121.697 391.798 121.359C392.348 121.021 392.968 120.766 393.657 120.594C394.354 120.415 395.073 120.285 395.815 120.206C396.71 120.113 397.436 120.03 397.993 119.957C398.55 119.878 398.954 119.758 399.206 119.599C399.464 119.434 399.594 119.178 399.594 118.834V118.774C399.594 118.025 399.372 117.445 398.927 117.034C398.483 116.623 397.844 116.417 397.008 116.417C396.127 116.417 395.427 116.61 394.91 116.994C394.4 117.379 394.055 117.833 393.876 118.356L390.515 117.879C390.781 116.951 391.218 116.175 391.828 115.552C392.438 114.923 393.184 114.452 394.065 114.14C394.947 113.822 395.921 113.663 396.988 113.663C397.724 113.663 398.457 113.749 399.186 113.922C399.915 114.094 400.581 114.379 401.184 114.777C401.788 115.168 402.272 115.702 402.636 116.378C403.007 117.054 403.193 117.899 403.193 118.913V129.135H399.733V127.037H399.613C399.395 127.461 399.086 127.859 398.689 128.23C398.298 128.595 397.804 128.89 397.207 129.115C396.617 129.334 395.925 129.443 395.129 129.443ZM396.064 126.798C396.786 126.798 397.413 126.656 397.943 126.371C398.473 126.079 398.881 125.694 399.166 125.217C399.458 124.74 399.604 124.22 399.604 123.656V121.856C399.491 121.949 399.299 122.035 399.027 122.115C398.762 122.194 398.463 122.264 398.132 122.324C397.8 122.383 397.472 122.436 397.148 122.483C396.823 122.529 396.541 122.569 396.302 122.602C395.765 122.675 395.285 122.794 394.861 122.96C394.436 123.126 394.102 123.358 393.856 123.656C393.611 123.948 393.488 124.326 393.488 124.79C393.488 125.452 393.73 125.953 394.214 126.291C394.698 126.629 395.315 126.798 396.064 126.798Z" fill="black"/>
<path d="M25.3097 152.771V173.135H22.2372V152.771H25.3097ZM29.7841 173.135V152.771H37.2415C38.6866 152.771 39.883 153.01 40.831 153.487C41.7789 153.958 42.4882 154.597 42.9588 155.406C43.4295 156.208 43.6648 157.113 43.6648 158.121C43.6648 158.969 43.509 159.685 43.1974 160.268C42.8859 160.845 42.4683 161.309 41.9446 161.66C41.4276 162.005 40.8575 162.257 40.2344 162.416V162.615C40.9105 162.648 41.5701 162.867 42.2131 163.271C42.8627 163.669 43.3996 164.236 43.8239 164.971C44.2481 165.707 44.4602 166.602 44.4602 167.656C44.4602 168.697 44.215 169.631 43.7244 170.46C43.2405 171.282 42.4915 171.935 41.4773 172.419C40.4631 172.896 39.1671 173.135 37.5895 173.135H29.7841ZM32.8565 170.5H37.2912C38.7628 170.5 39.8168 170.215 40.4531 169.645C41.0895 169.075 41.4077 168.362 41.4077 167.507C41.4077 166.864 41.2453 166.274 40.9205 165.737C40.5956 165.2 40.1316 164.773 39.5284 164.454C38.9318 164.136 38.2225 163.977 37.4006 163.977H32.8565V170.5ZM32.8565 161.581H36.973C37.6624 161.581 38.2822 161.448 38.8324 161.183C39.3892 160.918 39.83 160.547 40.1548 160.069C40.4863 159.586 40.652 159.015 40.652 158.359C40.652 157.517 40.357 156.811 39.767 156.241C39.1771 155.671 38.2723 155.386 37.0526 155.386H32.8565V161.581ZM49.8246 173.135H46.5632L53.8913 152.771H57.4411L64.7692 173.135H61.5078L55.7507 156.47H55.5916L49.8246 173.135ZM50.3714 165.16H60.951V167.746H50.3714V165.16ZM84.146 152.771V173.135H81.3221L70.9712 158.2H70.7823V173.135H67.7099V152.771H70.5536L80.9144 167.726H81.1033V152.771H84.146ZM90.2486 170.53C89.758 170.53 89.3371 170.354 88.9858 170.003C88.6345 169.651 88.4588 169.23 88.4588 168.74C88.4588 168.249 88.6345 167.828 88.9858 167.477C89.3371 167.126 89.758 166.95 90.2486 166.95C90.7391 166.95 91.16 167.126 91.5114 167.477C91.8627 167.828 92.0384 168.249 92.0384 168.74C92.0384 169.065 91.9555 169.363 91.7898 169.635C91.6307 169.907 91.4152 170.125 91.1435 170.291C90.8783 170.45 90.58 170.53 90.2486 170.53ZM90.2486 160.229C89.758 160.229 89.3371 160.053 88.9858 159.702C88.6345 159.35 88.4588 158.929 88.4588 158.439C88.4588 157.948 88.6345 157.527 88.9858 157.176C89.3371 156.825 89.758 156.649 90.2486 156.649C90.7391 156.649 91.16 156.825 91.5114 157.176C91.8627 157.527 92.0384 157.948 92.0384 158.439C92.0384 158.764 91.9555 159.062 91.7898 159.334C91.6307 159.605 91.4152 159.824 91.1435 159.99C90.8783 160.149 90.58 160.229 90.2486 160.229ZM120.829 159.135H118.363C118.217 158.425 117.962 157.802 117.597 157.265C117.239 156.729 116.802 156.278 116.285 155.913C115.774 155.542 115.208 155.264 114.585 155.078C113.961 154.892 113.312 154.8 112.636 154.8C111.403 154.8 110.286 155.111 109.285 155.734C108.29 156.357 107.498 157.275 106.908 158.488C106.325 159.702 106.033 161.19 106.033 162.953C106.033 164.716 106.325 166.204 106.908 167.417C107.498 168.631 108.29 169.549 109.285 170.172C110.286 170.795 111.403 171.106 112.636 171.106C113.312 171.106 113.961 171.014 114.585 170.828C115.208 170.642 115.774 170.367 116.285 170.003C116.802 169.631 117.239 169.177 117.597 168.64C117.962 168.097 118.217 167.474 118.363 166.771H120.829C120.643 167.812 120.305 168.743 119.815 169.565C119.324 170.387 118.714 171.086 117.985 171.663C117.256 172.233 116.437 172.667 115.529 172.966C114.628 173.264 113.663 173.413 112.636 173.413C110.899 173.413 109.354 172.989 108.002 172.14C106.65 171.292 105.586 170.086 104.81 168.521C104.035 166.957 103.647 165.101 103.647 162.953C103.647 160.805 104.035 158.949 104.81 157.385C105.586 155.82 106.65 154.614 108.002 153.765C109.354 152.917 110.899 152.493 112.636 152.493C113.663 152.493 114.628 152.642 115.529 152.94C116.437 153.238 117.256 153.676 117.985 154.253C118.714 154.823 119.324 155.519 119.815 156.341C120.305 157.156 120.643 158.087 120.829 159.135ZM124.814 173.135V152.771H131.694C133.285 152.771 134.591 153.043 135.612 153.586C136.633 154.123 137.388 154.863 137.879 155.804C138.369 156.745 138.615 157.816 138.615 159.015C138.615 160.215 138.369 161.279 137.879 162.207C137.388 163.135 136.636 163.864 135.622 164.395C134.608 164.918 133.312 165.18 131.734 165.18H126.166V162.953H131.654C132.742 162.953 133.617 162.794 134.279 162.476C134.949 162.157 135.433 161.707 135.731 161.123C136.036 160.533 136.189 159.831 136.189 159.015C136.189 158.2 136.036 157.488 135.731 156.878C135.426 156.268 134.939 155.797 134.27 155.466C133.6 155.128 132.715 154.959 131.615 154.959H127.279V173.135H124.814ZM134.399 163.987L139.41 173.135H136.547L131.615 163.987H134.399ZM149.525 152.771V173.135H147.059V155.356H146.94L141.968 158.657V156.152L147.059 152.771H149.525ZM162.262 173.413C160.95 173.413 159.78 173.188 158.752 172.737C157.731 172.286 156.919 171.66 156.316 170.858C155.719 170.049 155.395 169.111 155.342 168.044H157.847C157.9 168.7 158.126 169.267 158.523 169.744C158.921 170.215 159.442 170.579 160.085 170.838C160.728 171.096 161.44 171.226 162.222 171.226C163.097 171.226 163.873 171.073 164.549 170.768C165.225 170.463 165.755 170.039 166.14 169.496C166.524 168.952 166.717 168.322 166.717 167.606C166.717 166.857 166.531 166.198 166.16 165.628C165.789 165.051 165.245 164.6 164.529 164.275C163.813 163.951 162.938 163.788 161.904 163.788H160.273V161.601H161.904C162.713 161.601 163.422 161.455 164.032 161.163C164.648 160.872 165.129 160.461 165.474 159.93C165.825 159.4 166.001 158.777 166.001 158.061C166.001 157.372 165.848 156.772 165.543 156.261C165.238 155.751 164.808 155.353 164.251 155.068C163.701 154.783 163.051 154.64 162.302 154.64C161.599 154.64 160.936 154.77 160.313 155.028C159.697 155.28 159.193 155.648 158.802 156.132C158.411 156.609 158.199 157.186 158.165 157.862H155.779C155.819 156.795 156.14 155.86 156.744 155.058C157.347 154.249 158.136 153.62 159.11 153.169C160.091 152.718 161.168 152.493 162.342 152.493C163.601 152.493 164.682 152.748 165.583 153.258C166.485 153.762 167.177 154.428 167.661 155.257C168.145 156.086 168.387 156.98 168.387 157.942C168.387 159.088 168.085 160.066 167.482 160.875C166.886 161.684 166.074 162.244 165.046 162.555V162.714C166.332 162.926 167.336 163.473 168.059 164.355C168.781 165.23 169.143 166.314 169.143 167.606C169.143 168.713 168.841 169.708 168.238 170.589C167.641 171.464 166.826 172.154 165.792 172.657C164.758 173.161 163.581 173.413 162.262 173.413ZM179.852 173.413C178.353 173.413 177.077 173.006 176.023 172.19C174.969 171.368 174.164 170.178 173.607 168.621C173.05 167.056 172.772 165.167 172.772 162.953C172.772 160.752 173.05 158.873 173.607 157.315C174.171 155.751 174.979 154.558 176.033 153.736C177.094 152.907 178.367 152.493 179.852 152.493C181.336 152.493 182.606 152.907 183.66 153.736C184.72 154.558 185.529 155.751 186.086 157.315C186.649 158.873 186.931 160.752 186.931 162.953C186.931 165.167 186.653 167.056 186.096 168.621C185.539 170.178 184.734 171.368 183.68 172.19C182.626 173.006 181.35 173.413 179.852 173.413ZM179.852 171.226C181.336 171.226 182.49 170.51 183.312 169.078C184.134 167.646 184.545 165.604 184.545 162.953C184.545 161.19 184.356 159.688 183.978 158.449C183.607 157.209 183.07 156.264 182.367 155.615C181.671 154.965 180.833 154.64 179.852 154.64C178.38 154.64 177.23 155.366 176.401 156.818C175.573 158.263 175.158 160.308 175.158 162.953C175.158 164.716 175.344 166.214 175.715 167.447C176.086 168.68 176.62 169.618 177.316 170.261C178.019 170.904 178.864 171.226 179.852 171.226ZM197.232 173.413C195.867 173.413 194.66 173.171 193.613 172.687C192.572 172.197 191.76 171.524 191.177 170.669C190.594 169.807 190.305 168.826 190.312 167.726C190.305 166.864 190.474 166.068 190.819 165.339C191.164 164.604 191.634 163.99 192.231 163.5C192.834 163.003 193.507 162.688 194.249 162.555V162.436C193.275 162.184 192.499 161.637 191.923 160.795C191.346 159.947 191.061 158.982 191.067 157.902C191.061 156.868 191.323 155.943 191.853 155.128C192.383 154.312 193.112 153.669 194.04 153.199C194.975 152.728 196.039 152.493 197.232 152.493C198.412 152.493 199.466 152.728 200.394 153.199C201.322 153.669 202.051 154.312 202.582 155.128C203.119 155.943 203.39 156.868 203.397 157.902C203.39 158.982 203.095 159.947 202.512 160.795C201.935 161.637 201.17 162.184 200.215 162.436V162.555C200.951 162.688 201.614 163.003 202.204 163.5C202.794 163.99 203.264 164.604 203.616 165.339C203.967 166.068 204.146 166.864 204.153 167.726C204.146 168.826 203.848 169.807 203.258 170.669C202.674 171.524 201.862 172.197 200.822 172.687C199.788 173.171 198.591 173.413 197.232 173.413ZM197.232 171.226C198.154 171.226 198.949 171.077 199.619 170.778C200.288 170.48 200.805 170.059 201.17 169.515C201.534 168.972 201.72 168.336 201.727 167.606C201.72 166.837 201.521 166.158 201.13 165.568C200.739 164.978 200.205 164.514 199.529 164.176C198.86 163.838 198.094 163.669 197.232 163.669C196.364 163.669 195.588 163.838 194.906 164.176C194.229 164.514 193.696 164.978 193.305 165.568C192.92 166.158 192.731 166.837 192.738 167.606C192.731 168.336 192.907 168.972 193.265 169.515C193.629 170.059 194.15 170.48 194.826 170.778C195.502 171.077 196.304 171.226 197.232 171.226ZM197.232 161.561C197.961 161.561 198.608 161.415 199.171 161.123C199.741 160.832 200.189 160.424 200.513 159.9C200.838 159.377 201.004 158.764 201.011 158.061C201.004 157.372 200.842 156.772 200.523 156.261C200.205 155.744 199.764 155.346 199.201 155.068C198.638 154.783 197.981 154.64 197.232 154.64C196.47 154.64 195.804 154.783 195.234 155.068C194.664 155.346 194.223 155.744 193.911 156.261C193.6 156.772 193.447 157.372 193.454 158.061C193.447 158.764 193.603 159.377 193.921 159.9C194.246 160.424 194.693 160.832 195.263 161.123C195.834 161.415 196.49 161.561 197.232 161.561ZM214.605 173.413C213.107 173.413 211.831 173.006 210.777 172.19C209.723 171.368 208.918 170.178 208.361 168.621C207.804 167.056 207.526 165.167 207.526 162.953C207.526 160.752 207.804 158.873 208.361 157.315C208.925 155.751 209.733 154.558 210.787 153.736C211.848 152.907 213.121 152.493 214.605 152.493C216.09 152.493 217.36 152.907 218.414 153.736C219.474 154.558 220.283 155.751 220.84 157.315C221.403 158.873 221.685 160.752 221.685 162.953C221.685 165.167 221.407 167.056 220.85 168.621C220.293 170.178 219.488 171.368 218.434 172.19C217.38 173.006 216.104 173.413 214.605 173.413ZM214.605 171.226C216.09 171.226 217.244 170.51 218.066 169.078C218.888 167.646 219.299 165.604 219.299 162.953C219.299 161.19 219.11 159.688 218.732 158.449C218.361 157.209 217.824 156.264 217.121 155.615C216.425 154.965 215.587 154.64 214.605 154.64C213.134 154.64 211.984 155.366 211.155 156.818C210.327 158.263 209.912 160.308 209.912 162.953C209.912 164.716 210.098 166.214 210.469 167.447C210.84 168.68 211.374 169.618 212.07 170.261C212.773 170.904 213.618 171.226 214.605 171.226ZM232.344 173.413C231.032 173.413 229.862 173.188 228.834 172.737C227.813 172.286 227.001 171.66 226.398 170.858C225.801 170.049 225.477 169.111 225.424 168.044H227.929C227.982 168.7 228.208 169.267 228.605 169.744C229.003 170.215 229.524 170.579 230.167 170.838C230.81 171.096 231.522 171.226 232.304 171.226C233.179 171.226 233.955 171.073 234.631 170.768C235.307 170.463 235.837 170.039 236.222 169.496C236.606 168.952 236.799 168.322 236.799 167.606C236.799 166.857 236.613 166.198 236.242 165.628C235.871 165.051 235.327 164.6 234.611 164.275C233.895 163.951 233.02 163.788 231.986 163.788H230.355V161.601H231.986C232.795 161.601 233.504 161.455 234.114 161.163C234.73 160.872 235.211 160.461 235.556 159.93C235.907 159.4 236.083 158.777 236.083 158.061C236.083 157.372 235.93 156.772 235.625 156.261C235.32 155.751 234.89 155.353 234.333 155.068C233.783 154.783 233.133 154.64 232.384 154.64C231.681 154.64 231.018 154.77 230.395 155.028C229.779 155.28 229.275 155.648 228.884 156.132C228.493 156.609 228.281 157.186 228.248 157.862H225.861C225.901 156.795 226.222 155.86 226.826 155.058C227.429 154.249 228.218 153.62 229.192 153.169C230.173 152.718 231.25 152.493 232.424 152.493C233.683 152.493 234.764 152.748 235.665 153.258C236.567 153.762 237.259 154.428 237.743 155.257C238.227 156.086 238.469 156.98 238.469 157.942C238.469 159.088 238.167 160.066 237.564 160.875C236.968 161.684 236.156 162.244 235.128 162.555V162.714C236.414 162.926 237.418 163.473 238.141 164.355C238.864 165.23 239.225 166.314 239.225 167.606C239.225 168.713 238.923 169.708 238.32 170.589C237.723 171.464 236.908 172.154 235.874 172.657C234.84 173.161 233.663 173.413 232.344 173.413ZM250.172 173.413C248.86 173.413 247.69 173.188 246.662 172.737C245.641 172.286 244.829 171.66 244.226 170.858C243.63 170.049 243.305 169.111 243.252 168.044H245.757C245.81 168.7 246.036 169.267 246.434 169.744C246.831 170.215 247.352 170.579 247.995 170.838C248.638 171.096 249.35 171.226 250.132 171.226C251.007 171.226 251.783 171.073 252.459 170.768C253.135 170.463 253.666 170.039 254.05 169.496C254.435 168.952 254.627 168.322 254.627 167.606C254.627 166.857 254.441 166.198 254.07 165.628C253.699 165.051 253.155 164.6 252.439 164.275C251.723 163.951 250.848 163.788 249.814 163.788H248.184V161.601H249.814C250.623 161.601 251.332 161.455 251.942 161.163C252.559 160.872 253.039 160.461 253.384 159.93C253.735 159.4 253.911 158.777 253.911 158.061C253.911 157.372 253.758 156.772 253.453 156.261C253.149 155.751 252.718 155.353 252.161 155.068C251.611 154.783 250.961 154.64 250.212 154.64C249.509 154.64 248.846 154.77 248.223 155.028C247.607 155.28 247.103 155.648 246.712 156.132C246.321 156.609 246.109 157.186 246.076 157.862H243.689C243.729 156.795 244.051 155.86 244.654 155.058C245.257 154.249 246.046 153.62 247.02 153.169C248.001 152.718 249.078 152.493 250.252 152.493C251.511 152.493 252.592 152.748 253.493 153.258C254.395 153.762 255.087 154.428 255.571 155.257C256.055 156.086 256.297 156.98 256.297 157.942C256.297 159.088 255.996 160.066 255.392 160.875C254.796 161.684 253.984 162.244 252.956 162.555V162.714C254.242 162.926 255.247 163.473 255.969 164.355C256.692 165.23 257.053 166.314 257.053 167.606C257.053 168.713 256.751 169.708 256.148 170.589C255.551 171.464 254.736 172.154 253.702 172.657C252.668 173.161 251.491 173.413 250.172 173.413ZM267.642 173.413C266.277 173.413 265.07 173.171 264.023 172.687C262.982 172.197 262.17 171.524 261.587 170.669C261.004 169.807 260.715 168.826 260.722 167.726C260.715 166.864 260.884 166.068 261.229 165.339C261.574 164.604 262.044 163.99 262.641 163.5C263.244 163.003 263.917 162.688 264.659 162.555V162.436C263.685 162.184 262.909 161.637 262.333 160.795C261.756 159.947 261.471 158.982 261.478 157.902C261.471 156.868 261.733 155.943 262.263 155.128C262.793 154.312 263.523 153.669 264.451 153.199C265.385 152.728 266.449 152.493 267.642 152.493C268.822 152.493 269.876 152.728 270.804 153.199C271.732 153.669 272.462 154.312 272.992 155.128C273.529 155.943 273.801 156.868 273.807 157.902C273.801 158.982 273.506 159.947 272.922 160.795C272.346 161.637 271.58 162.184 270.625 162.436V162.555C271.361 162.688 272.024 163.003 272.614 163.5C273.204 163.99 273.675 164.604 274.026 165.339C274.377 166.068 274.556 166.864 274.563 167.726C274.556 168.826 274.258 169.807 273.668 170.669C273.085 171.524 272.273 172.197 271.232 172.687C270.198 173.171 269.001 173.413 267.642 173.413ZM267.642 171.226C268.564 171.226 269.359 171.077 270.029 170.778C270.698 170.48 271.215 170.059 271.58 169.515C271.944 168.972 272.13 168.336 272.137 167.606C272.13 166.837 271.931 166.158 271.54 165.568C271.149 164.978 270.615 164.514 269.939 164.176C269.27 163.838 268.504 163.669 267.642 163.669C266.774 163.669 265.998 163.838 265.316 164.176C264.64 164.514 264.106 164.978 263.715 165.568C263.33 166.158 263.141 166.837 263.148 167.606C263.141 168.336 263.317 168.972 263.675 169.515C264.04 170.059 264.56 170.48 265.236 170.778C265.912 171.077 266.714 171.226 267.642 171.226ZM267.642 161.561C268.372 161.561 269.018 161.415 269.581 161.123C270.151 160.832 270.599 160.424 270.924 159.9C271.248 159.377 271.414 158.764 271.421 158.061C271.414 157.372 271.252 156.772 270.934 156.261C270.615 155.744 270.175 155.346 269.611 155.068C269.048 154.783 268.391 154.64 267.642 154.64C266.88 154.64 266.214 154.783 265.644 155.068C265.074 155.346 264.633 155.744 264.321 156.261C264.01 156.772 263.857 157.372 263.864 158.061C263.857 158.764 264.013 159.377 264.331 159.9C264.656 160.424 265.104 160.832 265.674 161.123C266.244 161.415 266.9 161.561 267.642 161.561ZM278.374 173.135V171.345L285.095 163.987C285.884 163.125 286.534 162.376 287.044 161.74C287.554 161.097 287.932 160.494 288.178 159.93C288.429 159.36 288.555 158.764 288.555 158.14C288.555 157.425 288.383 156.805 288.038 156.281C287.7 155.757 287.236 155.353 286.646 155.068C286.056 154.783 285.393 154.64 284.658 154.64C283.875 154.64 283.193 154.803 282.609 155.128C282.033 155.446 281.585 155.893 281.267 156.47C280.955 157.047 280.8 157.723 280.8 158.498H278.453C278.453 157.305 278.728 156.258 279.278 155.356C279.829 154.455 280.578 153.752 281.526 153.248C282.48 152.745 283.551 152.493 284.737 152.493C285.93 152.493 286.988 152.745 287.909 153.248C288.83 153.752 289.553 154.432 290.077 155.287C290.6 156.142 290.862 157.093 290.862 158.14C290.862 158.89 290.726 159.622 290.455 160.338C290.189 161.047 289.725 161.839 289.062 162.714C288.406 163.583 287.495 164.643 286.328 165.896L281.754 170.788V170.947H291.22V173.135H278.374ZM301.969 173.413C300.471 173.413 299.195 173.006 298.141 172.19C297.087 171.368 296.281 170.178 295.724 168.621C295.168 167.056 294.889 165.167 294.889 162.953C294.889 160.752 295.168 158.873 295.724 157.315C296.288 155.751 297.097 154.558 298.151 153.736C299.211 152.907 300.484 152.493 301.969 152.493C303.454 152.493 304.723 152.907 305.777 153.736C306.838 154.558 307.646 155.751 308.203 157.315C308.767 158.873 309.048 160.752 309.048 162.953C309.048 165.167 308.77 167.056 308.213 168.621C307.656 170.178 306.851 171.368 305.797 172.19C304.743 173.006 303.467 173.413 301.969 173.413ZM301.969 171.226C303.454 171.226 304.607 170.51 305.429 169.078C306.251 167.646 306.662 165.604 306.662 162.953C306.662 161.19 306.473 159.688 306.095 158.449C305.724 157.209 305.187 156.264 304.484 155.615C303.788 154.965 302.95 154.64 301.969 154.64C300.497 154.64 299.347 155.366 298.518 156.818C297.69 158.263 297.276 160.308 297.276 162.953C297.276 164.716 297.461 166.214 297.832 167.447C298.204 168.68 298.737 169.618 299.433 170.261C300.136 170.904 300.981 171.226 301.969 171.226ZM319.469 173.413C317.971 173.413 316.695 173.006 315.641 172.19C314.587 171.368 313.781 170.178 313.224 168.621C312.668 167.056 312.389 165.167 312.389 162.953C312.389 160.752 312.668 158.873 313.224 157.315C313.788 155.751 314.597 154.558 315.651 153.736C316.711 152.907 317.984 152.493 319.469 152.493C320.954 152.493 322.223 152.907 323.277 153.736C324.338 154.558 325.146 155.751 325.703 157.315C326.267 158.873 326.548 160.752 326.548 162.953C326.548 165.167 326.27 167.056 325.713 168.621C325.156 170.178 324.351 171.368 323.297 172.19C322.243 173.006 320.967 173.413 319.469 173.413ZM319.469 171.226C320.954 171.226 322.107 170.51 322.929 169.078C323.751 167.646 324.162 165.604 324.162 162.953C324.162 161.19 323.973 159.688 323.595 158.449C323.224 157.209 322.687 156.264 321.984 155.615C321.288 154.965 320.45 154.64 319.469 154.64C317.997 154.64 316.847 155.366 316.018 156.818C315.19 158.263 314.776 160.308 314.776 162.953C314.776 164.716 314.961 166.214 315.332 167.447C315.704 168.68 316.237 169.618 316.933 170.261C317.636 170.904 318.481 171.226 319.469 171.226ZM336.849 173.413C335.484 173.413 334.277 173.171 333.23 172.687C332.189 172.197 331.377 171.524 330.794 170.669C330.211 169.807 329.922 168.826 329.929 167.726C329.922 166.864 330.091 166.068 330.436 165.339C330.781 164.604 331.251 163.99 331.848 163.5C332.451 163.003 333.124 162.688 333.866 162.555V162.436C332.892 162.184 332.116 161.637 331.54 160.795C330.963 159.947 330.678 158.982 330.685 157.902C330.678 156.868 330.94 155.943 331.47 155.128C332 154.312 332.73 153.669 333.658 153.199C334.592 152.728 335.656 152.493 336.849 152.493C338.029 152.493 339.083 152.728 340.011 153.199C340.939 153.669 341.669 154.312 342.199 155.128C342.736 155.943 343.008 156.868 343.014 157.902C343.008 158.982 342.713 159.947 342.129 160.795C341.553 161.637 340.787 162.184 339.832 162.436V162.555C340.568 162.688 341.231 163.003 341.821 163.5C342.411 163.99 342.882 164.604 343.233 165.339C343.584 166.068 343.763 166.864 343.77 167.726C343.763 168.826 343.465 169.807 342.875 170.669C342.292 171.524 341.48 172.197 340.439 172.687C339.405 173.171 338.208 173.413 336.849 173.413ZM336.849 171.226C337.771 171.226 338.566 171.077 339.236 170.778C339.905 170.48 340.422 170.059 340.787 169.515C341.152 168.972 341.337 168.336 341.344 167.606C341.337 166.837 341.138 166.158 340.747 165.568C340.356 164.978 339.822 164.514 339.146 164.176C338.477 163.838 337.711 163.669 336.849 163.669C335.981 163.669 335.205 163.838 334.523 164.176C333.847 164.514 333.313 164.978 332.922 165.568C332.537 166.158 332.348 166.837 332.355 167.606C332.348 168.336 332.524 168.972 332.882 169.515C333.247 170.059 333.767 170.48 334.443 170.778C335.119 171.077 335.921 171.226 336.849 171.226ZM336.849 161.561C337.579 161.561 338.225 161.415 338.788 161.123C339.358 160.832 339.806 160.424 340.131 159.9C340.455 159.377 340.621 158.764 340.628 158.061C340.621 157.372 340.459 156.772 340.141 156.261C339.822 155.744 339.382 155.346 338.818 155.068C338.255 154.783 337.598 154.64 336.849 154.64C336.087 154.64 335.421 154.783 334.851 155.068C334.281 155.346 333.84 155.744 333.528 156.261C333.217 156.772 333.064 157.372 333.071 158.061C333.064 158.764 333.22 159.377 333.538 159.9C333.863 160.424 334.311 160.832 334.881 161.123C335.451 161.415 336.107 161.561 336.849 161.561ZM353.944 173.413C352.778 173.413 351.727 173.181 350.792 172.717C349.858 172.253 349.109 171.617 348.545 170.808C347.982 169.999 347.673 169.078 347.62 168.044H350.007C350.1 168.965 350.517 169.728 351.26 170.331C352.009 170.927 352.904 171.226 353.944 171.226C354.779 171.226 355.522 171.03 356.172 170.639C356.828 170.248 357.342 169.711 357.713 169.028C358.091 168.339 358.279 167.56 358.279 166.692C358.279 165.803 358.084 165.011 357.693 164.315C357.308 163.613 356.778 163.059 356.102 162.655C355.426 162.25 354.654 162.045 353.785 162.038C353.162 162.032 352.522 162.128 351.866 162.327C351.21 162.519 350.67 162.767 350.245 163.072L347.939 162.794L349.172 152.771H359.751V154.959H351.24L350.524 160.964H350.643C351.061 160.633 351.584 160.358 352.214 160.139C352.844 159.92 353.5 159.811 354.183 159.811C355.429 159.811 356.539 160.109 357.514 160.706C358.495 161.296 359.264 162.104 359.821 163.132C360.384 164.159 360.666 165.333 360.666 166.652C360.666 167.951 360.374 169.111 359.791 170.132C359.214 171.146 358.419 171.948 357.404 172.538C356.39 173.122 355.237 173.413 353.944 173.413ZM364.616 173.135V171.345L371.337 163.987C372.126 163.125 372.776 162.376 373.286 161.74C373.797 161.097 374.174 160.494 374.42 159.93C374.672 159.36 374.798 158.764 374.798 158.14C374.798 157.425 374.625 156.805 374.281 156.281C373.942 155.757 373.478 155.353 372.888 155.068C372.299 154.783 371.636 154.64 370.9 154.64C370.118 154.64 369.435 154.803 368.852 155.128C368.275 155.446 367.827 155.893 367.509 156.47C367.198 157.047 367.042 157.723 367.042 158.498H364.695C364.695 157.305 364.97 156.258 365.521 155.356C366.071 154.455 366.82 153.752 367.768 153.248C368.722 152.745 369.793 152.493 370.979 152.493C372.173 152.493 373.23 152.745 374.151 153.248C375.073 153.752 375.795 154.432 376.319 155.287C376.843 156.142 377.104 157.093 377.104 158.14C377.104 158.89 376.969 159.622 376.697 160.338C376.432 161.047 375.968 161.839 375.305 162.714C374.648 163.583 373.737 164.643 372.57 165.896L367.996 170.788V170.947H377.462V173.135H364.616ZM382.205 173.135L391.313 155.118V154.959H380.813V152.771H393.859V155.078L384.79 173.135H382.205ZM403.981 173.413C402.668 173.413 401.498 173.188 400.471 172.737C399.45 172.286 398.638 171.66 398.035 170.858C397.438 170.049 397.113 169.111 397.06 168.044H399.566C399.619 168.7 399.844 169.267 400.242 169.744C400.64 170.215 401.16 170.579 401.803 170.838C402.446 171.096 403.159 171.226 403.941 171.226C404.816 171.226 405.592 171.073 406.268 170.768C406.944 170.463 407.474 170.039 407.859 169.496C408.243 168.952 408.435 168.322 408.435 167.606C408.435 166.857 408.25 166.198 407.879 165.628C407.507 165.051 406.964 164.6 406.248 164.275C405.532 163.951 404.657 163.788 403.623 163.788H401.992V161.601H403.623C404.432 161.601 405.141 161.455 405.751 161.163C406.367 160.872 406.848 160.461 407.192 159.93C407.544 159.4 407.719 158.777 407.719 158.061C407.719 157.372 407.567 156.772 407.262 156.261C406.957 155.751 406.526 155.353 405.969 155.068C405.419 154.783 404.77 154.64 404.021 154.64C403.318 154.64 402.655 154.77 402.032 155.028C401.415 155.28 400.912 155.648 400.521 156.132C400.129 156.609 399.917 157.186 399.884 157.862H397.498C397.538 156.795 397.859 155.86 398.462 155.058C399.066 154.249 399.854 153.62 400.829 153.169C401.81 152.718 402.887 152.493 404.06 152.493C405.32 152.493 406.4 152.748 407.302 153.258C408.203 153.762 408.896 154.428 409.38 155.257C409.864 156.086 410.106 156.98 410.106 157.942C410.106 159.088 409.804 160.066 409.201 160.875C408.604 161.684 407.792 162.244 406.765 162.555V162.714C408.051 162.926 409.055 163.473 409.778 164.355C410.5 165.23 410.862 166.314 410.862 167.606C410.862 168.713 410.56 169.708 409.957 170.589C409.36 171.464 408.545 172.154 407.511 172.657C406.477 173.161 405.3 173.413 403.981 173.413ZM421.69 173.413C420.854 173.4 420.019 173.241 419.184 172.936C418.349 172.631 417.586 172.117 416.897 171.395C416.208 170.666 415.654 169.681 415.237 168.442C414.819 167.195 414.61 165.631 414.61 163.748C414.61 161.945 414.779 160.348 415.117 158.956C415.455 157.557 415.946 156.381 416.589 155.426C417.232 154.465 418.007 153.736 418.915 153.238C419.83 152.741 420.861 152.493 422.008 152.493C423.148 152.493 424.162 152.721 425.05 153.179C425.945 153.63 426.674 154.259 427.238 155.068C427.801 155.877 428.166 156.808 428.332 157.862H425.906C425.68 156.947 425.243 156.188 424.593 155.585C423.943 154.982 423.082 154.68 422.008 154.68C420.43 154.68 419.187 155.366 418.279 156.738C417.378 158.111 416.924 160.036 416.917 162.515H417.076C417.447 161.952 417.888 161.471 418.398 161.074C418.915 160.669 419.486 160.358 420.109 160.139C420.732 159.92 421.391 159.811 422.087 159.811C423.254 159.811 424.321 160.103 425.289 160.686C426.257 161.263 427.032 162.061 427.616 163.082C428.199 164.096 428.491 165.26 428.491 166.572C428.491 167.832 428.209 168.985 427.646 170.032C427.082 171.073 426.29 171.902 425.269 172.518C424.255 173.128 423.062 173.426 421.69 173.413ZM421.69 171.226C422.525 171.226 423.274 171.017 423.937 170.599C424.606 170.182 425.133 169.622 425.518 168.919C425.909 168.216 426.104 167.434 426.104 166.572C426.104 165.73 425.915 164.965 425.538 164.275C425.166 163.579 424.653 163.026 423.996 162.615C423.347 162.204 422.604 161.998 421.769 161.998C421.139 161.998 420.553 162.124 420.009 162.376C419.466 162.622 418.988 162.96 418.577 163.39C418.173 163.821 417.855 164.315 417.623 164.872C417.391 165.422 417.275 166.002 417.275 166.612C417.275 167.421 417.464 168.176 417.842 168.879C418.226 169.582 418.75 170.148 419.413 170.579C420.082 171.01 420.841 171.226 421.69 171.226ZM438.765 173.413C437.598 173.413 436.547 173.181 435.613 172.717C434.678 172.253 433.929 171.617 433.365 170.808C432.802 169.999 432.494 169.078 432.441 168.044H434.827C434.92 168.965 435.337 169.728 436.08 170.331C436.829 170.927 437.724 171.226 438.765 171.226C439.6 171.226 440.342 171.03 440.992 170.639C441.648 170.248 442.162 169.711 442.533 169.028C442.911 168.339 443.1 167.56 443.1 166.692C443.1 165.803 442.904 165.011 442.513 164.315C442.129 163.613 441.598 163.059 440.922 162.655C440.246 162.25 439.474 162.045 438.605 162.038C437.982 162.032 437.343 162.128 436.686 162.327C436.03 162.519 435.49 162.767 435.066 163.072L432.759 162.794L433.992 152.771H444.571V154.959H436.06L435.344 160.964H435.463C435.881 160.633 436.405 160.358 437.034 160.139C437.664 159.92 438.32 159.811 439.003 159.811C440.249 159.811 441.36 160.109 442.334 160.706C443.315 161.296 444.084 162.104 444.641 163.132C445.204 164.159 445.486 165.333 445.486 166.652C445.486 167.951 445.194 169.111 444.611 170.132C444.034 171.146 443.239 171.948 442.225 172.538C441.211 173.122 440.057 173.413 438.765 173.413ZM456.317 173.413C455.004 173.413 453.834 173.188 452.807 172.737C451.786 172.286 450.974 171.66 450.371 170.858C449.774 170.049 449.449 169.111 449.396 168.044H451.902C451.955 168.7 452.18 169.267 452.578 169.744C452.976 170.215 453.496 170.579 454.139 170.838C454.782 171.096 455.495 171.226 456.277 171.226C457.152 171.226 457.928 171.073 458.604 170.768C459.28 170.463 459.81 170.039 460.195 169.496C460.579 168.952 460.771 168.322 460.771 167.606C460.771 166.857 460.586 166.198 460.214 165.628C459.843 165.051 459.3 164.6 458.584 164.275C457.868 163.951 456.993 163.788 455.959 163.788H454.328V161.601H455.959C456.768 161.601 457.477 161.455 458.087 161.163C458.703 160.872 459.184 160.461 459.528 159.93C459.88 159.4 460.055 158.777 460.055 158.061C460.055 157.372 459.903 156.772 459.598 156.261C459.293 155.751 458.862 155.353 458.305 155.068C457.755 154.783 457.106 154.64 456.357 154.64C455.654 154.64 454.991 154.77 454.368 155.028C453.751 155.28 453.248 155.648 452.857 156.132C452.465 156.609 452.253 157.186 452.22 157.862H449.834C449.874 156.795 450.195 155.86 450.798 155.058C451.402 154.249 452.19 153.62 453.165 153.169C454.146 152.718 455.223 152.493 456.396 152.493C457.656 152.493 458.736 152.748 459.638 153.258C460.539 153.762 461.232 154.428 461.716 155.257C462.2 156.086 462.442 156.98 462.442 157.942C462.442 159.088 462.14 160.066 461.537 160.875C460.94 161.684 460.128 162.244 459.101 162.555V162.714C460.387 162.926 461.391 163.473 462.114 164.355C462.836 165.23 463.197 166.314 463.197 167.606C463.197 168.713 462.896 169.708 462.293 170.589C461.696 171.464 460.881 172.154 459.847 172.657C458.813 173.161 457.636 173.413 456.317 173.413ZM474.423 152.771V173.135H471.957V155.356H471.838L466.866 158.657V156.152L471.957 152.771H474.423ZM38.6733 186.771V207.135H35.8494L25.4986 192.2H25.3097V207.135H22.2372V186.771H25.081L35.4418 201.726H35.6307V186.771H38.6733ZM49.3498 207.443C47.918 207.443 46.6684 207.115 45.6012 206.459C44.534 205.802 43.7054 204.884 43.1154 203.704C42.5254 202.524 42.2305 201.146 42.2305 199.568C42.2305 197.984 42.5254 196.598 43.1154 195.412C43.7054 194.225 44.534 193.304 45.6012 192.648C46.6684 191.991 47.918 191.663 49.3498 191.663C50.7816 191.663 52.0311 191.991 53.0984 192.648C54.1656 193.304 54.9942 194.225 55.5842 195.412C56.1741 196.598 56.4691 197.984 56.4691 199.568C56.4691 201.146 56.1741 202.524 55.5842 203.704C54.9942 204.884 54.1656 205.802 53.0984 206.459C52.0311 207.115 50.7816 207.443 49.3498 207.443ZM49.3597 204.947C50.2878 204.947 51.0567 204.702 51.6665 204.211C52.2764 203.721 52.7272 203.068 53.0188 202.253C53.3171 201.437 53.4663 200.539 53.4663 199.558C53.4663 198.584 53.3171 197.689 53.0188 196.873C52.7272 196.051 52.2764 195.392 51.6665 194.895C51.0567 194.398 50.2878 194.149 49.3597 194.149C48.4251 194.149 47.6495 194.398 47.033 194.895C46.4232 195.392 45.9691 196.051 45.6708 196.873C45.3791 197.689 45.2333 198.584 45.2333 199.558C45.2333 200.539 45.3791 201.437 45.6708 202.253C45.9691 203.068 46.4232 203.721 47.033 204.211C47.6495 204.702 48.4251 204.947 49.3597 204.947ZM59.7876 207.135V191.862H62.6413V194.348H62.8303C63.1484 193.506 63.6688 192.85 64.3913 192.379C65.1139 191.902 65.9789 191.663 66.9865 191.663C68.0073 191.663 68.8625 191.902 69.5518 192.379C70.2479 192.856 70.7616 193.513 71.093 194.348H71.2521C71.6167 193.532 72.1967 192.883 72.9922 192.399C73.7876 191.908 74.7356 191.663 75.8359 191.663C77.2214 191.663 78.3516 192.097 79.2266 192.966C80.1082 193.834 80.549 195.143 80.549 196.893V207.135H77.576V197.172C77.576 196.138 77.2943 195.389 76.7308 194.925C76.1674 194.461 75.4946 194.229 74.7124 194.229C73.7446 194.229 72.9922 194.527 72.4553 195.123C71.9183 195.713 71.6499 196.472 71.6499 197.4V207.135H68.6868V196.983C68.6868 196.154 68.4283 195.488 67.9112 194.984C67.3942 194.48 66.7214 194.229 65.8928 194.229C65.3293 194.229 64.8089 194.378 64.3317 194.676C63.861 194.968 63.4799 195.375 63.1882 195.899C62.9032 196.423 62.7607 197.029 62.7607 197.719V207.135H59.7876ZM84.7724 207.135V186.771H87.7454V194.338H87.9244C88.0967 194.02 88.3453 193.652 88.6701 193.234C88.9949 192.817 89.4457 192.452 90.0224 192.14C90.5991 191.822 91.3614 191.663 92.3093 191.663C93.5423 191.663 94.6426 191.975 95.6104 192.598C96.5782 193.221 97.3372 194.119 97.8874 195.292C98.4442 196.466 98.7227 197.878 98.7227 199.528C98.7227 201.179 98.4476 202.594 97.8974 203.774C97.3472 204.947 96.5915 205.852 95.6303 206.488C94.6692 207.118 93.5721 207.433 92.3391 207.433C91.4111 207.433 90.6521 207.277 90.0621 206.966C89.4788 206.654 89.0214 206.29 88.69 205.872C88.3585 205.454 88.1033 205.083 87.9244 204.758H87.6758V207.135H84.7724ZM87.6857 199.498C87.6857 200.572 87.8415 201.514 88.1531 202.322C88.4646 203.131 88.9154 203.764 89.5053 204.221C90.0953 204.672 90.8178 204.898 91.6729 204.898C92.5612 204.898 93.3036 204.662 93.9002 204.192C94.4968 203.714 94.9476 203.068 95.2525 202.253C95.564 201.437 95.7198 200.519 95.7198 199.498C95.7198 198.491 95.5674 197.586 95.2624 196.784C94.9641 195.982 94.5134 195.349 93.9102 194.885C93.3136 194.421 92.5678 194.189 91.6729 194.189C90.8112 194.189 90.082 194.411 89.4854 194.855C88.8955 195.299 88.448 195.919 88.1431 196.714C87.8382 197.51 87.6857 198.438 87.6857 199.498ZM102.061 207.135V191.862H104.935V194.288H105.094C105.372 193.466 105.863 192.82 106.565 192.349C107.275 191.872 108.077 191.633 108.972 191.633C109.157 191.633 109.376 191.64 109.628 191.653C109.886 191.666 110.089 191.683 110.234 191.703V194.547C110.115 194.514 109.903 194.477 109.598 194.437C109.293 194.391 108.988 194.368 108.683 194.368C107.981 194.368 107.354 194.517 106.804 194.815C106.26 195.107 105.83 195.514 105.511 196.038C105.193 196.555 105.034 197.145 105.034 197.808V207.135H102.061ZM118.843 207.443C117.338 207.443 116.042 207.122 114.955 206.479C113.874 205.829 113.039 204.917 112.449 203.744C111.866 202.564 111.574 201.182 111.574 199.598C111.574 198.033 111.866 196.655 112.449 195.461C113.039 194.268 113.861 193.337 114.915 192.667C115.976 191.998 117.215 191.663 118.634 191.663C119.496 191.663 120.331 191.806 121.14 192.091C121.948 192.376 122.674 192.823 123.317 193.433C123.96 194.043 124.467 194.835 124.838 195.809C125.21 196.777 125.395 197.954 125.395 199.339V200.393H113.255V198.166H122.482C122.482 197.384 122.323 196.691 122.005 196.088C121.686 195.478 121.239 194.997 120.662 194.646C120.092 194.295 119.423 194.119 118.654 194.119C117.819 194.119 117.089 194.325 116.466 194.736C115.85 195.14 115.373 195.67 115.034 196.327C114.703 196.976 114.537 197.682 114.537 198.444V200.184C114.537 201.205 114.716 202.074 115.074 202.79C115.439 203.506 115.946 204.052 116.596 204.43C117.245 204.801 118.004 204.987 118.873 204.987C119.436 204.987 119.95 204.907 120.414 204.748C120.878 204.583 121.279 204.337 121.617 204.013C121.955 203.688 122.213 203.287 122.392 202.809L125.206 203.317C124.981 204.145 124.577 204.871 123.993 205.494C123.417 206.111 122.691 206.591 121.816 206.936C120.947 207.274 119.956 207.443 118.843 207.443ZM130.553 204.53C130.063 204.53 129.642 204.354 129.29 204.003C128.939 203.651 128.763 203.23 128.763 202.74C128.763 202.249 128.939 201.828 129.29 201.477C129.642 201.126 130.063 200.95 130.553 200.95C131.044 200.95 131.465 201.126 131.816 201.477C132.167 201.828 132.343 202.249 132.343 202.74C132.343 203.065 132.26 203.363 132.094 203.635C131.935 203.907 131.72 204.125 131.448 204.291C131.183 204.45 130.885 204.53 130.553 204.53ZM130.553 194.229C130.063 194.229 129.642 194.053 129.29 193.702C128.939 193.35 128.763 192.929 128.763 192.439C128.763 191.948 128.939 191.527 129.29 191.176C129.642 190.825 130.063 190.649 130.553 190.649C131.044 190.649 131.465 190.825 131.816 191.176C132.167 191.527 132.343 191.948 132.343 192.439C132.343 192.764 132.26 193.062 132.094 193.334C131.935 193.605 131.72 193.824 131.448 193.99C131.183 194.149 130.885 194.229 130.553 194.229ZM158.668 193.135C158.449 192.465 158.161 191.865 157.803 191.335C157.451 190.798 157.03 190.341 156.54 189.963C156.056 189.585 155.506 189.297 154.889 189.098C154.273 188.899 153.597 188.8 152.861 188.8C151.654 188.8 150.557 189.111 149.57 189.734C148.582 190.357 147.796 191.275 147.213 192.488C146.63 193.702 146.338 195.19 146.338 196.953C146.338 198.716 146.633 200.204 147.223 201.417C147.813 202.631 148.612 203.549 149.619 204.172C150.627 204.795 151.76 205.106 153.02 205.106C154.187 205.106 155.214 204.858 156.102 204.361C156.997 203.857 157.693 203.148 158.19 202.233C158.694 201.311 158.946 200.228 158.946 198.981L159.702 199.14H153.577V196.953H161.332V199.14C161.332 200.818 160.974 202.276 160.259 203.515C159.549 204.755 158.568 205.716 157.315 206.399C156.069 207.075 154.637 207.413 153.02 207.413C151.217 207.413 149.633 206.989 148.267 206.14C146.908 205.292 145.848 204.086 145.085 202.521C144.33 200.957 143.952 199.101 143.952 196.953C143.952 195.342 144.167 193.894 144.598 192.608C145.036 191.315 145.652 190.215 146.447 189.307C147.243 188.398 148.184 187.702 149.271 187.219C150.358 186.735 151.555 186.493 152.861 186.493C153.935 186.493 154.936 186.655 155.864 186.98C156.798 187.298 157.63 187.752 158.359 188.342C159.095 188.925 159.708 189.625 160.199 190.44C160.689 191.249 161.027 192.147 161.213 193.135H158.668ZM167.584 186.771V207.135H165.238V186.771H167.584ZM178.087 207.453C176.708 207.453 175.498 207.125 174.457 206.469C173.423 205.812 172.615 204.894 172.031 203.714C171.455 202.534 171.166 201.156 171.166 199.578C171.166 197.987 171.455 196.598 172.031 195.412C172.615 194.225 173.423 193.304 174.457 192.648C175.498 191.991 176.708 191.663 178.087 191.663C179.465 191.663 180.672 191.991 181.706 192.648C182.747 193.304 183.555 194.225 184.132 195.412C184.715 196.598 185.007 197.987 185.007 199.578C185.007 201.156 184.715 202.534 184.132 203.714C183.555 204.894 182.747 205.812 181.706 206.469C180.672 207.125 179.465 207.453 178.087 207.453ZM178.087 205.345C179.134 205.345 179.996 205.077 180.672 204.54C181.348 204.003 181.848 203.297 182.173 202.422C182.498 201.547 182.661 200.599 182.661 199.578C182.661 198.557 182.498 197.606 182.173 196.724C181.848 195.843 181.348 195.13 180.672 194.586C179.996 194.043 179.134 193.771 178.087 193.771C177.039 193.771 176.178 194.043 175.501 194.586C174.825 195.13 174.325 195.843 174 196.724C173.675 197.606 173.513 198.557 173.513 199.578C173.513 200.599 173.675 201.547 174 202.422C174.325 203.297 174.825 204.003 175.501 204.54C176.178 205.077 177.039 205.345 178.087 205.345ZM188.907 207.135V186.771H191.254V194.288H191.453C191.625 194.023 191.864 193.685 192.169 193.274C192.48 192.856 192.924 192.485 193.501 192.16C194.084 191.829 194.873 191.663 195.868 191.663C197.154 191.663 198.287 191.985 199.268 192.628C200.249 193.271 201.015 194.182 201.565 195.362C202.115 196.542 202.39 197.934 202.39 199.538C202.39 201.156 202.115 202.558 201.565 203.744C201.015 204.924 200.252 205.839 199.278 206.488C198.304 207.131 197.18 207.453 195.907 207.453C194.926 207.453 194.141 207.291 193.551 206.966C192.961 206.634 192.507 206.26 192.189 205.842C191.87 205.418 191.625 205.067 191.453 204.788H191.174V207.135H188.907ZM191.214 199.498C191.214 200.652 191.383 201.669 191.721 202.551C192.059 203.426 192.553 204.112 193.203 204.609C193.852 205.1 194.648 205.345 195.589 205.345C196.57 205.345 197.389 205.086 198.045 204.569C198.708 204.046 199.205 203.343 199.537 202.461C199.875 201.573 200.044 200.586 200.044 199.498C200.044 198.425 199.878 197.457 199.547 196.595C199.222 195.727 198.728 195.041 198.065 194.537C197.409 194.026 196.583 193.771 195.589 193.771C194.635 193.771 193.833 194.013 193.183 194.497C192.533 194.974 192.043 195.644 191.711 196.506C191.38 197.361 191.214 198.358 191.214 199.498ZM210.474 207.493C209.506 207.493 208.628 207.31 207.839 206.946C207.05 206.575 206.424 206.041 205.96 205.345C205.496 204.642 205.264 203.794 205.264 202.8C205.264 201.925 205.436 201.215 205.781 200.672C206.126 200.122 206.586 199.691 207.163 199.379C207.74 199.068 208.376 198.836 209.072 198.683C209.775 198.524 210.481 198.398 211.19 198.305C212.118 198.186 212.87 198.096 213.447 198.037C214.03 197.97 214.455 197.861 214.72 197.709C214.992 197.556 215.127 197.291 215.127 196.913V196.834C215.127 195.853 214.859 195.09 214.322 194.547C213.792 194.003 212.986 193.731 211.906 193.731C210.786 193.731 209.907 193.977 209.271 194.467C208.635 194.958 208.187 195.481 207.929 196.038L205.701 195.243C206.099 194.315 206.629 193.592 207.292 193.075C207.962 192.551 208.691 192.187 209.48 191.981C210.275 191.769 211.057 191.663 211.826 191.663C212.317 191.663 212.88 191.723 213.517 191.842C214.16 191.955 214.779 192.19 215.376 192.548C215.979 192.906 216.48 193.446 216.877 194.169C217.275 194.891 217.474 195.859 217.474 197.072V207.135H215.127V205.067H215.008C214.849 205.398 214.584 205.753 214.213 206.131C213.842 206.508 213.348 206.83 212.731 207.095C212.115 207.36 211.362 207.493 210.474 207.493ZM210.832 205.385C211.76 205.385 212.542 205.202 213.179 204.838C213.822 204.473 214.306 204.003 214.63 203.426C214.962 202.849 215.127 202.243 215.127 201.606V199.459C215.028 199.578 214.809 199.687 214.471 199.787C214.14 199.88 213.755 199.962 213.318 200.035C212.887 200.102 212.466 200.161 212.055 200.214C211.651 200.261 211.323 200.3 211.071 200.334C210.461 200.413 209.891 200.542 209.36 200.721C208.837 200.894 208.413 201.156 208.088 201.507C207.77 201.852 207.61 202.322 207.61 202.919C207.61 203.734 207.912 204.351 208.515 204.768C209.125 205.179 209.897 205.385 210.832 205.385ZM224.104 186.771V207.135H221.757V186.771H224.104ZM247.731 191.862C247.612 190.854 247.128 190.072 246.279 189.515C245.431 188.959 244.39 188.68 243.157 188.68C242.256 188.68 241.467 188.826 240.791 189.118C240.121 189.409 239.598 189.81 239.22 190.321C238.849 190.831 238.663 191.411 238.663 192.061C238.663 192.604 238.792 193.072 239.051 193.463C239.316 193.847 239.654 194.169 240.065 194.427C240.476 194.679 240.907 194.888 241.358 195.054C241.808 195.213 242.223 195.342 242.6 195.442L244.669 195.998C245.199 196.138 245.789 196.33 246.439 196.575C247.095 196.82 247.721 197.155 248.318 197.579C248.921 197.997 249.418 198.534 249.809 199.19C250.2 199.846 250.396 200.652 250.396 201.606C250.396 202.707 250.108 203.701 249.531 204.589C248.961 205.478 248.126 206.184 247.025 206.707C245.931 207.231 244.602 207.493 243.038 207.493C241.58 207.493 240.317 207.257 239.25 206.787C238.189 206.316 237.354 205.66 236.744 204.818C236.141 203.976 235.799 202.998 235.72 201.885H238.265C238.332 202.654 238.59 203.29 239.041 203.794C239.498 204.291 240.075 204.662 240.771 204.907C241.474 205.146 242.229 205.265 243.038 205.265C243.979 205.265 244.824 205.113 245.574 204.808C246.323 204.497 246.916 204.066 247.353 203.515C247.791 202.959 248.01 202.309 248.01 201.567C248.01 200.89 247.821 200.34 247.443 199.916C247.065 199.492 246.568 199.147 245.951 198.882C245.335 198.617 244.669 198.385 243.953 198.186L241.447 197.47C239.856 197.013 238.597 196.36 237.669 195.511C236.741 194.663 236.277 193.552 236.277 192.18C236.277 191.04 236.585 190.046 237.201 189.197C237.824 188.342 238.66 187.679 239.707 187.209C240.761 186.731 241.938 186.493 243.237 186.493C244.549 186.493 245.716 186.728 246.737 187.199C247.758 187.663 248.566 188.299 249.163 189.108C249.766 189.916 250.084 190.835 250.118 191.862H247.731ZM258.626 207.493C257.659 207.493 256.78 207.31 255.991 206.946C255.203 206.575 254.576 206.041 254.112 205.345C253.648 204.642 253.416 203.794 253.416 202.8C253.416 201.925 253.589 201.215 253.933 200.672C254.278 200.122 254.739 199.691 255.315 199.379C255.892 199.068 256.528 198.836 257.224 198.683C257.927 198.524 258.633 198.398 259.342 198.305C260.27 198.186 261.023 198.096 261.599 198.037C262.183 197.97 262.607 197.861 262.872 197.709C263.144 197.556 263.28 197.291 263.28 196.913V196.834C263.28 195.853 263.011 195.09 262.474 194.547C261.944 194.003 261.139 193.731 260.058 193.731C258.938 193.731 258.06 193.977 257.423 194.467C256.787 194.958 256.339 195.481 256.081 196.038L253.854 195.243C254.251 194.315 254.782 193.592 255.445 193.075C256.114 192.551 256.843 192.187 257.632 191.981C258.428 191.769 259.21 191.663 259.979 191.663C260.469 191.663 261.033 191.723 261.669 191.842C262.312 191.955 262.932 192.19 263.528 192.548C264.132 192.906 264.632 193.446 265.03 194.169C265.428 194.891 265.626 195.859 265.626 197.072V207.135H263.28V205.067H263.161C263.001 205.398 262.736 205.753 262.365 206.131C261.994 206.508 261.5 206.83 260.884 207.095C260.267 207.36 259.515 207.493 258.626 207.493ZM258.984 205.385C259.912 205.385 260.695 205.202 261.331 204.838C261.974 204.473 262.458 204.003 262.783 203.426C263.114 202.849 263.28 202.243 263.28 201.606V199.459C263.18 199.578 262.962 199.687 262.624 199.787C262.292 199.88 261.908 199.962 261.47 200.035C261.039 200.102 260.618 200.161 260.207 200.214C259.803 200.261 259.475 200.3 259.223 200.334C258.613 200.413 258.043 200.542 257.513 200.721C256.989 200.894 256.565 201.156 256.24 201.507C255.922 201.852 255.763 202.322 255.763 202.919C255.763 203.734 256.064 204.351 256.668 204.768C257.277 205.179 258.05 205.385 258.984 205.385ZM272.256 197.947V207.135H269.909V191.862H272.176V194.248H272.375C272.733 193.473 273.277 192.85 274.006 192.379C274.735 191.902 275.676 191.663 276.83 191.663C277.864 191.663 278.769 191.875 279.544 192.3C280.32 192.717 280.923 193.354 281.354 194.209C281.785 195.057 282 196.131 282 197.43V207.135H279.654V197.589C279.654 196.39 279.342 195.455 278.719 194.785C278.096 194.109 277.241 193.771 276.154 193.771C275.405 193.771 274.735 193.934 274.145 194.258C273.562 194.583 273.101 195.057 272.763 195.68C272.425 196.303 272.256 197.059 272.256 197.947ZM290.783 207.493C289.815 207.493 288.937 207.31 288.148 206.946C287.359 206.575 286.732 206.041 286.268 205.345C285.804 204.642 285.572 203.794 285.572 202.8C285.572 201.925 285.745 201.215 286.089 200.672C286.434 200.122 286.895 199.691 287.472 199.379C288.048 199.068 288.685 198.836 289.381 198.683C290.083 198.524 290.789 198.398 291.499 198.305C292.427 198.186 293.179 198.096 293.756 198.037C294.339 197.97 294.763 197.861 295.028 197.709C295.3 197.556 295.436 197.291 295.436 196.913V196.834C295.436 195.853 295.168 195.09 294.631 194.547C294.1 194.003 293.295 193.731 292.214 193.731C291.094 193.731 290.216 193.977 289.58 194.467C288.943 194.958 288.496 195.481 288.237 196.038L286.01 195.243C286.408 194.315 286.938 193.592 287.601 193.075C288.27 192.551 289 192.187 289.788 191.981C290.584 191.769 291.366 191.663 292.135 191.663C292.625 191.663 293.189 191.723 293.825 191.842C294.468 191.955 295.088 192.19 295.685 192.548C296.288 192.906 296.788 193.446 297.186 194.169C297.584 194.891 297.783 195.859 297.783 197.072V207.135H295.436V205.067H295.317C295.158 205.398 294.893 205.753 294.521 206.131C294.15 206.508 293.656 206.83 293.04 207.095C292.423 207.36 291.671 207.493 290.783 207.493ZM291.141 205.385C292.069 205.385 292.851 205.202 293.487 204.838C294.13 204.473 294.614 204.003 294.939 203.426C295.27 202.849 295.436 202.243 295.436 201.606V199.459C295.337 199.578 295.118 199.687 294.78 199.787C294.448 199.88 294.064 199.962 293.626 200.035C293.196 200.102 292.775 200.161 292.364 200.214C291.959 200.261 291.631 200.3 291.379 200.334C290.769 200.413 290.199 200.542 289.669 200.721C289.145 200.894 288.721 201.156 288.396 201.507C288.078 201.852 287.919 202.322 287.919 202.919C287.919 203.734 288.221 204.351 288.824 204.768C289.434 205.179 290.206 205.385 291.141 205.385ZM302.066 207.135V191.862H304.333V194.169H304.492C304.77 193.413 305.274 192.8 306.003 192.329C306.732 191.859 307.554 191.623 308.469 191.623C308.641 191.623 308.857 191.627 309.115 191.633C309.374 191.64 309.569 191.65 309.702 191.663V194.05C309.623 194.03 309.44 194 309.155 193.96C308.877 193.914 308.582 193.89 308.27 193.89C307.528 193.89 306.865 194.046 306.282 194.358C305.705 194.663 305.248 195.087 304.909 195.631C304.578 196.167 304.412 196.781 304.412 197.47V207.135H302.066ZM312.484 207.135V191.862H314.751V194.169H314.91C315.188 193.413 315.692 192.8 316.421 192.329C317.15 191.859 317.972 191.623 318.887 191.623C319.059 191.623 319.275 191.627 319.533 191.633C319.792 191.64 319.987 191.65 320.12 191.663V194.05C320.04 194.03 319.858 194 319.573 193.96C319.295 193.914 319 193.89 318.688 193.89C317.946 193.89 317.283 194.046 316.7 194.358C316.123 194.663 315.665 195.087 315.327 195.631C314.996 196.167 314.83 196.781 314.83 197.47V207.135H312.484ZM332.527 200.89V191.862H334.873V207.135H332.527V204.55H332.368C332.01 205.325 331.453 205.985 330.697 206.528C329.941 207.065 328.987 207.334 327.833 207.334C326.879 207.334 326.03 207.125 325.288 206.707C324.546 206.283 323.962 205.647 323.538 204.798C323.114 203.943 322.902 202.866 322.902 201.567V191.862H325.248V201.407C325.248 202.521 325.56 203.409 326.183 204.072C326.813 204.735 327.615 205.067 328.589 205.067C329.172 205.067 329.766 204.917 330.369 204.619C330.979 204.321 331.489 203.863 331.9 203.247C332.318 202.631 332.527 201.845 332.527 200.89ZM345.376 207.453C343.944 207.453 342.711 207.115 341.677 206.439C340.643 205.763 339.847 204.831 339.29 203.645C338.734 202.458 338.455 201.103 338.455 199.578C338.455 198.027 338.74 196.658 339.31 195.471C339.887 194.278 340.689 193.347 341.717 192.677C342.751 192.001 343.957 191.663 345.336 191.663C346.41 191.663 347.378 191.862 348.239 192.26C349.101 192.657 349.807 193.214 350.357 193.93C350.907 194.646 351.249 195.481 351.381 196.436H349.035C348.856 195.74 348.458 195.123 347.842 194.586C347.232 194.043 346.41 193.771 345.376 193.771C344.461 193.771 343.659 194.01 342.969 194.487C342.287 194.958 341.753 195.624 341.369 196.486C340.991 197.341 340.802 198.345 340.802 199.498C340.802 200.678 340.987 201.706 341.359 202.581C341.737 203.456 342.267 204.135 342.95 204.619C343.639 205.103 344.448 205.345 345.376 205.345C345.986 205.345 346.539 205.239 347.036 205.027C347.533 204.815 347.954 204.51 348.299 204.112C348.644 203.714 348.889 203.237 349.035 202.68H351.381C351.249 203.582 350.921 204.394 350.397 205.116C349.88 205.832 349.194 206.402 348.339 206.827C347.49 207.244 346.503 207.453 345.376 207.453ZM354.812 207.135V191.862H357.158V207.135H354.812ZM356.005 189.317C355.548 189.317 355.153 189.161 354.822 188.849C354.497 188.538 354.335 188.163 354.335 187.726C354.335 187.288 354.497 186.914 354.822 186.602C355.153 186.291 355.548 186.135 356.005 186.135C356.462 186.135 356.853 186.291 357.178 186.602C357.51 186.914 357.675 187.288 357.675 187.726C357.675 188.163 357.51 188.538 357.178 188.849C356.853 189.161 356.462 189.317 356.005 189.317ZM365.951 207.493C364.983 207.493 364.105 207.31 363.316 206.946C362.527 206.575 361.9 206.041 361.436 205.345C360.972 204.642 360.74 203.794 360.74 202.8C360.74 201.925 360.913 201.215 361.257 200.672C361.602 200.122 362.063 199.691 362.64 199.379C363.216 199.068 363.853 198.836 364.549 198.683C365.251 198.524 365.957 198.398 366.667 198.305C367.595 198.186 368.347 198.096 368.924 198.037C369.507 197.97 369.931 197.861 370.196 197.709C370.468 197.556 370.604 197.291 370.604 196.913V196.834C370.604 195.853 370.336 195.09 369.799 194.547C369.268 194.003 368.463 193.731 367.382 193.731C366.262 193.731 365.384 193.977 364.748 194.467C364.111 194.958 363.664 195.481 363.405 196.038L361.178 195.243C361.576 194.315 362.106 193.592 362.769 193.075C363.438 192.551 364.167 192.187 364.956 191.981C365.752 191.769 366.534 191.663 367.303 191.663C367.793 191.663 368.357 191.723 368.993 191.842C369.636 191.955 370.256 192.19 370.853 192.548C371.456 192.906 371.956 193.446 372.354 194.169C372.752 194.891 372.951 195.859 372.951 197.072V207.135H370.604V205.067H370.485C370.326 205.398 370.06 205.753 369.689 206.131C369.318 206.508 368.824 206.83 368.208 207.095C367.591 207.36 366.839 207.493 365.951 207.493ZM366.309 205.385C367.237 205.385 368.019 205.202 368.655 204.838C369.298 204.473 369.782 204.003 370.107 203.426C370.438 202.849 370.604 202.243 370.604 201.606V199.459C370.505 199.578 370.286 199.687 369.948 199.787C369.616 199.88 369.232 199.962 368.794 200.035C368.364 200.102 367.943 200.161 367.532 200.214C367.127 200.261 366.799 200.3 366.547 200.334C365.937 200.413 365.367 200.542 364.837 200.721C364.313 200.894 363.889 201.156 363.564 201.507C363.246 201.852 363.087 202.322 363.087 202.919C363.087 203.734 363.389 204.351 363.992 204.768C364.602 205.179 365.374 205.385 366.309 205.385ZM396.563 191.862C396.444 190.854 395.96 190.072 395.112 189.515C394.263 188.959 393.222 188.68 391.989 188.68C391.088 188.68 390.299 188.826 389.623 189.118C388.953 189.409 388.43 189.81 388.052 190.321C387.681 190.831 387.495 191.411 387.495 192.061C387.495 192.604 387.624 193.072 387.883 193.463C388.148 193.847 388.486 194.169 388.897 194.427C389.308 194.679 389.739 194.888 390.19 195.054C390.64 195.213 391.055 195.342 391.433 195.442L393.501 195.998C394.031 196.138 394.621 196.33 395.271 196.575C395.927 196.82 396.553 197.155 397.15 197.579C397.753 197.997 398.25 198.534 398.641 199.19C399.032 199.846 399.228 200.652 399.228 201.606C399.228 202.707 398.94 203.701 398.363 204.589C397.793 205.478 396.958 206.184 395.857 206.707C394.763 207.231 393.434 207.493 391.87 207.493C390.412 207.493 389.149 207.257 388.082 206.787C387.021 206.316 386.186 205.66 385.576 204.818C384.973 203.976 384.631 202.998 384.552 201.885H387.097C387.164 202.654 387.422 203.29 387.873 203.794C388.33 204.291 388.907 204.662 389.603 204.907C390.306 205.146 391.061 205.265 391.87 205.265C392.811 205.265 393.656 205.113 394.406 204.808C395.155 204.497 395.748 204.066 396.185 203.515C396.623 202.959 396.842 202.309 396.842 201.567C396.842 200.89 396.653 200.34 396.275 199.916C395.897 199.492 395.4 199.147 394.783 198.882C394.167 198.617 393.501 198.385 392.785 198.186L390.279 197.47C388.688 197.013 387.429 196.36 386.501 195.511C385.573 194.663 385.109 193.552 385.109 192.18C385.109 191.04 385.417 190.046 386.033 189.197C386.656 188.342 387.492 187.679 388.539 187.209C389.593 186.731 390.77 186.493 392.069 186.493C393.381 186.493 394.548 186.728 395.569 187.199C396.59 187.663 397.398 188.299 397.995 189.108C398.598 189.916 398.916 190.835 398.95 191.862H396.563ZM403.282 207.135V186.771H410.163C411.754 186.771 413.06 187.043 414.081 187.586C415.101 188.123 415.857 188.863 416.348 189.804C416.838 190.745 417.083 191.816 417.083 193.015C417.083 194.215 416.838 195.279 416.348 196.207C415.857 197.135 415.105 197.864 414.091 198.395C413.076 198.918 411.78 199.18 410.203 199.18H404.635V196.953H410.123C411.21 196.953 412.085 196.794 412.748 196.476C413.418 196.157 413.902 195.707 414.2 195.123C414.505 194.533 414.657 193.831 414.657 193.015C414.657 192.2 414.505 191.488 414.2 190.878C413.895 190.268 413.408 189.797 412.738 189.466C412.069 189.128 411.184 188.959 410.083 188.959H405.748V207.135H403.282ZM412.868 197.987L417.879 207.135H415.015L410.083 197.987H412.868ZM421.192 207.135V186.771H423.658V204.947H433.124V207.135H421.192ZM39.1506 227.393H36.0483C35.929 226.73 35.7069 226.147 35.3821 225.643C35.0573 225.14 34.6596 224.712 34.1889 224.361C33.7183 224.009 33.1913 223.744 32.608 223.565C32.0313 223.386 31.4181 223.297 30.7685 223.297C29.5952 223.297 28.5445 223.592 27.6165 224.182C26.6951 224.772 25.9659 225.637 25.429 226.777C24.8987 227.917 24.6335 229.309 24.6335 230.953C24.6335 232.61 24.8987 234.009 25.429 235.149C25.9659 236.289 26.6984 237.151 27.6264 237.734C28.5545 238.318 29.5985 238.609 30.7585 238.609C31.4015 238.609 32.0114 238.523 32.5881 238.351C33.1714 238.172 33.6984 237.91 34.169 237.565C34.6397 237.22 35.0374 236.8 35.3622 236.302C35.6937 235.799 35.9223 235.222 36.0483 234.572L39.1506 234.582C38.9848 235.583 38.6634 236.505 38.1861 237.346C37.7154 238.182 37.1089 238.904 36.3665 239.514C35.6307 240.117 34.7888 240.585 33.8409 240.916C32.893 241.247 31.8589 241.413 30.7386 241.413C28.9754 241.413 27.4044 240.996 26.0256 240.16C24.6468 239.318 23.5597 238.115 22.7642 236.551C21.9754 234.987 21.581 233.121 21.581 230.953C21.581 228.779 21.9787 226.913 22.7741 225.355C23.5696 223.791 24.6567 222.591 26.0355 221.756C27.4143 220.914 28.982 220.493 30.7386 220.493C31.8191 220.493 32.8267 220.648 33.7614 220.96C34.7027 221.265 35.5478 221.716 36.2969 222.312C37.0459 222.902 37.6657 223.625 38.1562 224.48C38.6468 225.328 38.9782 226.3 39.1506 227.393ZM49.1708 241.443C47.6661 241.443 46.3701 241.122 45.283 240.479C44.2025 239.829 43.3673 238.917 42.7773 237.744C42.194 236.564 41.9023 235.182 41.9023 233.598C41.9023 232.033 42.194 230.655 42.7773 229.461C43.3673 228.268 44.1893 227.337 45.2433 226.667C46.3039 225.998 47.5434 225.663 48.962 225.663C49.8237 225.663 50.659 225.806 51.4677 226.091C52.2764 226.376 53.0022 226.823 53.6452 227.433C54.2882 228.043 54.7953 228.835 55.1665 229.809C55.5378 230.777 55.7234 231.954 55.7234 233.339V234.393H43.5827V232.166H52.81C52.81 231.384 52.6509 230.691 52.3327 230.088C52.0146 229.478 51.5671 228.997 50.9904 228.646C50.4203 228.295 49.7508 228.119 48.9819 228.119C48.1467 228.119 47.4175 228.325 46.7944 228.736C46.1779 229.14 45.7006 229.67 45.3626 230.327C45.0311 230.976 44.8654 231.682 44.8654 232.444V234.184C44.8654 235.205 45.0444 236.074 45.4023 236.79C45.7669 237.506 46.274 238.052 46.9237 238.43C47.5733 238.801 48.3323 238.987 49.2006 238.987C49.7641 238.987 50.2778 238.907 50.7418 238.748C51.2058 238.583 51.6069 238.337 51.945 238.013C52.283 237.688 52.5415 237.287 52.7205 236.809L55.5344 237.317C55.3091 238.145 54.9047 238.871 54.3214 239.494C53.7447 240.111 53.0188 240.591 52.1438 240.936C51.2754 241.274 50.2844 241.443 49.1708 241.443ZM47.6197 223.824L49.9464 219.24H53.0785L49.9961 223.824H47.6197ZM64.7393 241.433C63.5064 241.433 62.406 241.118 61.4382 240.488C60.477 239.852 59.7214 238.947 59.1712 237.774C58.6276 236.594 58.3558 235.179 58.3558 233.528C58.3558 231.878 58.6309 230.466 59.1811 229.292C59.7379 228.119 60.5002 227.221 61.468 226.598C62.4358 225.975 63.5329 225.663 64.7592 225.663C65.7071 225.663 66.4695 225.822 67.0462 226.14C67.6295 226.452 68.0803 226.817 68.3984 227.234C68.7232 227.652 68.9751 228.02 69.1541 228.338H69.3331V220.771H72.3061V241.135H69.4027V238.758H69.1541C68.9751 239.083 68.7166 239.454 68.3786 239.872C68.0471 240.29 67.5897 240.654 67.0064 240.966C66.4231 241.277 65.6674 241.433 64.7393 241.433ZM65.3956 238.898C66.2507 238.898 66.9732 238.672 67.5632 238.221C68.1598 237.764 68.6106 237.131 68.9155 236.322C69.227 235.514 69.3828 234.572 69.3828 233.498C69.3828 232.438 69.2304 231.51 68.9254 230.714C68.6205 229.919 68.1731 229.299 67.5831 228.855C66.9931 228.411 66.264 228.189 65.3956 228.189C64.5007 228.189 63.755 228.421 63.1584 228.885C62.5618 229.349 62.111 229.982 61.8061 230.784C61.5078 231.586 61.3587 232.491 61.3587 233.498C61.3587 234.519 61.5111 235.437 61.8161 236.253C62.121 237.068 62.5717 237.714 63.1683 238.192C63.7715 238.662 64.514 238.898 65.3956 238.898ZM86.2241 234.801V225.862H89.207V241.135H86.2837V238.49H86.1246C85.7733 239.305 85.2099 239.985 84.4343 240.528C83.6654 241.065 82.7075 241.334 81.5607 241.334C80.5797 241.334 79.7113 241.118 78.9556 240.687C78.2066 240.25 77.6166 239.604 77.1857 238.748C76.7615 237.893 76.5494 236.836 76.5494 235.577V225.862H79.5224V235.219C79.5224 236.259 79.8107 237.088 80.3874 237.704C80.9641 238.321 81.7132 238.629 82.6346 238.629C83.1914 238.629 83.7449 238.49 84.2951 238.211C84.8519 237.933 85.3126 237.512 85.6772 236.949C86.0484 236.385 86.2307 235.669 86.2241 234.801ZM96.1747 220.771V241.135H93.2017V220.771H96.1747ZM104.619 241.473C103.651 241.473 102.776 241.294 101.994 240.936C101.212 240.571 100.592 240.044 100.135 239.355C99.6838 238.666 99.4585 237.82 99.4585 236.819C99.4585 235.958 99.6242 235.248 99.9556 234.692C100.287 234.135 100.734 233.694 101.298 233.369C101.861 233.044 102.491 232.799 103.187 232.633C103.883 232.468 104.592 232.342 105.315 232.256C106.23 232.149 106.972 232.063 107.542 231.997C108.112 231.924 108.527 231.808 108.785 231.649C109.044 231.49 109.173 231.231 109.173 230.873V230.804C109.173 229.935 108.928 229.263 108.437 228.785C107.953 228.308 107.231 228.069 106.27 228.069C105.269 228.069 104.48 228.291 103.903 228.736C103.333 229.173 102.939 229.66 102.72 230.197L99.9258 229.561C100.257 228.633 100.741 227.884 101.377 227.314C102.02 226.737 102.76 226.319 103.595 226.061C104.43 225.796 105.308 225.663 106.23 225.663C106.84 225.663 107.486 225.736 108.169 225.882C108.858 226.021 109.501 226.28 110.098 226.657C110.701 227.035 111.195 227.576 111.579 228.278C111.964 228.974 112.156 229.879 112.156 230.993V241.135H109.252V239.047H109.133C108.941 239.431 108.653 239.809 108.268 240.18C107.884 240.551 107.39 240.86 106.787 241.105C106.183 241.35 105.461 241.473 104.619 241.473ZM105.265 239.086C106.087 239.086 106.79 238.924 107.373 238.599C107.963 238.274 108.411 237.85 108.716 237.327C109.027 236.796 109.183 236.229 109.183 235.626V233.657C109.077 233.764 108.871 233.863 108.566 233.956C108.268 234.042 107.927 234.118 107.542 234.184C107.158 234.244 106.783 234.3 106.419 234.354C106.054 234.4 105.749 234.44 105.504 234.473C104.927 234.546 104.4 234.668 103.923 234.841C103.452 235.013 103.074 235.262 102.789 235.586C102.511 235.905 102.372 236.329 102.372 236.859C102.372 237.595 102.644 238.152 103.187 238.53C103.731 238.901 104.423 239.086 105.265 239.086ZM117.975 238.53C117.485 238.53 117.064 238.354 116.712 238.003C116.361 237.651 116.185 237.23 116.185 236.74C116.185 236.249 116.361 235.828 116.712 235.477C117.064 235.126 117.485 234.95 117.975 234.95C118.466 234.95 118.887 235.126 119.238 235.477C119.589 235.828 119.765 236.249 119.765 236.74C119.765 237.065 119.682 237.363 119.516 237.635C119.357 237.907 119.142 238.125 118.87 238.291C118.605 238.45 118.307 238.53 117.975 238.53ZM117.975 228.229C117.485 228.229 117.064 228.053 116.712 227.702C116.361 227.35 116.185 226.929 116.185 226.439C116.185 225.948 116.361 225.527 116.712 225.176C117.064 224.825 117.485 224.649 117.975 224.649C118.466 224.649 118.887 224.825 119.238 225.176C119.589 225.527 119.765 225.948 119.765 226.439C119.765 226.764 119.682 227.062 119.516 227.334C119.357 227.605 119.142 227.824 118.87 227.99C118.605 228.149 118.307 228.229 117.975 228.229ZM138.692 241.413C137.379 241.413 136.209 241.188 135.182 240.737C134.161 240.286 133.349 239.66 132.746 238.858C132.149 238.049 131.824 237.111 131.771 236.044H134.277C134.33 236.7 134.555 237.267 134.953 237.744C135.351 238.215 135.871 238.579 136.514 238.838C137.157 239.096 137.87 239.226 138.652 239.226C139.527 239.226 140.303 239.073 140.979 238.768C141.655 238.463 142.185 238.039 142.57 237.496C142.954 236.952 143.146 236.322 143.146 235.606C143.146 234.857 142.961 234.198 142.589 233.628C142.218 233.051 141.675 232.6 140.959 232.275C140.243 231.951 139.368 231.788 138.334 231.788H136.703V229.601H138.334C139.143 229.601 139.852 229.455 140.462 229.163C141.078 228.872 141.559 228.461 141.903 227.93C142.255 227.4 142.43 226.777 142.43 226.061C142.43 225.372 142.278 224.772 141.973 224.261C141.668 223.751 141.237 223.353 140.68 223.068C140.13 222.783 139.481 222.64 138.732 222.64C138.029 222.64 137.366 222.77 136.743 223.028C136.126 223.28 135.623 223.648 135.232 224.132C134.84 224.609 134.628 225.186 134.595 225.862H132.209C132.249 224.795 132.57 223.86 133.173 223.058C133.777 222.249 134.565 221.62 135.54 221.169C136.521 220.718 137.598 220.493 138.771 220.493C140.031 220.493 141.111 220.748 142.013 221.258C142.914 221.762 143.607 222.428 144.091 223.257C144.575 224.086 144.817 224.98 144.817 225.942C144.817 227.088 144.515 228.066 143.912 228.875C143.315 229.684 142.503 230.244 141.476 230.555V230.714C142.762 230.926 143.766 231.473 144.489 232.355C145.211 233.23 145.572 234.314 145.572 235.606C145.572 236.713 145.271 237.708 144.668 238.589C144.071 239.464 143.256 240.154 142.222 240.657C141.188 241.161 140.011 241.413 138.692 241.413ZM156.798 220.771V241.135H154.332V223.356H154.213L149.241 226.657V224.152L154.332 220.771H156.798ZM169.297 241.413C167.799 241.413 166.523 241.006 165.469 240.19C164.415 239.368 163.609 238.178 163.053 236.621C162.496 235.056 162.217 233.167 162.217 230.953C162.217 228.752 162.496 226.873 163.053 225.315C163.616 223.751 164.425 222.558 165.479 221.736C166.539 220.907 167.812 220.493 169.297 220.493C170.782 220.493 172.051 220.907 173.105 221.736C174.166 222.558 174.974 223.751 175.531 225.315C176.095 226.873 176.376 228.752 176.376 230.953C176.376 233.167 176.098 235.056 175.541 236.621C174.984 238.178 174.179 239.368 173.125 240.19C172.071 241.006 170.795 241.413 169.297 241.413ZM169.297 239.226C170.782 239.226 171.935 238.51 172.757 237.078C173.579 235.646 173.99 233.604 173.99 230.953C173.99 229.19 173.801 227.688 173.423 226.449C173.052 225.209 172.515 224.264 171.812 223.615C171.116 222.965 170.278 222.64 169.297 222.64C167.825 222.64 166.675 223.366 165.847 224.818C165.018 226.263 164.604 228.308 164.604 230.953C164.604 232.716 164.789 234.214 165.161 235.447C165.532 236.68 166.065 237.618 166.761 238.261C167.464 238.904 168.309 239.226 169.297 239.226ZM180.155 241.135V239.345L186.876 231.987C187.665 231.125 188.315 230.376 188.825 229.74C189.336 229.097 189.714 228.494 189.959 227.93C190.211 227.36 190.337 226.764 190.337 226.14C190.337 225.425 190.164 224.805 189.82 224.281C189.482 223.757 189.018 223.353 188.428 223.068C187.838 222.783 187.175 222.64 186.439 222.64C185.657 222.64 184.974 222.803 184.391 223.128C183.814 223.446 183.366 223.893 183.048 224.47C182.737 225.047 182.581 225.723 182.581 226.498H180.234C180.234 225.305 180.509 224.258 181.06 223.356C181.61 222.455 182.359 221.752 183.307 221.248C184.261 220.745 185.332 220.493 186.518 220.493C187.712 220.493 188.769 220.745 189.69 221.248C190.612 221.752 191.334 222.432 191.858 223.287C192.382 224.142 192.643 225.093 192.643 226.14C192.643 226.89 192.508 227.622 192.236 228.338C191.971 229.047 191.507 229.839 190.844 230.714C190.188 231.583 189.276 232.643 188.109 233.896L183.536 238.788V238.947H193.001V241.135H180.155ZM197.744 241.135L206.852 223.118V222.959H196.352V220.771H209.398V223.078L200.33 241.135H197.744ZM214.287 241.135L223.395 223.118V222.959H212.895V220.771H225.941V223.078L216.873 241.135H214.287ZM235.857 220.493C236.692 220.499 237.527 220.658 238.362 220.97C239.197 221.282 239.96 221.799 240.649 222.521C241.339 223.237 241.892 224.215 242.31 225.454C242.727 226.694 242.936 228.248 242.936 230.118C242.936 231.927 242.764 233.535 242.419 234.94C242.081 236.339 241.59 237.519 240.947 238.48C240.311 239.441 239.536 240.17 238.621 240.667C237.713 241.165 236.685 241.413 235.538 241.413C234.398 241.413 233.381 241.188 232.486 240.737C231.598 240.28 230.868 239.647 230.298 238.838C229.735 238.023 229.374 237.078 229.214 236.004H231.641C231.859 236.939 232.294 237.711 232.943 238.321C233.599 238.924 234.464 239.226 235.538 239.226C237.109 239.226 238.349 238.54 239.257 237.167C240.172 235.795 240.629 233.856 240.629 231.351H240.47C240.099 231.907 239.658 232.388 239.148 232.792C238.637 233.197 238.071 233.508 237.447 233.727C236.824 233.946 236.161 234.055 235.459 234.055C234.292 234.055 233.222 233.767 232.247 233.19C231.279 232.607 230.504 231.808 229.92 230.794C229.344 229.773 229.055 228.606 229.055 227.294C229.055 226.048 229.334 224.907 229.891 223.873C230.454 222.833 231.243 222.004 232.257 221.388C233.278 220.771 234.478 220.473 235.857 220.493ZM235.857 222.68C235.021 222.68 234.269 222.889 233.599 223.307C232.937 223.718 232.41 224.274 232.018 224.977C231.634 225.673 231.442 226.445 231.442 227.294C231.442 228.142 231.627 228.915 231.999 229.611C232.376 230.3 232.89 230.85 233.54 231.261C234.196 231.666 234.942 231.868 235.777 231.868C236.407 231.868 236.993 231.745 237.537 231.5C238.08 231.248 238.554 230.907 238.959 230.476C239.37 230.038 239.691 229.544 239.923 228.994C240.155 228.437 240.271 227.857 240.271 227.254C240.271 226.459 240.079 225.713 239.695 225.017C239.317 224.321 238.793 223.757 238.124 223.327C237.461 222.896 236.705 222.68 235.857 222.68ZM253.21 241.413C252.043 241.413 250.993 241.181 250.058 240.717C249.123 240.253 248.374 239.617 247.811 238.808C247.247 237.999 246.939 237.078 246.886 236.044H249.272C249.365 236.965 249.783 237.728 250.525 238.331C251.274 238.927 252.169 239.226 253.21 239.226C254.045 239.226 254.788 239.03 255.437 238.639C256.093 238.248 256.607 237.711 256.978 237.028C257.356 236.339 257.545 235.56 257.545 234.692C257.545 233.803 257.35 233.011 256.958 232.315C256.574 231.613 256.044 231.059 255.368 230.655C254.691 230.25 253.919 230.045 253.051 230.038C252.428 230.032 251.788 230.128 251.132 230.327C250.475 230.519 249.935 230.767 249.511 231.072L247.204 230.794L248.437 220.771H259.017V222.959H250.505L249.789 228.964H249.909C250.326 228.633 250.85 228.358 251.48 228.139C252.109 227.92 252.766 227.811 253.449 227.811C254.695 227.811 255.805 228.109 256.779 228.706C257.761 229.296 258.529 230.104 259.086 231.132C259.65 232.159 259.931 233.333 259.931 234.652C259.931 235.951 259.64 237.111 259.056 238.132C258.48 239.146 257.684 239.948 256.67 240.538C255.656 241.122 254.502 241.413 253.21 241.413ZM270.245 241.413C269.078 241.413 268.028 241.181 267.093 240.717C266.158 240.253 265.409 239.617 264.846 238.808C264.282 237.999 263.974 237.078 263.921 236.044H266.308C266.4 236.965 266.818 237.728 267.56 238.331C268.309 238.927 269.204 239.226 270.245 239.226C271.08 239.226 271.823 239.03 272.472 238.639C273.129 238.248 273.642 237.711 274.013 237.028C274.391 236.339 274.58 235.56 274.58 234.692C274.58 233.803 274.385 233.011 273.994 232.315C273.609 231.613 273.079 231.059 272.403 230.655C271.727 230.25 270.954 230.045 270.086 230.038C269.463 230.032 268.823 230.128 268.167 230.327C267.511 230.519 266.97 230.767 266.546 231.072L264.239 230.794L265.472 220.771H276.052V222.959H267.54L266.825 228.964H266.944C267.362 228.633 267.885 228.358 268.515 228.139C269.145 227.92 269.801 227.811 270.484 227.811C271.73 227.811 272.84 228.109 273.815 228.706C274.796 229.296 275.565 230.104 276.121 231.132C276.685 232.159 276.967 233.333 276.967 234.652C276.967 235.951 276.675 237.111 276.092 238.132C275.515 239.146 274.719 239.948 273.705 240.538C272.691 241.122 271.538 241.413 270.245 241.413ZM288.076 220.771V241.135H285.61V223.356H285.49L280.519 226.657V224.152L285.61 220.771H288.076Z" fill="black"/>
</svg>
