<svg width="367" height="197" viewBox="0 0 367 197" fill="none" xmlns="http://www.w3.org/2000/svg">
<rect width="367" height="197" rx="7" fill="#F0F0F0"/>
<path fill-rule="evenodd" clip-rule="evenodd" d="M180.458 19.3099C182.443 18.717 184.557 18.717 186.542 19.3099C187.79 19.6827 188.873 20.3373 189.991 21.1855C191.072 22.0048 192.31 23.1036 193.832 24.4551L193.899 24.5147L222.753 50.1325C223.443 50.7452 223.683 51.7207 223.355 52.5834C223.027 53.4461 222.201 54.0165 221.278 54.0165H145.722C144.799 54.0165 143.973 53.4461 143.645 52.5834C143.317 51.7207 143.557 50.7452 144.247 50.1325L173.101 24.5148L173.167 24.4558C174.69 23.1039 175.928 22.005 177.009 21.1855C178.127 20.3373 179.21 19.6827 180.458 19.3099ZM181.73 23.5684C181.196 23.7279 180.599 24.0404 179.694 24.7269C178.766 25.4303 177.656 26.4138 176.052 27.8383C176.052 27.8383 176.052 27.8383 176.052 27.8383L151.572 49.572H215.428L190.949 27.8384C189.344 26.4139 188.234 25.4303 187.306 24.727C186.401 24.0404 185.804 23.7279 185.27 23.5684M181.73 23.5684C182.885 23.2235 184.115 23.2235 185.27 23.5684H181.73ZM185.176 37.7228C186.001 38.6312 185.934 40.0366 185.025 40.8618L184.994 40.8901C184.086 41.7153 182.68 41.6479 181.855 40.7395C181.03 39.8311 181.097 38.4257 182.006 37.6004L182.037 37.5722C182.945 36.7469 184.351 36.8143 185.176 37.7228ZM158.315 62.1498C159.542 62.1498 160.537 63.1447 160.537 64.372V83.1127H172.883V64.372C172.883 63.1447 173.878 62.1498 175.105 62.1498C176.332 62.1498 177.327 63.1447 177.327 64.372V83.1127H189.673V64.372C189.673 63.1447 190.668 62.1498 191.895 62.1498C193.122 62.1498 194.117 63.1447 194.117 64.372V83.1127H206.463V64.372C206.463 63.1447 207.458 62.1498 208.685 62.1498C209.912 62.1498 210.907 63.1447 210.907 64.372V83.1127H217.08C218.307 83.1127 219.302 84.1076 219.302 85.3349C219.302 86.5622 218.307 87.5571 217.08 87.5571H149.92C148.693 87.5571 147.698 86.5622 147.698 85.3349C147.698 84.1076 148.693 83.1127 149.92 83.1127H156.093V64.372C156.093 63.1447 157.088 62.1498 158.315 62.1498ZM143.5 97.9127C143.5 96.6854 144.495 95.6905 145.722 95.6905H221.278C222.505 95.6905 223.5 96.6854 223.5 97.9127C223.5 99.14 222.505 100.135 221.278 100.135H145.722C144.495 100.135 143.5 99.14 143.5 97.9127Z" fill="#3F8EFC"/>
<path d="M33.9968 118.959V116.771H49.2695V118.959H42.8661V137.135H40.4002V118.959H33.9968ZM51.1712 137.135V121.862H53.4382V124.169H53.5973C53.8757 123.413 54.3795 122.8 55.1087 122.329C55.8378 121.859 56.6598 121.623 57.5746 121.623C57.7469 121.623 57.9624 121.627 58.2209 121.633C58.4794 121.64 58.675 121.65 58.8075 121.663V124.05C58.728 124.03 58.5457 124 58.2607 123.96C57.9822 123.914 57.6873 123.89 57.3757 123.89C56.6333 123.89 55.9704 124.046 55.3871 124.358C54.8104 124.663 54.353 125.087 54.0149 125.631C53.6835 126.167 53.5178 126.781 53.5178 127.47V137.135H51.1712ZM66.0835 137.493C65.1156 137.493 64.2373 137.31 63.4485 136.946C62.6597 136.575 62.0333 136.041 61.5692 135.345C61.1052 134.642 60.8732 133.794 60.8732 132.8C60.8732 131.925 61.0456 131.215 61.3903 130.672C61.735 130.122 62.1957 129.691 62.7724 129.379C63.3491 129.068 63.9854 128.836 64.6815 128.683C65.3841 128.524 66.0901 128.398 66.7994 128.305C67.7274 128.186 68.4798 128.096 69.0565 128.037C69.6398 127.97 70.064 127.861 70.3292 127.709C70.601 127.556 70.7369 127.291 70.7369 126.913V126.834C70.7369 125.853 70.4684 125.09 69.9315 124.547C69.4012 124.003 68.5958 123.731 67.5153 123.731C66.395 123.731 65.5167 123.977 64.8803 124.467C64.244 124.958 63.7965 125.481 63.538 126.038L61.3107 125.243C61.7085 124.315 62.2388 123.592 62.9016 123.075C63.5711 122.551 64.3003 122.187 65.0891 121.981C65.8846 121.769 66.6668 121.663 67.4357 121.663C67.9263 121.663 68.4897 121.723 69.1261 121.842C69.7691 121.955 70.3888 122.19 70.9854 122.548C71.5887 122.906 72.0891 123.446 72.4869 124.169C72.8846 124.891 73.0835 125.859 73.0835 127.072V137.135H70.7369V135.067H70.6175C70.4585 135.398 70.1933 135.753 69.8221 136.131C69.4509 136.508 68.957 136.83 68.3406 137.095C67.7241 137.36 66.9717 137.493 66.0835 137.493ZM66.4414 135.385C67.3694 135.385 68.1516 135.202 68.788 134.838C69.431 134.473 69.9149 134.003 70.2397 133.426C70.5711 132.849 70.7369 132.243 70.7369 131.606V129.459C70.6374 129.578 70.4187 129.687 70.0806 129.787C69.7492 129.88 69.3647 129.962 68.9272 130.035C68.4963 130.102 68.0754 130.161 67.6644 130.214C67.2601 130.261 66.9319 130.3 66.68 130.334C66.0702 130.413 65.5001 130.542 64.9698 130.721C64.4461 130.894 64.0219 131.156 63.6971 131.507C63.3789 131.852 63.2198 132.322 63.2198 132.919C63.2198 133.734 63.5214 134.351 64.1246 134.768C64.7345 135.179 65.5067 135.385 66.4414 135.385ZM79.7131 127.947V137.135H77.3665V121.862H79.6335V124.248H79.8324C80.1903 123.473 80.7339 122.85 81.4631 122.379C82.1922 121.902 83.1335 121.663 84.2869 121.663C85.321 121.663 86.2259 121.875 87.0014 122.3C87.777 122.717 88.3802 123.354 88.8111 124.209C89.242 125.057 89.4574 126.131 89.4574 127.43V137.135H87.1108V127.589C87.1108 126.39 86.7992 125.455 86.1761 124.785C85.553 124.109 84.6979 123.771 83.6108 123.771C82.8617 123.771 82.1922 123.934 81.6023 124.258C81.0189 124.583 80.5582 125.057 80.2202 125.68C79.8821 126.303 79.7131 127.059 79.7131 127.947ZM104.564 125.282L102.456 125.879C102.323 125.528 102.127 125.186 101.869 124.855C101.617 124.517 101.272 124.238 100.835 124.02C100.397 123.801 99.8372 123.692 99.1545 123.692C98.2198 123.692 97.4409 123.907 96.8178 124.338C96.2013 124.762 95.8931 125.302 95.8931 125.959C95.8931 126.542 96.1052 127.003 96.5295 127.341C96.9537 127.679 97.6166 127.961 98.5181 128.186L100.785 128.743C102.151 129.074 103.168 129.581 103.838 130.264C104.507 130.94 104.842 131.812 104.842 132.879C104.842 133.754 104.59 134.536 104.086 135.226C103.589 135.915 102.893 136.459 101.998 136.856C101.103 137.254 100.063 137.453 98.8761 137.453C97.3183 137.453 96.029 137.115 95.0082 136.439C93.9873 135.763 93.341 134.775 93.0692 133.476L95.2965 132.919C95.5086 133.741 95.9097 134.357 96.4996 134.768C97.0962 135.179 97.8751 135.385 98.8363 135.385C99.93 135.385 100.798 135.153 101.441 134.689C102.091 134.218 102.416 133.655 102.416 132.998C102.416 132.468 102.23 132.024 101.859 131.666C101.488 131.301 100.918 131.03 100.149 130.851L97.6033 130.254C96.2047 129.923 95.1772 129.409 94.521 128.713C93.8713 128.01 93.5465 127.132 93.5465 126.078C93.5465 125.216 93.7885 124.454 94.2724 123.791C94.7629 123.128 95.4291 122.608 96.271 122.23C97.1194 121.852 98.0806 121.663 99.1545 121.663C100.666 121.663 101.852 121.995 102.714 122.657C103.583 123.32 104.199 124.195 104.564 125.282ZM115.175 121.862V123.851H106.942V121.862H115.175ZM109.408 137.135V119.754C109.408 118.879 109.614 118.15 110.025 117.567C110.436 116.983 110.969 116.546 111.626 116.254C112.282 115.962 112.975 115.817 113.704 115.817C114.281 115.817 114.751 115.863 115.116 115.956C115.48 116.049 115.752 116.135 115.931 116.214L115.255 118.243C115.136 118.203 114.97 118.153 114.758 118.094C114.552 118.034 114.281 118.004 113.942 118.004C113.167 118.004 112.607 118.2 112.262 118.591C111.924 118.982 111.755 119.555 111.755 120.311V137.135H109.408ZM124.239 137.453C122.767 137.453 121.498 137.128 120.43 136.479C119.37 135.822 118.551 134.907 117.974 133.734C117.404 132.554 117.119 131.182 117.119 129.618C117.119 128.053 117.404 126.675 117.974 125.481C118.551 124.282 119.353 123.347 120.381 122.677C121.415 122.001 122.621 121.663 124 121.663C124.795 121.663 125.581 121.796 126.357 122.061C127.132 122.326 127.838 122.757 128.474 123.354C129.111 123.943 129.618 124.726 129.996 125.7C130.374 126.675 130.562 127.874 130.562 129.3V130.294H118.79V128.265H128.176C128.176 127.404 128.004 126.635 127.659 125.959C127.321 125.282 126.837 124.749 126.207 124.358C125.584 123.967 124.848 123.771 124 123.771C123.065 123.771 122.257 124.003 121.574 124.467C120.898 124.925 120.377 125.521 120.013 126.257C119.648 126.993 119.466 127.782 119.466 128.623V129.976C119.466 131.129 119.665 132.107 120.062 132.909C120.467 133.704 121.027 134.311 121.743 134.729C122.459 135.14 123.291 135.345 124.239 135.345C124.855 135.345 125.412 135.259 125.909 135.086C126.413 134.907 126.847 134.642 127.212 134.291C127.576 133.933 127.858 133.489 128.057 132.959L130.324 133.595C130.085 134.364 129.684 135.04 129.121 135.623C128.557 136.2 127.861 136.651 127.033 136.976C126.204 137.294 125.273 137.453 124.239 137.453ZM134.132 137.135V121.862H136.399V124.169H136.558C136.837 123.413 137.34 122.8 138.07 122.329C138.799 121.859 139.621 121.623 140.536 121.623C140.708 121.623 140.923 121.627 141.182 121.633C141.44 121.64 141.636 121.65 141.768 121.663V124.05C141.689 124.03 141.507 124 141.222 123.96C140.943 123.914 140.648 123.89 140.337 123.89C139.594 123.89 138.931 124.046 138.348 124.358C137.771 124.663 137.314 125.087 136.976 125.631C136.644 126.167 136.479 126.781 136.479 127.47V137.135H134.132ZM150.489 137.453C149.017 137.453 147.748 137.128 146.68 136.479C145.62 135.822 144.801 134.907 144.224 133.734C143.654 132.554 143.369 131.182 143.369 129.618C143.369 128.053 143.654 126.675 144.224 125.481C144.801 124.282 145.603 123.347 146.631 122.677C147.665 122.001 148.871 121.663 150.25 121.663C151.045 121.663 151.831 121.796 152.607 122.061C153.382 122.326 154.088 122.757 154.724 123.354C155.361 123.943 155.868 124.726 156.246 125.7C156.624 126.675 156.812 127.874 156.812 129.3V130.294H145.04V128.265H154.426C154.426 127.404 154.254 126.635 153.909 125.959C153.571 125.282 153.087 124.749 152.457 124.358C151.834 123.967 151.098 123.771 150.25 123.771C149.315 123.771 148.507 124.003 147.824 124.467C147.148 124.925 146.627 125.521 146.263 126.257C145.898 126.993 145.716 127.782 145.716 128.623V129.976C145.716 131.129 145.915 132.107 146.312 132.909C146.717 133.704 147.277 134.311 147.993 134.729C148.709 135.14 149.541 135.345 150.489 135.345C151.105 135.345 151.662 135.259 152.159 135.086C152.663 134.907 153.097 134.642 153.462 134.291C153.826 133.933 154.108 133.489 154.307 132.959L156.574 133.595C156.335 134.364 155.934 135.04 155.371 135.623C154.807 136.2 154.111 136.651 153.283 136.976C152.454 137.294 151.523 137.453 150.489 137.453ZM162.729 127.947V137.135H160.382V121.862H162.649V124.248H162.848C163.206 123.473 163.75 122.85 164.479 122.379C165.208 121.902 166.149 121.663 167.303 121.663C168.337 121.663 169.241 121.875 170.017 122.3C170.793 122.717 171.396 123.354 171.827 124.209C172.258 125.057 172.473 126.131 172.473 127.43V137.135H170.126V127.589C170.126 126.39 169.815 125.455 169.192 124.785C168.569 124.109 167.714 123.771 166.626 123.771C165.877 123.771 165.208 123.934 164.618 124.258C164.035 124.583 163.574 125.057 163.236 125.68C162.898 126.303 162.729 127.059 162.729 127.947ZM182.966 137.453C181.534 137.453 180.301 137.115 179.267 136.439C178.233 135.763 177.437 134.831 176.88 133.645C176.324 132.458 176.045 131.103 176.045 129.578C176.045 128.027 176.33 126.658 176.9 125.471C177.477 124.278 178.279 123.347 179.306 122.677C180.341 122.001 181.547 121.663 182.926 121.663C184 121.663 184.967 121.862 185.829 122.26C186.691 122.657 187.397 123.214 187.947 123.93C188.497 124.646 188.839 125.481 188.971 126.436H186.625C186.446 125.74 186.048 125.123 185.431 124.586C184.822 124.043 184 123.771 182.966 123.771C182.051 123.771 181.249 124.01 180.559 124.487C179.877 124.958 179.343 125.624 178.958 126.486C178.581 127.341 178.392 128.345 178.392 129.498C178.392 130.678 178.577 131.706 178.949 132.581C179.326 133.456 179.857 134.135 180.539 134.619C181.229 135.103 182.038 135.345 182.966 135.345C183.575 135.345 184.129 135.239 184.626 135.027C185.123 134.815 185.544 134.51 185.889 134.112C186.234 133.714 186.479 133.237 186.625 132.68H188.971C188.839 133.582 188.511 134.394 187.987 135.116C187.47 135.832 186.784 136.402 185.929 136.827C185.08 137.244 184.092 137.453 182.966 137.453ZM192.402 137.135V121.862H194.748V137.135H192.402ZM193.595 119.317C193.137 119.317 192.743 119.161 192.412 118.849C192.087 118.538 191.924 118.163 191.924 117.726C191.924 117.288 192.087 116.914 192.412 116.602C192.743 116.291 193.137 116.135 193.595 116.135C194.052 116.135 194.443 116.291 194.768 116.602C195.1 116.914 195.265 117.288 195.265 117.726C195.265 118.163 195.1 118.538 194.768 118.849C194.443 119.161 194.052 119.317 193.595 119.317ZM203.54 137.493C202.573 137.493 201.694 137.31 200.906 136.946C200.117 136.575 199.49 136.041 199.026 135.345C198.562 134.642 198.33 133.794 198.33 132.8C198.33 131.925 198.503 131.215 198.847 130.672C199.192 130.122 199.653 129.691 200.229 129.379C200.806 129.068 201.442 128.836 202.138 128.683C202.841 128.524 203.547 128.398 204.256 128.305C205.184 128.186 205.937 128.096 206.513 128.037C207.097 127.97 207.521 127.861 207.786 127.709C208.058 127.556 208.194 127.291 208.194 126.913V126.834C208.194 125.853 207.925 125.09 207.388 124.547C206.858 124.003 206.053 123.731 204.972 123.731C203.852 123.731 202.974 123.977 202.337 124.467C201.701 124.958 201.254 125.481 200.995 126.038L198.768 125.243C199.165 124.315 199.696 123.592 200.359 123.075C201.028 122.551 201.757 122.187 202.546 121.981C203.342 121.769 204.124 121.663 204.893 121.663C205.383 121.663 205.947 121.723 206.583 121.842C207.226 121.955 207.846 122.19 208.442 122.548C209.046 122.906 209.546 123.446 209.944 124.169C210.342 124.891 210.54 125.859 210.54 127.072V137.135H208.194V135.067H208.075C207.915 135.398 207.65 135.753 207.279 136.131C206.908 136.508 206.414 136.83 205.798 137.095C205.181 137.36 204.429 137.493 203.54 137.493ZM203.898 135.385C204.826 135.385 205.609 135.202 206.245 134.838C206.888 134.473 207.372 134.003 207.697 133.426C208.028 132.849 208.194 132.243 208.194 131.606V129.459C208.094 129.578 207.876 129.687 207.538 129.787C207.206 129.88 206.822 129.962 206.384 130.035C205.953 130.102 205.532 130.161 205.121 130.214C204.717 130.261 204.389 130.3 204.137 130.334C203.527 130.413 202.957 130.542 202.427 130.721C201.903 130.894 201.479 131.156 201.154 131.507C200.836 131.852 200.677 132.322 200.677 132.919C200.677 133.734 200.978 134.351 201.582 134.768C202.192 135.179 202.964 135.385 203.898 135.385ZM223.017 137.135V116.771H225.363V124.288H225.562C225.734 124.023 225.973 123.685 226.278 123.274C226.59 122.856 227.034 122.485 227.61 122.16C228.194 121.829 228.983 121.663 229.977 121.663C231.263 121.663 232.396 121.985 233.377 122.628C234.359 123.271 235.124 124.182 235.674 125.362C236.225 126.542 236.5 127.934 236.5 129.538C236.5 131.156 236.225 132.558 235.674 133.744C235.124 134.924 234.362 135.839 233.387 136.488C232.413 137.131 231.289 137.453 230.017 137.453C229.036 137.453 228.25 137.291 227.66 136.966C227.07 136.634 226.616 136.26 226.298 135.842C225.98 135.418 225.734 135.067 225.562 134.788H225.284V137.135H223.017ZM225.324 129.498C225.324 130.652 225.493 131.669 225.831 132.551C226.169 133.426 226.663 134.112 227.312 134.609C227.962 135.1 228.757 135.345 229.699 135.345C230.68 135.345 231.498 135.086 232.154 134.569C232.817 134.046 233.315 133.343 233.646 132.461C233.984 131.573 234.153 130.586 234.153 129.498C234.153 128.425 233.987 127.457 233.656 126.595C233.331 125.727 232.837 125.041 232.174 124.537C231.518 124.026 230.693 123.771 229.699 123.771C228.744 123.771 227.942 124.013 227.292 124.497C226.643 124.974 226.152 125.644 225.821 126.506C225.489 127.361 225.324 128.358 225.324 129.498ZM244.583 137.493C243.616 137.493 242.737 137.31 241.949 136.946C241.16 136.575 240.533 136.041 240.069 135.345C239.605 134.642 239.373 133.794 239.373 132.8C239.373 131.925 239.546 131.215 239.89 130.672C240.235 130.122 240.696 129.691 241.272 129.379C241.849 129.068 242.485 128.836 243.181 128.683C243.884 128.524 244.59 128.398 245.299 128.305C246.227 128.186 246.98 128.096 247.556 128.037C248.14 127.97 248.564 127.861 248.829 127.709C249.101 127.556 249.237 127.291 249.237 126.913V126.834C249.237 125.853 248.968 125.09 248.431 124.547C247.901 124.003 247.096 123.731 246.015 123.731C244.895 123.731 244.017 123.977 243.38 124.467C242.744 124.958 242.297 125.481 242.038 126.038L239.811 125.243C240.208 124.315 240.739 123.592 241.402 123.075C242.071 122.551 242.8 122.187 243.589 121.981C244.385 121.769 245.167 121.663 245.936 121.663C246.426 121.663 246.99 121.723 247.626 121.842C248.269 121.955 248.889 122.19 249.485 122.548C250.089 122.906 250.589 123.446 250.987 124.169C251.385 124.891 251.583 125.859 251.583 127.072V137.135H249.237V135.067H249.118C248.958 135.398 248.693 135.753 248.322 136.131C247.951 136.508 247.457 136.83 246.841 137.095C246.224 137.36 245.472 137.493 244.583 137.493ZM244.941 135.385C245.869 135.385 246.652 135.202 247.288 134.838C247.931 134.473 248.415 134.003 248.74 133.426C249.071 132.849 249.237 132.243 249.237 131.606V129.459C249.137 129.578 248.919 129.687 248.581 129.787C248.249 129.88 247.865 129.962 247.427 130.035C246.996 130.102 246.575 130.161 246.164 130.214C245.76 130.261 245.432 130.3 245.18 130.334C244.57 130.413 244 130.542 243.47 130.721C242.946 130.894 242.522 131.156 242.197 131.507C241.879 131.852 241.72 132.322 241.72 132.919C241.72 133.734 242.021 134.351 242.625 134.768C243.234 135.179 244.007 135.385 244.941 135.385ZM258.213 127.947V137.135H255.866V121.862H258.134V124.248H258.332C258.69 123.473 259.234 122.85 259.963 122.379C260.692 121.902 261.634 121.663 262.787 121.663C263.821 121.663 264.726 121.875 265.501 122.3C266.277 122.717 266.88 123.354 267.311 124.209C267.742 125.057 267.957 126.131 267.957 127.43V137.135H265.611V127.589C265.611 126.39 265.299 125.455 264.676 124.785C264.053 124.109 263.198 123.771 262.111 123.771C261.362 123.771 260.692 123.934 260.102 124.258C259.519 124.583 259.058 125.057 258.72 125.68C258.382 126.303 258.213 127.059 258.213 127.947ZM278.45 137.453C277.018 137.453 275.785 137.115 274.751 136.439C273.717 135.763 272.922 134.831 272.365 133.645C271.808 132.458 271.529 131.103 271.529 129.578C271.529 128.027 271.815 126.658 272.385 125.471C272.961 124.278 273.763 123.347 274.791 122.677C275.825 122.001 277.031 121.663 278.41 121.663C279.484 121.663 280.452 121.862 281.314 122.26C282.175 122.657 282.881 123.214 283.431 123.93C283.982 124.646 284.323 125.481 284.456 126.436H282.109C281.93 125.74 281.532 125.123 280.916 124.586C280.306 124.043 279.484 123.771 278.45 123.771C277.535 123.771 276.733 124.01 276.044 124.487C275.361 124.958 274.827 125.624 274.443 126.486C274.065 127.341 273.876 128.345 273.876 129.498C273.876 130.678 274.062 131.706 274.433 132.581C274.811 133.456 275.341 134.135 276.024 134.619C276.713 135.103 277.522 135.345 278.45 135.345C279.06 135.345 279.613 135.239 280.11 135.027C280.608 134.815 281.029 134.51 281.373 134.112C281.718 133.714 281.963 133.237 282.109 132.68H284.456C284.323 133.582 283.995 134.394 283.471 135.116C282.954 135.832 282.268 136.402 281.413 136.827C280.565 137.244 279.577 137.453 278.45 137.453ZM292.38 137.493C291.413 137.493 290.534 137.31 289.745 136.946C288.957 136.575 288.33 136.041 287.866 135.345C287.402 134.642 287.17 133.794 287.17 132.8C287.17 131.925 287.342 131.215 287.687 130.672C288.032 130.122 288.493 129.691 289.069 129.379C289.646 129.068 290.282 128.836 290.978 128.683C291.681 128.524 292.387 128.398 293.096 128.305C294.024 128.186 294.777 128.096 295.353 128.037C295.937 127.97 296.361 127.861 296.626 127.709C296.898 127.556 297.034 127.291 297.034 126.913V126.834C297.034 125.853 296.765 125.09 296.228 124.547C295.698 124.003 294.893 123.731 293.812 123.731C292.692 123.731 291.814 123.977 291.177 124.467C290.541 124.958 290.093 125.481 289.835 126.038L287.608 125.243C288.005 124.315 288.536 123.592 289.199 123.075C289.868 122.551 290.597 122.187 291.386 121.981C292.181 121.769 292.964 121.663 293.733 121.663C294.223 121.663 294.787 121.723 295.423 121.842C296.066 121.955 296.686 122.19 297.282 122.548C297.886 122.906 298.386 123.446 298.784 124.169C299.181 124.891 299.38 125.859 299.38 127.072V137.135H297.034V135.067H296.914C296.755 135.398 296.49 135.753 296.119 136.131C295.748 136.508 295.254 136.83 294.637 137.095C294.021 137.36 293.269 137.493 292.38 137.493ZM292.738 135.385C293.666 135.385 294.449 135.202 295.085 134.838C295.728 134.473 296.212 134.003 296.537 133.426C296.868 132.849 297.034 132.243 297.034 131.606V129.459C296.934 129.578 296.716 129.687 296.377 129.787C296.046 129.88 295.662 129.962 295.224 130.035C294.793 130.102 294.372 130.161 293.961 130.214C293.557 130.261 293.229 130.3 292.977 130.334C292.367 130.413 291.797 130.542 291.267 130.721C290.743 130.894 290.319 131.156 289.994 131.507C289.676 131.852 289.517 132.322 289.517 132.919C289.517 133.734 289.818 134.351 290.422 134.768C291.031 135.179 291.804 135.385 292.738 135.385ZM303.663 137.135V121.862H305.93V124.169H306.089C306.368 123.413 306.872 122.8 307.601 122.329C308.33 121.859 309.152 121.623 310.067 121.623C310.239 121.623 310.455 121.627 310.713 121.633C310.972 121.64 311.167 121.65 311.3 121.663V124.05C311.22 124.03 311.038 124 310.753 123.96C310.474 123.914 310.179 123.89 309.868 123.89C309.125 123.89 308.463 124.046 307.879 124.358C307.303 124.663 306.845 125.087 306.507 125.631C306.176 126.167 306.01 126.781 306.01 127.47V137.135H303.663ZM314.081 137.135V121.862H316.428V137.135H314.081ZM315.275 119.317C314.817 119.317 314.423 119.161 314.091 118.849C313.766 118.538 313.604 118.163 313.604 117.726C313.604 117.288 313.766 116.914 314.091 116.602C314.423 116.291 314.817 116.135 315.275 116.135C315.732 116.135 316.123 116.291 316.448 116.602C316.779 116.914 316.945 117.288 316.945 117.726C316.945 118.163 316.779 118.538 316.448 118.849C316.123 119.161 315.732 119.317 315.275 119.317ZM325.22 137.493C324.252 137.493 323.374 137.31 322.585 136.946C321.796 136.575 321.17 136.041 320.706 135.345C320.242 134.642 320.01 133.794 320.01 132.8C320.01 131.925 320.182 131.215 320.527 130.672C320.872 130.122 321.332 129.691 321.909 129.379C322.486 129.068 323.122 128.836 323.818 128.683C324.521 128.524 325.227 128.398 325.936 128.305C326.864 128.186 327.616 128.096 328.193 128.037C328.777 127.97 329.201 127.861 329.466 127.709C329.738 127.556 329.874 127.291 329.874 126.913V126.834C329.874 125.853 329.605 125.09 329.068 124.547C328.538 124.003 327.732 123.731 326.652 123.731C325.532 123.731 324.653 123.977 324.017 124.467C323.381 124.958 322.933 125.481 322.675 126.038L320.447 125.243C320.845 124.315 321.375 123.592 322.038 123.075C322.708 122.551 323.437 122.187 324.226 121.981C325.021 121.769 325.804 121.663 326.572 121.663C327.063 121.663 327.626 121.723 328.263 121.842C328.906 121.955 329.526 122.19 330.122 122.548C330.725 122.906 331.226 123.446 331.624 124.169C332.021 124.891 332.22 125.859 332.22 127.072V137.135H329.874V135.067H329.754C329.595 135.398 329.33 135.753 328.959 136.131C328.588 136.508 328.094 136.83 327.477 137.095C326.861 137.36 326.108 137.493 325.22 137.493ZM325.578 135.385C326.506 135.385 327.288 135.202 327.925 134.838C328.568 134.473 329.052 134.003 329.376 133.426C329.708 132.849 329.874 132.243 329.874 131.606V129.459C329.774 129.578 329.555 129.687 329.217 129.787C328.886 129.88 328.501 129.962 328.064 130.035C327.633 130.102 327.212 130.161 326.801 130.214C326.397 130.261 326.069 130.3 325.817 130.334C325.207 130.413 324.637 130.542 324.107 130.721C323.583 130.894 323.159 131.156 322.834 131.507C322.516 131.852 322.357 132.322 322.357 132.919C322.357 133.734 322.658 134.351 323.261 134.768C323.871 135.179 324.643 135.385 325.578 135.385ZM96.6712 155.862L100.33 162.106L103.989 155.862H106.694L101.762 163.498L106.694 171.135H103.989L100.33 165.209L96.6712 171.135H93.9666L98.8189 163.498L93.9666 155.862H96.6712ZM111.792 155.862L115.451 162.106L119.11 155.862H121.815L116.883 163.498L121.815 171.135H119.11L115.451 165.209L111.792 171.135H109.088L113.94 163.498L109.088 155.862H111.792ZM126.913 155.862L130.572 162.106L134.232 155.862H136.936L132.004 163.498L136.936 171.135H134.232L130.572 165.209L126.913 171.135H124.209L129.061 163.498L124.209 155.862H126.913ZM142.034 155.862L145.694 162.106L149.353 155.862H152.057L147.125 163.498L152.057 171.135H149.353L145.694 165.209L142.034 171.135H139.33L144.182 163.498L139.33 155.862H142.034ZM157.156 155.862L160.815 162.106L164.474 155.862H167.178L162.246 163.498L167.178 171.135H164.474L160.815 165.209L157.156 171.135H154.451L159.303 163.498L154.451 155.862H157.156ZM172.277 155.862L175.936 162.106L179.595 155.862H182.299L177.368 163.498L182.299 171.135H179.595L175.936 165.209L172.277 171.135H169.572L174.424 163.498L169.572 155.862H172.277ZM187.398 155.862L191.057 162.106L194.716 155.862H197.42L192.489 163.498L197.42 171.135H194.716L191.057 165.209L187.398 171.135H184.693L189.545 163.498L184.693 155.862H187.398ZM202.519 155.862L206.178 162.106L209.837 155.862H212.542L207.61 163.498L212.542 171.135H209.837L206.178 165.209L202.519 171.135H199.814L204.667 163.498L199.814 155.862H202.519ZM217.64 155.862L221.299 162.106L224.958 155.862H227.663L222.731 163.498L227.663 171.135H224.958L221.299 165.209L217.64 171.135H214.935L219.788 163.498L214.935 155.862H217.64ZM232.761 155.862L236.42 162.106L240.079 155.862H242.784L237.852 163.498L242.784 171.135H240.079L236.42 165.209L232.761 171.135H230.056L234.909 163.498L230.056 155.862H232.761ZM247.882 155.862L251.541 162.106L255.2 155.862H257.905L252.973 163.498L257.905 171.135H255.2L251.541 165.209L247.882 171.135H245.178L250.03 163.498L245.178 155.862H247.882ZM263.003 155.862L266.662 162.106L270.321 155.862H273.026L268.094 163.498L273.026 171.135H270.321L266.662 165.209L263.003 171.135H260.299L265.151 163.498L260.299 155.862H263.003Z" fill="black"/>
</svg>
