<svg width="1440" height="112" viewBox="0 0 1440 112" fill="none" xmlns="http://www.w3.org/2000/svg">
<path d="M458.092 39.987C252.607 32.8435 23.2903 49.9051 -25.7244 57.1368L-54.9421 76.8853C-43.6097 85.63 19.4054 98.6445 180.807 80.7454C382.559 58.3716 429.049 73.7882 668.97 74.6887C908.892 75.5891 946.755 74.1501 1199.17 64.2332C1401.1 56.2997 1563.86 57.4467 1620 59.0119C1638.11 49.0941 1617.05 25.2198 1573.24 22.2738C1518.48 18.5914 1144.09 35.3528 984.269 44.6056C824.443 53.8583 714.949 48.9164 458.092 39.987Z" fill="#2915A4" fill-opacity="0.8"/>
<path d="M478.799 48.9446C258.288 48.8652 35.2247 68.7696 -9.15696 75.887L-21.4168 92.459C-1.57679 99.1326 75.9992 107.801 227.583 89.0875C417.063 65.6953 479.643 76.7349 730.265 70.8855C980.888 65.0361 1018.99 62.8502 1272.67 48.0196C1475.61 36.1551 1646.13 32.6151 1706.01 32.3282C1715.75 23.9115 1671.87 5.42102 1623.55 4.26767C1563.15 2.82599 1188.77 26.4623 1030.87 38.2277C872.981 49.993 754.437 49.0438 478.799 48.9446Z" fill="#653099"/>
<path d="M280.146 56.3955C31.9414 58.4295 -218.016 80.4301 -267.572 87.958L-280.442 104.613C-257.736 111.082 -169.933 118.99 -0.363964 98.8623C211.597 73.7029 282.654 84.1198 564.419 75.8809C846.184 67.6419 888.943 65.0954 1173.65 47.8647C1401.41 34.08 1593.14 28.9133 1660.53 28.0531C1671.02 19.5605 1620.59 1.52911 1566.14 0.841236C1498.07 -0.0186017 1078.01 27.1563 900.945 40.4102C723.884 53.6642 590.401 53.853 280.146 56.3955Z" fill="#A17EEB" fill-opacity="0.78"/>
</svg>
