<svg width="1440" height="341" viewBox="0 0 1440 341" fill="none" xmlns="http://www.w3.org/2000/svg">
<path d="M1017.11 292.173C1204.51 356.858 1427.92 342.295 1477.72 326.76L1516.21 264.003C1510.64 231.498 1459.34 174.154 1298.74 204.815C1097.98 243.143 1063.46 180.685 840.413 130.943C617.369 81.2004 581.267 78.8296 340.411 64.1447C147.725 52.3969 -3.27989 16.7943 -54.697 0.461438C-77.2353 31.3092 -71.2312 118.133 -32.09 136.855C16.8365 160.257 375.253 174.926 529.457 173.92C683.661 172.914 782.868 211.317 1017.11 292.173Z" fill="#2915A4" fill-opacity="0.8"/>
<path d="M1002.93 257.108C1208.35 300.233 1427.56 274.605 1472.98 258.565L1493.85 203.521C1479.17 176.54 1411.83 131.425 1259.91 166.818C1070.01 211.059 1018 160.643 781.129 132.211C544.263 103.779 507.516 103.951 262.675 106.047C66.8026 107.724 -94.1004 86.857 -150.068 76.2137C-163.946 103.487 -133.607 176.089 -89.2387 189.476C-33.7789 206.209 328.554 197.053 482.391 186.965C636.228 176.877 746.146 203.202 1002.93 257.108Z" fill="#653099"/>
<path d="M1192.28 269.891C1424.72 311.075 1670.18 283.409 1720.65 266.952L1742.15 211.738C1724.68 184.907 1647.38 140.444 1477.89 177.241C1266.03 223.237 1205.76 173.331 938.514 147.128C671.265 120.925 629.97 121.441 354.853 125.826C134.758 129.334 -46.8389 109.981 -110.126 99.8667C-124.747 127.257 -88.0453 199.541 -37.6976 212.506C25.2368 228.712 432.158 216.172 604.704 204.65C777.251 193.128 901.738 218.412 1192.28 269.891Z" fill="#A17EEB" fill-opacity="0.78"/>
</svg>
