<svg width="776" height="1062" viewBox="0 0 776 1062" fill="none" xmlns="http://www.w3.org/2000/svg">
<path d="M-247.726 420.931C-437.904 512.276 -585.715 700.152 -608.083 752.616L-581.688 836.885C-549.71 860.514 -463.535 869.659 -374.658 717.203C-263.563 526.634 -185.022 553.343 17.8797 421.149C220.781 288.954 248.733 262.664 434.241 86.291C582.648 -54.8076 721.674 -142.646 772.636 -168.929C762.259 -213.19 683.212 -283.272 639.004 -268.682C583.744 -250.445 313.874 18.2033 204.065 140.088C94.2557 261.973 -10.0039 306.749 -247.726 420.931Z" fill="#2915A4" fill-opacity="0.8"/>
<path d="M-207.363 440.005C-391.923 564.073 -527.191 758.182 -545.979 807.641L-513.582 871.443C-479.821 883.166 -392.655 869.182 -314.084 719.465C-215.869 532.319 -135.14 534.93 59.3376 373.53C253.815 212.13 280.041 183.144 453.964 -10.8121C593.102 -165.977 726.548 -274.277 775.879 -309.032C762.363 -343.418 678.092 -382.15 634.725 -358.862C580.517 -329.753 328.345 -37.5075 226.616 91.9137C124.888 221.335 23.3374 284.921 -207.363 440.005Z" fill="#653099"/>
<path d="M-354.27 577.599C-556.545 724.537 -708.903 941.007 -730.961 994.793L-698.86 1059.22C-663.228 1068.63 -569.472 1046.27 -479.502 881.554C-367.04 675.665 -280.826 671.358 -66.4614 484.195C147.903 297.031 177.098 264.179 370.781 44.49C525.728 -131.261 672.722 -257.107 726.851 -298.061C713.768 -333.131 625.205 -366.596 577.909 -338.252C518.789 -302.822 237.528 27.3311 123.606 172.67C9.6846 318.01 -101.427 393.926 -354.27 577.599Z" fill="#A17EEB" fill-opacity="0.78"/>
</svg>
