<svg width="1440" height="406" viewBox="0 0 1440 406" fill="none" xmlns="http://www.w3.org/2000/svg">
<path d="M461.825 123.969C254.486 84.9522 24.1216 148.809 -24.9711 177.837L-53.6064 261.372C-41.8317 299.35 22.1926 357.751 184.092 287.536C386.466 199.766 433.937 267.8 675.719 281.436C917.501 295.072 955.593 290.44 1209.52 258.177C1412.67 232.366 1576.71 243.917 1633.34 252.919C1651.19 211.107 1629 107.825 1584.73 93.4013C1529.4 75.3723 1152.85 132.031 992.189 165.217C831.526 198.403 720.998 172.741 461.825 123.969Z" fill="#2915A4" fill-opacity="0.8"/>
<path d="M483.054 163.243C260.864 153.92 36.9152 230.227 -7.51392 258.954L-19.1919 329.551C1.07077 358.991 79.5896 399.341 231.564 325.23C421.531 232.591 485.036 282.502 737.325 267.616C989.615 252.73 1027.91 244.904 1282.92 191.612C1486.92 148.978 1658.59 140.736 1718.92 141.945C1728.39 106.232 1683.42 25.1173 1634.69 18.2009C1573.77 9.55538 1197.5 95.7095 1038.89 139.753C880.275 183.797 760.791 174.896 483.054 163.243Z" fill="#653099"/>
<path d="M283.194 187.117C33.1858 185.732 -217.776 269.937 -267.402 300.215L-279.691 371.143C-256.549 399.823 -167.756 437.324 2.28179 357.88C214.83 258.576 286.851 306.161 570.422 282.292C853.993 258.422 896.974 249.239 1183.14 186.913C1412.08 137.053 1605.05 122.696 1672.92 121.751C1683.14 85.7436 1631.6 6.33147 1576.7 1.16226C1508.08 -5.29924 1085.93 94.1749 908.061 143.824C730.194 193.474 595.704 188.847 283.194 187.117Z" fill="#A17EEB" fill-opacity="0.78"/>
</svg>
