<svg width="630" height="986" viewBox="0 0 630 986" fill="none" xmlns="http://www.w3.org/2000/svg">
<path d="M200.583 1108.39C65.822 1270.72 9.82364 1503.12 11.3715 1560.13L70.5031 1625.72C109.422 1633.86 191.56 1606.24 208.764 1430.61C230.268 1211.07 312.792 1202.59 442.083 997.829C571.373 793.065 585.815 757.514 680.873 519.848C756.92 329.716 846.651 191.904 882.01 146.764C854.121 110.862 753.05 80.1279 718.953 111.824C676.333 151.445 543.078 508.158 494.1 664.732C445.123 821.305 369.033 905.479 200.583 1108.39Z" fill="#2915A4" fill-opacity="0.8"/>
<path d="M245.223 1108.9C129.215 1298.63 87.216 1531.46 90.7642 1584.25L146.817 1628.73C182.391 1625.3 255.784 1576.24 264.763 1407.4C275.988 1196.35 350.451 1165.06 459.906 937.26C569.361 709.464 581.11 672.182 658.306 423.367C720.063 224.315 796.189 70.2317 826.533 18.0718C799.908 -7.54549 707.163 -7.60727 677.458 31.6438C640.327 80.7075 532.998 451.488 494.508 611.541C456.018 771.594 390.234 871.735 245.223 1108.9Z" fill="#653099"/>
<path d="M169.077 1295.22C46.5052 1513.12 -1.70182 1773.41 0.67929 1831.49L56.7244 1876.67C93.0327 1870.36 168.921 1810.93 182.008 1623.71C198.366 1389.68 274.93 1349.81 391.716 1090.3C508.503 830.797 521.338 788.763 605.763 508.319C673.303 283.964 754.427 108.284 786.546 48.4883C760.03 22.0688 665.58 28.5847 634.413 74.0695C595.453 130.925 477.494 548.292 434.559 727.898C391.624 907.503 322.293 1022.84 169.077 1295.22Z" fill="#A17EEB" fill-opacity="0.78"/>
</svg>
